{"glyphs":{"0":{"ha":884,"x_min":92,"x_max":791,"o":"m 441 89 q 601 193 548 89 q 654 505 654 297 q 601 818 654 714 q 441 922 548 922 q 282 818 336 922 q 229 505 229 714 q 282 193 229 297 q 441 89 336 89 m 701 115 q 441 -20 612 -20 q 181 115 271 -20 q 92 505 92 250 q 181 896 92 762 q 441 1031 271 1031 q 702 896 612 1031 q 791 505 791 762 q 701 115 791 250 z "},"1":{"ha":884,"x_min":153,"x_max":755,"o":"m 755 0 l 172 0 l 172 115 l 396 115 l 396 888 l 153 839 l 153 964 l 395 1013 l 532 1013 l 532 115 l 755 115 l 755 0 z "},"2":{"ha":884,"x_min":102,"x_max":745,"o":"m 745 0 l 102 0 l 102 115 q 314 332 180 196 q 484 507 449 468 q 575 632 549 581 q 602 733 602 684 q 545 865 602 814 q 397 916 488 916 q 261 893 333 916 q 109 825 190 871 l 109 964 q 263 1014 191 997 q 395 1031 335 1031 q 646 952 552 1031 q 739 742 739 873 q 716 624 739 680 q 631 492 692 568 q 523 378 614 472 q 267 115 432 284 l 745 115 l 745 0 z "},"3":{"ha":884,"x_min":106,"x_max":772,"o":"m 106 163 q 231 113 163 130 q 372 96 298 96 q 569 146 501 96 q 636 294 636 197 q 573 434 636 384 q 399 485 511 485 l 281 485 l 281 597 l 404 597 q 559 638 505 597 q 612 754 612 678 q 557 874 612 832 q 399 916 502 916 q 278 903 342 916 q 136 865 214 891 l 136 987 q 282 1020 214 1009 q 411 1031 351 1031 q 658 960 567 1031 q 749 768 749 889 q 701 626 749 684 q 564 546 652 568 q 717 458 662 525 q 772 294 772 392 q 669 62 772 144 q 376 -20 566 -20 q 245 -7 313 -20 q 106 31 178 5 l 106 163 z "},"4":{"ha":884,"x_min":68,"x_max":806,"o":"m 525 353 l 525 893 l 179 353 l 525 353 m 661 0 l 525 0 l 525 239 l 68 239 l 68 371 l 489 1013 l 661 1013 l 661 353 l 806 353 l 806 239 l 661 239 l 661 0 z "},"5":{"ha":884,"x_min":107,"x_max":762,"o":"m 107 161 q 233 112 168 128 q 371 96 298 96 q 557 157 488 96 q 625 325 625 219 q 557 492 625 431 q 371 554 488 554 q 261 542 316 554 q 150 504 207 530 l 150 1013 l 688 1013 l 688 897 l 275 897 l 275 649 q 335 664 305 659 q 395 669 365 669 q 663 576 564 669 q 762 325 762 484 q 661 71 762 161 q 374 -20 559 -20 q 244 -9 310 -20 q 107 24 178 2 l 107 161 z "},"6":{"ha":884,"x_min":97,"x_max":796,"o":"m 458 89 q 605 152 551 89 q 659 325 659 216 q 605 498 659 435 q 458 561 551 561 q 312 498 366 561 q 258 325 258 435 q 312 152 258 216 q 458 89 366 89 m 730 865 q 626 903 679 890 q 522 916 574 916 q 315 824 387 916 q 233 547 243 732 q 334 638 273 606 q 467 669 394 669 q 708 577 619 669 q 796 325 796 484 q 704 75 796 169 q 458 -20 612 -20 q 190 115 283 -20 q 97 505 97 250 q 211 888 97 745 q 517 1031 325 1031 q 621 1021 568 1031 q 730 990 673 1010 l 730 865 z "},"7":{"ha":884,"x_min":114,"x_max":765,"o":"m 397 0 l 254 0 l 600 897 l 114 897 l 114 1013 l 765 1013 l 765 954 l 397 0 z "},"8":{"ha":884,"x_min":94,"x_max":789,"o":"m 595 141 q 652 285 652 194 q 596 429 652 376 q 441 481 540 481 q 288 429 344 481 q 232 285 232 376 q 288 141 232 193 q 441 89 344 89 q 595 141 539 89 m 715 621 q 579 539 667 561 q 733 449 678 516 q 789 285 789 382 q 699 59 789 138 q 441 -20 609 -20 q 184 59 274 -20 q 94 285 94 138 q 150 449 94 382 q 304 539 205 516 q 167 621 216 561 q 118 768 118 682 q 204 960 118 890 q 441 1031 291 1031 q 679 960 593 1031 q 765 768 765 890 q 715 621 765 682 m 579 633 q 629 755 629 677 q 579 878 629 834 q 441 922 530 922 q 303 878 353 922 q 254 755 254 834 q 303 633 254 677 q 441 589 353 589 q 579 633 530 589 z "},"9":{"ha":884,"x_min":87,"x_max":786,"o":"m 153 146 q 257 109 204 121 q 361 96 310 96 q 568 187 496 96 q 650 464 640 278 q 550 374 610 406 q 416 343 490 343 q 176 435 264 343 q 87 686 87 527 q 180 937 87 842 q 425 1031 272 1031 q 693 896 601 1031 q 786 505 786 762 q 672 123 786 266 q 367 -20 559 -20 q 262 -9 315 -20 q 153 21 210 1 l 153 146 m 425 450 q 571 513 517 450 q 625 686 625 576 q 571 859 625 795 q 425 922 517 922 q 279 859 333 922 q 225 686 225 795 q 279 513 225 576 q 425 450 333 450 z "},"\u0000":{"ha":0,"x_min":0,"x_max":0,"o":""},"\r":{"ha":339,"x_min":0,"x_max":0,"o":""}," ":{"ha":441,"x_min":0,"x_max":0,"o":""},"!":{"ha":558,"x_min":210,"x_max":348,"o":"m 348 0 l 210 0 l 210 172 l 348 172 l 348 0 m 334 326 l 224 326 l 210 568 l 210 1013 l 348 1013 l 348 568 l 334 326 z "},"\"":{"ha":639,"x_min":134,"x_max":505,"o":"m 249 636 l 134 636 l 134 1013 l 249 1013 l 249 636 m 505 636 l 390 636 l 390 1013 l 505 1013 l 505 636 z "},"#":{"ha":1164,"x_min":107,"x_max":1057,"o":"m 654 385 l 710 611 l 513 611 l 456 385 l 654 385 m 979 281 l 737 281 l 667 0 l 558 0 l 628 281 l 429 281 l 359 0 l 250 0 l 321 281 l 107 281 l 107 385 l 346 385 l 403 611 l 184 611 l 184 715 l 429 715 l 498 997 l 608 997 l 538 715 l 736 715 l 807 997 l 916 997 l 846 715 l 1057 715 l 1057 611 l 819 611 l 764 385 l 979 385 l 979 281 z "},"$":{"ha":884,"x_min":115,"x_max":768,"o":"m 469 -204 l 401 -204 l 401 0 q 258 17 330 1 q 115 62 187 32 l 115 184 q 255 119 184 141 q 401 96 326 97 l 401 406 q 183 488 252 430 q 115 648 115 547 q 189 823 115 759 q 401 896 263 886 l 401 1055 l 469 1055 l 469 898 q 591 885 532 895 q 707 856 650 874 l 707 737 q 591 781 650 766 q 469 800 532 797 l 469 510 q 696 425 623 486 q 768 258 768 364 q 691 78 768 144 q 469 1 614 12 l 469 -204 m 401 800 q 281 755 323 791 q 240 660 240 720 q 278 569 240 602 q 401 522 317 536 l 401 800 m 469 98 q 599 147 555 110 q 643 245 643 184 q 601 340 643 305 q 469 392 559 376 l 469 98 z "},"%":{"ha":1320,"x_min":77,"x_max":1243,"o":"m 1010 66 q 1101 117 1067 66 q 1135 256 1135 168 q 1101 395 1135 345 q 1010 446 1067 446 q 917 395 951 446 q 884 256 884 345 q 917 117 884 168 q 1010 66 951 66 m 1179 54 q 1010 -20 1116 -20 q 838 55 901 -20 q 775 256 775 129 q 839 457 775 383 q 1010 532 902 532 q 1180 457 1117 532 q 1243 256 1243 382 q 1179 54 1243 129 m 310 566 q 402 616 369 566 q 436 755 436 666 q 402 894 436 843 q 310 945 368 945 q 218 894 252 945 q 184 755 184 844 q 218 616 184 666 q 310 566 251 566 m 397 -20 l 289 -20 l 922 1031 l 1031 1031 l 397 -20 m 481 553 q 310 479 418 479 q 139 554 202 479 q 77 755 77 628 q 140 956 77 882 q 310 1031 203 1031 q 481 957 417 1031 q 545 755 545 882 q 481 553 545 627 z "},"&":{"ha":1083,"x_min":87,"x_max":1040,"o":"m 338 545 q 247 435 276 490 q 218 321 218 380 q 290 156 218 222 q 471 90 362 90 q 591 112 535 90 q 697 176 648 133 l 338 545 m 1040 0 l 869 0 l 772 100 q 625 10 702 39 q 458 -20 547 -20 q 191 74 295 -20 q 87 313 87 167 q 133 476 87 399 q 269 619 178 552 q 220 704 237 662 q 203 787 203 747 q 278 964 203 897 q 478 1031 353 1031 q 590 1019 534 1031 q 704 982 646 1006 l 704 859 q 591 907 645 890 q 492 924 538 924 q 376 886 420 924 q 332 789 332 848 q 352 719 332 754 q 433 621 372 684 l 778 268 q 840 397 818 328 q 867 543 863 466 l 993 543 q 949 366 985 454 q 851 193 914 279 l 1040 0 z "},"'":{"ha":382,"x_min":134,"x_max":249,"o":"m 134 637 l 134 1013 l 249 1013 l 249 637 l 134 637 z "},"(":{"ha":542,"x_min":119,"x_max":431,"o":"m 322 -183 q 170 130 220 -24 q 119 436 119 284 q 170 741 119 587 q 322 1054 220 894 l 431 1054 q 296 745 340 898 q 252 436 252 593 q 296 126 252 279 q 431 -183 340 -28 l 322 -183 z "},")":{"ha":542,"x_min":111,"x_max":422,"o":"m 111 -183 q 246 126 201 -28 q 290 436 290 279 q 246 745 290 593 q 111 1054 201 898 l 220 1054 q 372 741 321 894 q 422 436 422 587 q 372 130 422 284 q 220 -183 321 -24 l 111 -183 z "},"*":{"ha":694,"x_min":41,"x_max":653,"o":"m 614 515 l 386 653 l 386 397 l 309 397 l 309 653 l 81 515 l 41 582 l 285 714 l 41 846 l 81 913 l 309 775 l 309 1031 l 386 1031 l 386 775 l 614 913 l 653 846 l 410 714 l 653 582 l 614 515 z "},"+":{"ha":1164,"x_min":147,"x_max":1017,"o":"m 1017 378 l 639 378 l 639 0 l 525 0 l 525 378 l 147 378 l 147 493 l 525 493 l 525 871 l 639 871 l 639 493 l 1017 493 l 1017 378 z "},",":{"ha":441,"x_min":107,"x_max":306,"o":"m 195 -161 l 107 -161 l 163 56 l 163 172 l 306 172 l 306 56 l 195 -161 z "},"-":{"ha":501,"x_min":68,"x_max":433,"o":"m 433 325 l 68 325 l 68 436 l 433 436 l 433 325 z "},".":{"ha":441,"x_min":149,"x_max":292,"o":"m 292 0 l 149 0 l 149 172 l 292 172 l 292 0 z "},"/":{"ha":468,"x_min":0,"x_max":468,"o":"m 115 -129 l 0 -129 l 353 1013 l 468 1013 l 115 -129 z "},":":{"ha":468,"x_min":163,"x_max":306,"o":"m 306 0 l 163 0 l 163 172 l 306 172 l 306 0 m 306 546 l 163 546 l 163 718 l 306 718 l 306 546 z "},";":{"ha":468,"x_min":107,"x_max":306,"o":"m 306 546 l 163 546 l 163 718 l 306 718 l 306 546 m 195 -161 l 107 -161 l 163 56 l 163 172 l 306 172 l 306 56 l 195 -161 z "},"<":{"ha":1164,"x_min":147,"x_max":1017,"o":"m 1017 64 l 147 379 l 147 492 l 1017 807 l 1017 684 l 317 435 l 1017 187 l 1017 64 z "},"=":{"ha":1164,"x_min":147,"x_max":1017,"o":"m 1017 517 l 147 517 l 147 631 l 1017 631 l 1017 517 m 1017 239 l 147 239 l 147 354 l 1017 354 l 1017 239 z "},">":{"ha":1164,"x_min":147,"x_max":1017,"o":"m 1017 379 l 147 64 l 147 187 l 846 435 l 147 684 l 147 807 l 1017 492 l 1017 379 z "},"?":{"ha":737,"x_min":100,"x_max":640,"o":"m 403 0 l 265 0 l 265 172 l 403 172 l 403 0 m 399 272 l 269 272 l 269 376 q 288 489 269 445 q 368 591 307 533 l 429 652 q 485 720 468 688 q 503 785 503 751 q 458 882 503 845 q 340 920 414 920 q 226 896 287 920 q 100 827 165 872 l 100 954 q 229 1012 163 993 q 364 1031 294 1031 q 565 965 489 1031 q 640 791 640 899 q 616 693 640 740 q 530 589 591 647 l 471 530 q 426 480 439 498 q 407 446 412 463 q 401 411 403 431 q 399 355 399 391 l 399 272 z "},"@":{"ha":1389,"x_min":92,"x_max":1292,"o":"m 697 157 q 828 212 781 157 q 876 364 876 268 q 827 515 876 459 q 696 571 779 571 q 565 515 614 571 q 517 364 517 460 q 565 212 517 267 q 697 157 613 157 m 1092 -106 q 907 -207 1007 -172 q 704 -241 807 -241 q 467 -197 578 -241 q 269 -68 356 -153 q 137 129 182 17 q 92 368 92 240 q 138 604 92 492 q 269 800 184 715 q 471 932 357 886 q 714 978 586 978 q 981 919 858 978 q 1187 751 1104 860 q 1265 607 1238 685 q 1292 446 1292 529 q 1184 164 1292 267 q 886 57 1076 61 l 886 161 q 793 84 846 109 q 671 60 741 60 q 481 144 554 60 q 408 364 408 229 q 481 585 408 500 q 671 669 555 669 q 793 644 741 669 q 886 567 846 618 l 886 656 l 983 656 l 983 157 q 1138 247 1082 172 q 1194 443 1194 323 q 1173 579 1194 515 q 1108 697 1152 643 q 936 833 1038 786 q 715 880 835 880 q 555 858 632 880 q 414 793 479 836 q 247 611 307 724 q 187 368 187 499 q 226 166 187 260 q 339 0 265 72 q 504 -107 410 -71 q 704 -144 597 -144 q 876 -115 791 -144 q 1031 -31 960 -85 l 1092 -106 z "},"[":{"ha":542,"x_min":119,"x_max":407,"o":"m 407 -183 l 119 -183 l 119 1055 l 407 1055 l 407 958 l 244 958 l 244 -86 l 407 -86 l 407 -183 z "},"\\":{"ha":468,"x_min":0,"x_max":468,"o":"m 468 -129 l 353 -129 l 0 1013 l 115 1013 l 468 -129 z "},"]":{"ha":542,"x_min":135,"x_max":422,"o":"m 422 -183 l 135 -183 l 135 -86 l 297 -86 l 297 958 l 135 958 l 135 1055 l 422 1055 l 422 -183 z "},"^":{"ha":1164,"x_min":147,"x_max":1017,"o":"m 1017 635 l 880 635 l 582 903 l 283 635 l 147 635 l 515 1013 l 648 1013 l 1017 635 z "},"_":{"ha":694,"x_min":-14,"x_max":708,"o":"m 708 -328 l -14 -328 l -14 -231 l 708 -231 l 708 -328 z "},"`":{"ha":694,"x_min":115,"x_max":440,"o":"m 440 857 l 336 857 l 115 1111 l 249 1111 l 440 857 z "},"{":{"ha":884,"x_min":174,"x_max":710,"o":"m 710 -227 l 668 -227 q 442 -176 499 -227 q 385 24 385 -126 l 385 186 q 348 328 385 288 q 215 367 311 367 l 174 367 l 174 464 l 215 464 q 348 503 312 464 q 385 643 385 542 l 385 806 q 442 1005 385 956 q 668 1055 499 1055 l 710 1055 l 710 958 l 664 958 q 539 928 568 958 q 510 803 510 899 l 510 635 q 479 480 510 528 q 374 415 448 432 q 479 349 449 397 q 510 195 510 300 l 510 26 q 539 -99 510 -69 q 664 -129 568 -129 l 710 -129 l 710 -227 z "},"|":{"ha":468,"x_min":176,"x_max":292,"o":"m 292 -328 l 176 -328 l 176 1061 l 292 1061 l 292 -328 z "},"}":{"ha":884,"x_min":174,"x_max":710,"o":"m 498 24 q 442 -176 498 -126 q 216 -227 385 -227 l 174 -227 l 174 -129 l 221 -129 q 345 -100 316 -129 q 374 26 374 -71 l 374 195 q 404 349 374 300 q 510 415 435 397 q 404 480 435 432 q 374 635 374 528 l 374 803 q 345 929 374 899 q 221 958 316 958 l 174 958 l 174 1055 l 216 1055 q 442 1005 385 1055 q 498 806 498 956 l 498 643 q 535 503 498 542 q 668 464 572 464 l 710 464 l 710 367 l 668 367 q 535 328 572 367 q 498 186 498 288 l 498 24 z "},"~":{"ha":1164,"x_min":147,"x_max":1017,"o":"m 1017 433 q 885 357 945 380 q 758 334 824 334 q 585 374 684 334 q 574 378 577 376 q 559 383 569 380 q 390 425 454 425 q 272 399 330 425 q 147 317 214 373 l 147 437 q 279 514 218 491 q 406 538 340 538 q 580 497 480 538 q 590 493 587 494 q 605 488 595 491 q 774 446 710 446 q 889 471 832 446 q 1017 554 947 497 l 1017 433 z "},"¤":{"ha":884,"x_min":64,"x_max":822,"o":"m 821 135 l 743 58 l 603 199 q 524 159 563 172 q 443 146 484 146 q 363 158 404 146 q 281 196 322 171 l 140 56 l 64 134 l 204 273 q 166 355 179 315 q 154 435 154 395 q 167 517 154 478 q 205 595 180 557 l 65 734 l 143 812 l 283 672 q 360 711 321 699 q 443 724 399 724 q 523 711 484 724 q 604 673 563 699 l 745 815 l 822 737 l 682 597 q 720 517 707 557 q 732 435 732 477 q 719 353 732 392 q 679 275 706 314 l 821 135 m 443 253 q 572 306 519 253 q 625 436 625 359 q 573 564 625 512 q 443 616 520 616 q 313 564 367 616 q 260 436 260 512 q 313 306 260 359 q 443 253 366 253 z "},"§":{"ha":694,"x_min":62,"x_max":631,"o":"m 219 414 q 436 278 267 370 q 500 339 479 309 q 521 401 521 370 q 472 498 521 452 q 257 635 424 545 q 193 573 214 604 q 172 511 172 543 q 219 414 172 460 m 117 18 q 226 -21 176 -8 q 315 -35 276 -35 q 423 -6 385 -35 q 461 74 461 22 q 311 227 461 143 l 294 236 q 106 369 149 317 q 62 490 62 421 q 94 601 62 552 q 187 682 125 649 q 127 750 147 712 q 107 835 107 788 q 175 977 107 923 q 355 1031 243 1031 q 457 1021 405 1031 q 562 991 509 1011 l 562 880 q 457 920 506 907 q 371 933 409 933 q 269 906 305 933 q 232 831 232 879 q 372 692 232 770 q 399 676 389 682 q 586 543 542 595 q 631 422 631 491 q 600 314 631 361 q 505 231 568 267 q 567 158 547 195 q 586 78 586 121 q 517 -75 586 -18 q 330 -132 448 -132 q 229 -122 281 -132 q 117 -93 176 -113 l 117 18 z "},"«":{"ha":850,"x_min":107,"x_max":720,"o":"m 720 96 l 401 379 l 401 435 l 720 718 l 720 589 l 515 407 l 720 225 l 720 96 m 425 96 l 107 379 l 107 435 l 425 718 l 425 589 l 221 407 l 425 225 l 425 96 z "},"¬":{"ha":1164,"x_min":147,"x_max":1017,"o":"m 1017 195 l 903 195 l 903 469 l 147 469 l 147 585 l 1017 585 l 1017 195 z "},"°":{"ha":694,"x_min":132,"x_max":562,"o":"m 439 723 q 476 814 476 760 q 438 905 476 867 q 347 943 401 943 q 256 906 293 943 q 218 814 218 868 q 256 723 218 760 q 347 686 293 686 q 439 723 401 686 m 431 1014 q 500 966 471 998 q 547 897 531 936 q 562 814 562 859 q 499 662 562 724 q 346 600 437 600 q 193 661 254 600 q 132 814 132 722 q 195 968 132 905 q 347 1031 257 1031 q 431 1014 391 1031 z "},"¶":{"ha":884,"x_min":107,"x_max":733,"o":"m 733 -134 l 637 -134 l 637 929 l 509 929 l 509 -134 l 412 -134 l 412 440 q 187 527 267 452 q 107 726 107 602 q 195 934 107 855 q 429 1013 283 1013 l 733 1013 l 733 -134 z "},"·":{"ha":441,"x_min":149,"x_max":292,"o":"m 149 396 l 149 568 l 292 568 l 292 396 l 149 396 z "},"»":{"ha":850,"x_min":131,"x_max":743,"o":"m 449 379 l 131 96 l 131 225 l 335 407 l 131 589 l 131 718 l 449 435 l 449 379 m 743 379 l 425 96 l 425 225 l 629 407 l 425 589 l 425 718 l 743 435 l 743 379 z "},"÷":{"ha":1164,"x_min":147,"x_max":1017,"o":"m 665 603 l 498 603 l 498 770 l 665 770 l 665 603 m 665 102 l 498 102 l 498 268 l 665 268 l 665 102 m 1017 378 l 147 378 l 147 493 l 1017 493 l 1017 378 z "},"—":{"ha":1389,"x_min":0,"x_max":1389,"o":"m 1389 332 l 0 332 l 0 429 l 1389 429 l 1389 332 z "},"•":{"ha":819,"x_min":208,"x_max":611,"o":"m 611 517 q 553 374 611 432 q 410 315 494 315 q 267 374 325 315 q 208 517 208 432 q 267 659 208 601 q 411 717 326 717 q 553 659 495 717 q 611 517 611 601 z "},"…":{"ha":1389,"x_min":160,"x_max":1229,"o":"m 766 0 l 623 0 l 623 172 l 766 172 l 766 0 m 1229 0 l 1084 0 l 1084 172 l 1229 172 l 1229 0 m 304 0 l 160 0 l 160 172 l 304 172 l 304 0 z "}," ":{"ha":884,"x_min":0,"x_max":0,"o":""},"×":{"ha":1164,"x_min":191,"x_max":974,"o":"m 893 43 l 582 354 l 271 43 l 191 125 l 500 435 l 191 746 l 271 828 l 582 517 l 893 828 l 974 746 l 664 435 l 974 125 l 893 43 z "},"‌":{"ha":0,"x_min":0,"x_max":31,"o":"m 31 -543 l 0 -543 l 0 846 l 31 846 l 31 -543 z "},"‍":{"ha":0,"x_min":-78,"x_max":108,"o":"m 30 -543 l 0 -543 l 0 717 l -58 660 l -78 680 l -5 753 l -78 825 l -58 846 l 15 773 l 87 846 l 108 825 l 35 753 l 108 680 l 87 660 l 30 718 l 30 -543 z "},"‎":{"ha":0,"x_min":0,"x_max":205,"o":"m 31 -543 l 0 -543 l 0 762 l 147 762 l 92 817 l 113 838 l 205 745 l 113 652 l 92 673 l 150 731 l 31 731 l 31 -543 z "},"‏":{"ha":0,"x_min":-175,"x_max":31,"o":"m 31 -543 l 0 -543 l 0 731 l -119 731 l -61 673 l -82 652 l -175 745 l -82 838 l -61 817 l -117 762 l 31 762 l 31 -543 z "},"‐":{"ha":501,"x_min":68,"x_max":433,"o":"m 433 325 l 68 325 l 68 436 l 433 436 l 433 325 z "},"€":{"ha":884,"x_min":0,"x_max":791,"o":"m 791 78 q 668 5 731 29 q 541 -20 606 -20 q 275 79 380 -20 q 143 353 170 177 l 0 353 l 37 436 l 132 436 q 131 468 132 452 q 131 505 131 484 q 131 545 131 529 q 132 576 132 561 l 0 576 l 37 660 l 143 660 q 275 932 170 834 q 541 1031 380 1031 q 670 1007 607 1031 q 791 935 732 983 l 791 790 q 672 892 730 861 q 546 922 615 922 q 371 854 439 922 q 281 660 302 787 l 672 660 l 635 576 l 270 576 q 268 545 269 560 q 268 505 268 529 q 268 468 268 484 q 270 436 269 452 l 572 436 l 534 353 l 281 353 q 371 157 302 226 q 546 89 439 89 q 672 119 615 89 q 791 221 730 150 l 791 78 z "},"−":{"ha":1164,"x_min":147,"x_max":1017,"o":"m 1017 378 l 147 378 l 147 493 l 1017 493 l 1017 378 z "},"∙":{"ha":441,"x_min":149,"x_max":292,"o":"m 149 396 l 149 568 l 292 568 l 292 396 l 149 396 z "},"◌":{"ha":1035,"x_min":61,"x_max":974,"o":"m 760 633 q 711 667 737 652 q 657 692 686 681 l 681 756 q 807 683 750 728 l 760 633 m 378 692 q 322 666 349 681 q 272 631 296 650 l 231 685 q 354 757 286 731 l 378 692 m 216 574 q 155 469 176 526 l 91 493 q 122 558 104 528 q 162 616 140 588 l 216 574 m 66 259 q 62 294 64 277 q 61 330 61 311 q 62 366 61 348 q 66 402 64 385 l 134 391 q 131 360 132 376 q 130 330 130 345 q 131 299 130 314 q 134 269 132 284 l 66 259 m 162 43 q 91 167 116 100 l 155 191 q 216 85 176 134 l 162 43 m 353 -96 q 230 -24 286 -71 l 273 28 q 376 -31 321 -10 l 353 -96 m 588 -121 q 553 -125 570 -123 q 517 -126 535 -126 q 482 -125 499 -126 q 447 -121 465 -123 l 455 -53 q 486 -56 470 -55 q 517 -58 501 -58 q 548 -56 532 -58 q 577 -53 563 -55 l 588 -121 m 803 -25 q 745 -65 774 -47 q 680 -96 715 -83 l 656 -32 q 761 29 713 -10 l 803 -25 m 943 167 q 871 43 916 98 l 819 86 q 880 191 858 133 l 943 167 m 901 271 q 905 330 905 294 q 904 361 905 346 q 901 392 903 377 l 968 399 q 974 330 974 366 q 968 258 974 293 l 901 271 m 880 469 q 854 524 869 497 q 820 574 839 551 l 871 617 q 943 493 917 562 l 880 469 m 579 713 q 548 717 564 715 q 517 718 533 718 q 486 717 501 718 q 455 713 470 715 l 445 781 q 480 785 463 784 q 517 787 498 787 q 552 785 534 787 q 588 781 570 784 l 579 713 z "},"،":{"ha":441,"x_min":107,"x_max":306,"o":"m 250 0 l 107 0 l 107 117 l 218 334 l 306 334 l 250 117 l 250 0 z "},"؛":{"ha":468,"x_min":67,"x_max":210,"o":"m 210 0 l 67 0 l 67 172 l 210 172 l 210 0 m 210 431 l 67 431 l 67 547 l 178 764 l 210 764 l 210 547 l 210 431 z "},"؟":{"ha":737,"x_min":100,"x_max":640,"o":"m 475 0 l 337 0 l 337 172 l 475 172 l 475 0 m 475 272 l 341 272 l 341 355 q 339 411 341 391 q 333 446 338 431 q 326 462 330 454 q 315 480 322 471 q 296 503 307 490 q 269 530 286 515 l 210 589 q 159 643 180 618 q 124 693 138 669 q 105 741 111 717 q 100 791 100 765 q 119 888 100 844 q 175 964 138 932 q 262 1013 211 996 q 376 1031 313 1031 q 640 954 513 1031 l 640 827 q 514 896 574 872 q 399 920 453 920 q 332 909 362 920 q 281 882 302 899 q 249 839 260 864 q 237 785 237 814 q 255 721 237 751 q 311 652 273 690 l 372 591 q 420 538 401 562 q 450 491 439 515 q 465 440 460 467 q 471 376 469 413 l 475 272 z "},"ء":{"ha":522,"x_min":33,"x_max":463,"o":"m 463 180 q 415 171 439 175 q 366 162 391 168 q 311 148 340 157 q 248 126 282 140 q 174 91 214 112 q 86 41 134 71 l 33 153 q 80 181 58 168 q 124 206 102 195 q 80 262 96 232 q 65 331 65 292 q 74 382 65 357 q 96 432 82 408 q 129 475 111 455 q 169 510 148 495 q 211 533 190 524 q 252 541 233 541 q 299 538 279 541 q 336 528 319 535 q 368 509 353 521 q 404 480 384 497 l 336 384 q 319 397 327 392 q 303 405 312 402 q 282 410 294 408 q 252 411 270 411 q 223 404 239 411 q 196 386 208 397 q 175 360 183 375 q 167 331 167 346 q 174 315 167 323 q 194 298 181 307 q 223 282 206 290 q 260 267 241 274 q 355 292 311 283 q 441 308 398 300 l 463 180 z "},"ـ":{"ha":477,"x_min":-47,"x_max":477,"o":"m 477 65 l -47 65 l -47 195 l 477 195 l 477 65 z "},"٠":{"ha":884,"x_min":281,"x_max":602,"o":"m 458 342 l 281 486 l 420 661 l 602 523 l 458 342 z "},"١":{"ha":884,"x_min":243,"x_max":652,"o":"m 547 18 q 528 233 544 132 q 489 422 513 334 q 434 588 465 511 q 371 731 404 665 q 306 852 338 797 q 243 954 273 908 l 332 1027 q 397 920 362 979 q 466 791 431 862 q 532 638 500 721 q 590 459 564 555 q 632 253 615 363 q 652 18 648 142 l 547 18 z "},"٢":{"ha":884,"x_min":104,"x_max":800,"o":"m 399 18 q 376 292 399 163 q 312 534 352 420 q 218 750 272 648 q 104 946 165 852 l 189 1019 q 285 929 242 962 q 366 879 328 896 q 442 859 404 863 q 522 854 479 854 q 627 908 585 854 q 699 1058 670 961 l 800 1019 q 751 895 778 949 q 690 802 724 840 q 614 744 656 764 q 522 724 572 724 q 429 728 473 724 q 342 749 385 732 q 408 590 378 673 q 459 416 437 507 q 492 226 480 326 q 504 18 504 127 l 399 18 z "},"٣":{"ha":884,"x_min":52,"x_max":850,"o":"m 352 18 q 309 287 335 159 q 246 530 283 414 q 161 750 209 646 q 52 948 113 854 l 137 1020 q 199 944 168 975 q 262 894 231 913 q 323 865 293 874 q 380 857 353 857 q 417 870 399 857 q 449 910 435 884 q 471 974 463 936 q 479 1061 479 1012 l 581 1061 q 589 971 581 1007 q 611 912 597 935 q 640 881 624 890 q 673 872 656 872 q 722 917 703 872 q 748 1063 741 962 l 850 1053 q 829 911 844 970 q 793 815 815 852 q 741 760 770 777 q 673 742 711 742 q 596 761 634 742 q 530 826 558 781 q 462 751 501 776 q 380 726 423 726 q 332 731 356 726 q 281 745 307 735 q 388 411 345 592 q 456 18 431 229 l 352 18 z "},"٤":{"ha":884,"x_min":218,"x_max":634,"o":"m 619 -27 q 542 -14 585 -22 q 454 9 498 -5 q 369 42 410 23 q 294 87 327 62 q 242 146 262 113 q 222 219 222 178 q 233 292 222 256 q 264 368 243 328 q 319 451 286 407 q 399 545 353 494 q 326 595 359 569 q 269 649 293 621 q 231 706 245 677 q 218 765 218 735 q 242 842 218 804 q 312 918 267 880 q 418 990 357 955 q 554 1055 480 1025 l 593 935 q 483 885 533 909 q 396 839 433 861 q 340 798 360 817 q 319 765 319 779 q 339 733 319 753 q 392 689 358 713 q 473 638 427 665 q 574 582 520 610 q 455 448 503 505 q 378 349 408 391 q 337 275 349 307 q 324 219 324 244 q 339 190 324 203 q 380 164 355 176 q 438 143 406 153 q 505 125 471 133 q 573 112 540 117 q 634 102 607 106 l 619 -27 z "},"٥":{"ha":884,"x_min":144,"x_max":741,"o":"m 421 779 q 556 731 496 765 q 656 646 615 696 q 719 532 697 595 q 741 398 741 469 q 714 275 741 323 q 643 200 687 227 q 542 162 599 172 q 425 152 486 152 q 312 169 363 152 q 222 219 260 185 q 164 303 185 252 q 144 423 144 355 q 149 486 144 452 q 166 553 154 519 q 200 620 179 587 q 251 684 220 654 q 324 738 282 713 q 421 779 366 762 m 424 646 q 336 599 371 626 q 281 541 302 572 q 253 480 261 511 q 245 423 245 449 q 259 361 245 387 q 296 317 272 334 q 353 291 320 300 q 425 282 386 282 q 505 287 466 282 q 573 304 543 292 q 621 340 603 317 q 639 398 639 362 q 624 481 639 441 q 582 553 610 521 q 515 610 555 586 q 424 646 475 633 z "},"٦":{"ha":884,"x_min":78,"x_max":753,"o":"m 703 -13 q 627 52 662 10 q 566 149 592 94 q 526 272 541 204 q 511 414 511 339 q 511 530 511 482 q 513 617 511 578 q 517 694 514 656 q 527 780 521 732 q 410 760 467 767 q 298 753 353 753 q 235 761 265 753 q 178 784 205 770 q 126 818 151 798 q 78 860 101 838 l 149 954 q 216 903 179 924 q 298 883 252 883 q 472 900 385 883 q 654 945 559 917 q 636 821 644 874 q 625 726 629 768 q 617 650 620 684 q 614 580 615 615 q 613 505 613 545 q 612 414 612 465 q 623 309 612 358 q 653 218 634 259 q 697 147 671 177 q 753 100 723 117 l 703 -13 z "},"٧":{"ha":884,"x_min":43,"x_max":851,"o":"m 392 18 q 351 237 370 139 q 312 418 332 336 q 267 571 292 500 q 211 709 243 642 q 138 843 180 777 q 43 985 97 910 l 127 1061 q 214 936 176 994 q 282 824 252 878 q 335 715 312 769 q 377 599 358 661 q 413 465 396 537 q 447 303 429 393 q 480 452 463 382 q 518 584 498 521 q 562 706 538 647 q 616 822 586 764 q 684 939 646 880 q 767 1061 721 998 l 851 985 q 755 843 796 910 q 683 709 714 777 q 627 571 651 642 q 582 418 603 500 q 543 237 562 336 q 502 18 524 139 l 392 18 z "},"٨":{"ha":884,"x_min":25,"x_max":833,"o":"m 749 -7 q 666 115 703 56 q 598 232 629 174 q 544 348 568 290 q 500 470 520 407 q 463 602 480 533 q 429 751 446 671 q 395 589 412 661 q 359 455 378 517 q 317 339 340 393 q 264 230 294 285 q 197 118 235 176 q 109 -7 159 60 l 25 68 q 121 210 79 143 q 194 345 162 277 q 250 483 225 412 q 294 636 274 553 q 334 817 315 718 q 374 1036 353 915 l 484 1036 q 525 817 506 915 q 565 636 544 718 q 609 483 585 553 q 665 345 633 412 q 738 210 696 277 q 833 68 779 143 l 749 -7 z "},"٩":{"ha":884,"x_min":94,"x_max":784,"o":"m 738 -19 q 660 41 694 3 q 599 126 625 78 q 553 229 572 174 q 522 343 534 284 q 501 462 509 402 q 491 578 494 522 q 416 551 456 561 q 320 542 376 542 q 214 556 257 542 q 144 598 171 570 q 106 668 118 626 q 94 765 94 710 q 102 833 94 798 q 123 902 109 869 q 156 964 136 935 q 199 1015 175 994 q 252 1050 224 1037 q 313 1063 281 1063 q 375 1052 342 1063 q 438 1018 407 1040 q 496 963 469 996 q 545 886 524 930 q 578 788 566 842 q 591 669 591 734 q 594 564 591 620 q 607 450 598 507 q 629 338 615 393 q 665 236 644 283 q 716 153 686 189 q 784 96 745 116 l 738 -19 m 486 716 q 462 810 480 770 q 419 878 444 850 q 367 919 395 905 q 313 932 338 932 q 266 917 287 932 q 229 877 244 901 q 205 823 214 852 q 196 765 196 793 q 224 695 196 719 q 320 672 252 672 q 373 675 350 672 q 415 684 396 678 q 452 697 435 689 q 486 716 469 706 z "},"٪":{"ha":865,"x_min":56,"x_max":815,"o":"m 140 -139 l 56 -139 l 730 1147 l 815 1147 l 140 -139 m 768 -75 l 547 -75 l 547 147 l 768 147 l 768 -75 m 321 854 l 99 854 l 99 1076 l 321 1076 l 321 854 z "},"٫":{"ha":441,"x_min":-75,"x_max":418,"o":"m 8 -280 l -75 -280 l 330 783 l 418 783 l 8 -280 z "},"٬":{"ha":441,"x_min":58,"x_max":347,"o":"m 58 -99 q 148 -48 107 -79 q 216 14 188 -18 q 259 76 243 45 q 274 126 274 106 l 273 133 q 253 123 264 125 q 235 121 243 121 q 205 127 218 121 q 181 145 191 134 q 165 170 171 156 q 159 199 159 184 q 167 233 159 218 q 187 258 174 248 q 216 274 199 269 q 250 279 232 279 q 280 275 263 279 q 311 259 296 271 q 337 223 326 246 q 347 161 347 199 q 331 77 347 119 q 284 -4 315 35 q 211 -78 254 -43 q 113 -140 168 -113 l 58 -99 z "},"۰":{"ha":884,"x_min":237,"x_max":644,"o":"m 440 288 q 361 305 398 288 q 297 350 324 321 q 253 418 269 379 q 237 500 237 456 q 253 583 237 545 q 297 651 269 622 q 361 697 324 680 q 440 713 398 713 q 519 697 482 713 q 584 651 556 680 q 628 583 612 622 q 644 500 644 545 q 628 418 644 456 q 584 350 612 379 q 519 305 556 321 q 440 288 482 288 m 574 500 q 564 549 574 526 q 535 589 553 572 q 492 615 517 606 q 440 625 468 625 q 388 615 412 625 q 346 589 363 606 q 317 549 328 572 q 307 500 307 526 q 317 452 307 475 q 346 413 328 429 q 388 386 363 396 q 440 376 412 376 q 492 386 468 376 q 535 413 517 396 q 564 452 553 429 q 574 500 574 475 z "},"۱":{"ha":884,"x_min":243,"x_max":652,"o":"m 547 18 q 528 233 544 132 q 489 422 513 334 q 434 588 465 511 q 371 731 404 665 q 306 852 338 797 q 243 954 273 908 l 332 1027 q 397 920 362 979 q 466 791 431 862 q 532 638 500 721 q 590 459 564 555 q 632 253 615 363 q 652 18 648 142 l 547 18 z "},"۲":{"ha":884,"x_min":104,"x_max":800,"o":"m 399 18 q 376 292 399 163 q 312 534 352 420 q 218 750 272 648 q 104 946 165 852 l 189 1019 q 285 929 242 962 q 366 879 328 896 q 442 859 404 863 q 522 854 479 854 q 627 908 585 854 q 699 1058 670 961 l 800 1019 q 751 895 778 949 q 690 802 724 840 q 614 744 656 764 q 522 724 572 724 q 429 728 473 724 q 342 749 385 732 q 408 590 378 673 q 459 416 437 507 q 492 226 480 326 q 504 18 504 127 l 399 18 z "},"۳":{"ha":884,"x_min":52,"x_max":850,"o":"m 352 18 q 309 287 335 159 q 246 530 283 414 q 161 750 209 646 q 52 948 113 854 l 137 1020 q 199 944 168 975 q 262 894 231 913 q 323 865 293 874 q 380 857 353 857 q 417 870 399 857 q 449 910 435 884 q 471 974 463 936 q 479 1061 479 1012 l 581 1061 q 589 971 581 1007 q 611 912 597 935 q 640 881 624 890 q 673 872 656 872 q 722 917 703 872 q 748 1063 741 962 l 850 1053 q 829 911 844 970 q 793 815 815 852 q 741 760 770 777 q 673 742 711 742 q 596 761 634 742 q 530 826 558 781 q 462 751 501 776 q 380 726 423 726 q 332 731 356 726 q 281 745 307 735 q 388 411 345 592 q 456 18 431 229 l 352 18 z "},"۴":{"ha":884,"x_min":74,"x_max":821,"o":"m 369 18 q 345 292 369 163 q 281 536 321 421 q 188 753 241 651 q 74 947 134 855 l 155 1015 l 159 1019 q 291 889 231 939 q 406 815 350 839 q 392 857 397 835 q 387 903 387 879 q 405 993 387 953 q 452 1061 422 1033 q 519 1104 481 1089 q 599 1119 557 1119 q 637 1117 621 1119 q 667 1112 653 1116 q 695 1102 681 1108 q 729 1087 709 1096 l 725 968 q 665 983 694 977 q 599 989 635 989 q 557 983 577 989 q 523 966 538 977 q 498 939 507 955 q 489 903 489 923 q 498 867 489 885 q 520 835 508 850 q 546 809 533 820 q 566 793 559 798 q 686 808 628 796 q 792 848 743 821 l 821 741 q 747 702 783 718 q 674 678 711 687 q 598 665 637 669 q 516 661 559 661 q 419 675 467 661 q 323 719 372 689 q 383 565 356 645 q 430 397 410 484 q 460 215 449 310 q 471 18 471 121 l 369 18 z "},"۵":{"ha":884,"x_min":96,"x_max":789,"o":"m 303 960 l 371 1056 q 472 959 422 1010 q 569 851 523 908 q 656 731 616 794 q 725 598 696 668 q 772 450 755 528 q 789 286 789 372 q 769 143 789 199 q 721 57 750 88 q 657 13 692 25 q 591 1 622 1 q 497 28 533 1 q 440 96 461 54 q 375 27 414 52 q 280 1 337 1 q 207 14 241 1 q 148 56 173 27 q 110 129 123 84 q 96 237 96 174 q 117 385 96 308 q 174 545 138 462 q 259 718 210 629 q 363 904 308 808 l 303 960 m 498 300 q 503 246 499 275 q 517 191 507 216 q 546 149 528 165 q 591 132 564 132 q 623 138 606 132 q 654 161 640 144 q 678 209 669 178 q 687 286 687 239 q 668 440 687 366 q 615 581 648 513 q 537 708 581 648 q 442 823 492 768 q 347 652 391 734 q 269 496 302 570 q 217 357 236 422 q 197 237 197 292 q 221 156 197 180 q 280 132 245 132 q 332 149 311 132 q 368 191 354 165 q 389 246 382 216 q 397 300 396 275 l 498 300 z "},"۶":{"ha":884,"x_min":37,"x_max":815,"o":"m 815 608 q 698 556 750 581 q 602 509 646 532 q 521 460 558 485 q 448 404 484 435 q 378 335 413 373 q 303 248 342 297 q 218 136 264 199 q 117 -5 173 74 l 37 74 q 154 236 102 165 q 249 360 205 306 q 332 455 292 414 q 411 529 371 496 q 293 568 342 541 q 211 631 243 594 q 163 712 178 667 q 147 804 147 756 q 161 872 147 839 q 200 936 176 906 q 256 990 224 965 q 322 1034 288 1015 q 392 1062 357 1052 q 458 1072 427 1072 q 554 1062 502 1072 q 675 1023 606 1051 l 637 903 q 538 934 581 926 q 458 942 495 942 q 390 930 427 942 q 322 900 353 919 q 270 856 290 881 q 249 804 249 831 q 264 746 249 774 q 313 696 280 718 q 398 663 347 675 q 519 650 449 650 q 591 656 561 650 q 648 671 621 661 q 705 696 675 682 q 774 728 734 710 l 815 608 z "},"۷":{"ha":884,"x_min":43,"x_max":851,"o":"m 392 18 q 351 237 370 139 q 312 418 332 336 q 267 571 292 500 q 211 709 243 642 q 138 843 180 777 q 43 985 97 910 l 127 1061 q 214 936 176 994 q 282 824 252 878 q 335 715 312 769 q 377 599 358 661 q 413 465 396 537 q 447 303 429 393 q 480 452 463 382 q 518 584 498 521 q 562 706 538 647 q 616 822 586 764 q 684 939 646 880 q 767 1061 721 998 l 851 985 q 755 843 796 910 q 683 709 714 777 q 627 571 651 642 q 582 418 603 500 q 543 237 562 336 q 502 18 524 139 l 392 18 z "},"۸":{"ha":884,"x_min":25,"x_max":833,"o":"m 749 -7 q 666 115 703 56 q 598 232 629 174 q 544 348 568 290 q 500 470 520 407 q 463 602 480 533 q 429 751 446 671 q 395 589 412 661 q 359 455 378 517 q 317 339 340 393 q 264 230 294 285 q 197 118 235 176 q 109 -7 159 60 l 25 68 q 121 210 79 143 q 194 345 162 277 q 250 483 225 412 q 294 636 274 553 q 334 817 315 718 q 374 1036 353 915 l 484 1036 q 525 817 506 915 q 565 636 544 718 q 609 483 585 553 q 665 345 633 412 q 738 210 696 277 q 833 68 779 143 l 749 -7 z "},"۹":{"ha":884,"x_min":94,"x_max":784,"o":"m 738 -19 q 660 41 694 3 q 599 126 625 78 q 553 229 572 174 q 522 343 534 284 q 501 462 509 402 q 491 578 494 522 q 416 551 456 561 q 320 542 376 542 q 214 556 257 542 q 144 598 171 570 q 106 668 118 626 q 94 765 94 710 q 102 833 94 798 q 123 902 109 869 q 156 964 136 935 q 199 1015 175 994 q 252 1050 224 1037 q 313 1063 281 1063 q 375 1052 342 1063 q 438 1018 407 1040 q 496 963 469 996 q 545 886 524 930 q 578 788 566 842 q 591 669 591 734 q 594 564 591 620 q 607 450 598 507 q 629 338 615 393 q 665 236 644 283 q 716 153 686 189 q 784 96 745 116 l 738 -19 m 486 716 q 462 810 480 770 q 419 878 444 850 q 367 919 395 905 q 313 932 338 932 q 266 917 287 932 q 229 877 244 901 q 205 823 214 852 q 196 765 196 793 q 224 695 196 719 q 320 672 252 672 q 373 675 350 672 q 415 684 396 678 q 452 697 435 689 q 486 716 469 706 z "},"ﺍ":{"ha":412,"x_min":149,"x_max":254,"o":"m 254 65 l 149 65 l 149 1055 l 254 1055 l 254 65 z "},"ﺎ":{"ha":448,"x_min":149,"x_max":448,"o":"m 448 65 l 408 65 q 282 80 332 65 q 203 124 233 94 q 161 199 174 153 q 149 307 149 244 l 149 1055 l 254 1055 l 254 307 q 261 257 254 278 q 286 222 268 236 q 333 202 303 209 q 408 195 363 195 l 448 195 l 448 65 z "},"ﻻ":{"ha":873,"x_min":104,"x_max":753,"o":"m 649 1055 l 753 1055 l 753 341 q 738 254 753 293 q 695 182 722 214 q 630 124 667 150 q 549 76 593 98 q 458 37 506 55 q 362 5 410 20 l 258 -28 l 228 97 q 276 112 257 106 q 308 121 295 117 q 330 129 321 125 q 350 136 340 132 q 341 258 347 193 q 324 392 335 323 q 296 531 313 460 q 253 670 279 602 q 191 802 227 738 q 104 921 154 865 l 181 1008 q 272 883 233 950 q 340 743 311 815 q 389 595 369 670 q 421 446 408 519 q 441 302 434 372 q 453 171 448 233 q 530 205 494 187 q 593 244 566 223 q 634 289 619 265 q 649 341 649 313 l 649 1055 z "},"ﻼ":{"ha":936,"x_min":104,"x_max":936,"o":"m 625 1055 l 730 1055 l 730 341 q 742 270 730 298 q 779 225 753 241 q 843 202 804 208 q 936 195 882 195 l 936 65 q 840 70 883 65 q 763 86 797 75 q 704 117 729 98 q 662 165 679 136 q 597 107 634 134 q 518 61 561 81 q 428 25 475 40 q 331 3 380 11 l 180 -23 l 164 106 q 257 121 211 114 q 351 138 303 129 q 341 261 347 196 q 325 393 336 326 q 298 531 315 461 q 255 668 281 601 q 192 800 229 736 q 104 921 155 864 l 180 1008 q 272 882 233 949 q 340 741 311 814 q 388 593 369 669 q 420 444 408 518 q 441 300 433 370 q 452 169 448 231 q 522 201 490 183 q 576 240 553 219 q 612 287 600 262 q 625 341 625 313 l 625 1055 z "},"ً":{"ha":0,"x_min":7,"x_max":340,"o":"m 340 1021 l 7 888 l 7 951 l 340 1083 l 340 1021 m 340 843 l 7 711 l 7 773 l 340 905 l 340 843 z "},"ٌ":{"ha":0,"x_min":-119,"x_max":341,"o":"m 341 778 q 302 791 321 785 q 266 803 283 796 q 208 738 243 768 q 133 684 172 708 q 52 642 93 661 q -24 612 11 624 q -29 629 -26 621 q -33 643 -31 636 q -38 656 -35 649 q -42 671 -40 663 q -6 681 -26 673 q 24 694 13 688 q 26 708 26 702 q 26 718 26 713 q 22 749 26 732 q 10 779 19 765 q -16 803 1 793 q -57 812 -32 812 q -87 807 -73 812 q -96 823 -92 817 q -103 834 -100 829 q -111 845 -107 840 q -119 860 -115 851 q -93 866 -106 864 q -68 867 -80 867 q -16 856 -40 867 q 25 824 7 845 q 52 773 42 804 q 64 706 62 743 q 105 727 81 713 q 152 758 129 741 q 195 790 175 774 q 224 820 214 807 q 187 829 208 825 q 146 840 167 833 q 107 859 125 847 q 75 891 88 871 q 97 965 81 931 q 138 1023 114 999 q 193 1062 163 1048 q 258 1076 224 1076 q 282 1059 270 1070 q 302 1034 294 1048 q 317 1003 311 1020 q 322 968 322 986 q 319 926 322 944 q 311 895 316 909 q 301 869 307 881 q 290 846 295 857 q 315 837 304 840 q 341 831 326 834 l 341 778 m 247 860 q 267 901 259 880 q 275 933 275 921 q 263 985 275 963 q 226 1017 252 1006 q 161 991 185 1017 q 123 917 136 965 q 148 898 135 905 q 175 884 161 890 q 208 873 190 878 q 247 860 225 867 z "},"ٍ":{"ha":0,"x_min":-11,"x_max":323,"o":"m 322 -57 l -11 -191 l -11 -128 l 322 6 l 322 -57 m 323 -228 l -11 -362 l -11 -299 l 322 -165 l 323 -228 z "},"َ":{"ha":0,"x_min":-11,"x_max":322,"o":"m 322 1012 l -11 878 l -11 940 l 322 1074 l 322 1012 z "},"ُ":{"ha":0,"x_min":-11,"x_max":338,"o":"m 325 770 q 303 778 313 774 q 285 785 294 781 q 268 792 277 788 q 247 802 258 796 q 149 700 211 750 q -11 614 86 650 l -11 684 q 53 704 21 691 q 112 734 84 718 q 164 772 140 751 q 205 814 188 792 q 170 826 189 819 q 131 843 150 833 q 96 863 113 852 q 69 884 79 873 q 85 969 71 934 q 122 1027 99 1004 q 174 1061 144 1050 q 238 1073 204 1072 q 262 1054 250 1067 q 282 1024 273 1041 q 296 989 291 1008 q 301 953 301 970 q 299 929 301 943 q 293 899 296 915 q 285 868 290 884 q 276 841 280 853 q 306 828 290 834 q 338 819 322 823 l 325 770 m 235 858 q 251 895 247 878 q 256 926 256 912 q 244 977 256 956 q 208 1010 233 998 q 144 988 167 1010 q 109 919 122 967 q 134 900 121 907 q 162 885 146 892 q 195 873 177 879 q 235 858 214 867 z "},"ِ":{"ha":0,"x_min":-11,"x_max":322,"o":"m 322 -225 l -11 -357 l -11 -295 l 322 -163 l 322 -225 z "},"ّ":{"ha":0,"x_min":-36,"x_max":346,"o":"m 346 949 q 340 900 346 924 q 322 858 334 876 q 290 828 310 840 q 241 817 270 817 q 225 821 235 817 q 204 833 215 825 q 184 857 194 842 q 167 892 174 871 q 155 846 163 869 q 135 804 147 823 q 104 775 122 786 q 61 764 86 764 q 17 777 35 764 q -12 811 -1 790 q -28 858 -23 831 q -34 909 -33 884 l -36 962 l 2 971 l 4 909 q 7 875 5 892 q 17 846 10 859 q 34 825 23 833 q 61 817 45 817 q 99 831 84 817 q 122 867 114 845 q 134 915 131 889 q 137 962 137 940 l 137 1010 l 174 1024 q 178 981 174 1008 q 190 930 182 955 q 211 887 198 905 q 244 869 224 869 q 272 878 260 869 q 290 901 283 886 q 300 935 297 916 q 303 972 303 953 q 302 996 303 983 q 301 1023 302 1010 q 298 1048 300 1036 q 296 1065 297 1059 l 338 1076 l 346 949 z "},"ْ":{"ha":0,"x_min":5,"x_max":283,"o":"m 264 819 q 205 777 239 795 q 136 759 172 759 q 87 769 111 759 q 45 795 64 779 q 16 832 27 812 q 5 873 5 852 q 7 919 5 893 q 21 971 10 944 q 54 1025 32 998 q 115 1077 76 1053 q 190 1047 158 1067 q 242 1001 221 1027 q 273 946 262 975 q 283 887 283 916 q 277 859 283 878 q 264 819 270 840 m 245 875 q 232 916 241 893 q 207 959 223 939 q 169 995 191 979 q 116 1013 146 1010 q 66 958 81 990 q 51 882 51 925 q 58 856 51 867 q 78 839 66 846 q 108 828 91 831 q 144 825 125 825 q 199 836 173 825 q 241 865 226 847 l 245 875 z "},"ٓ":{"ha":0,"x_min":-81,"x_max":427,"o":"m 427 871 q 330 819 380 842 q 284 800 308 810 q 235 784 260 791 q 185 772 210 777 q 135 768 159 768 q 85 769 109 768 q 41 774 61 771 q -1 781 19 777 q -10 734 -8 760 q -12 686 -12 707 l -81 686 q -78 730 -81 705 q -68 783 -75 755 q -51 837 -62 810 q -22 884 -39 863 q 14 869 -9 876 q 62 860 33 864 q 135 856 92 856 q 178 860 156 856 q 223 870 201 863 q 266 884 245 876 q 305 901 287 892 q 390 946 349 920 l 427 871 z "},"ٔ":{"ha":0,"x_min":-8,"x_max":355,"o":"m 355 796 q 287 783 318 789 q 219 765 256 777 q 136 733 183 753 q 22 680 90 713 l -8 760 q 44 786 20 774 q 90 807 68 798 q 47 854 64 828 q 31 913 31 880 q 46 973 31 943 q 85 1026 62 1003 q 135 1063 108 1049 q 185 1078 162 1078 q 232 1072 212 1078 q 268 1056 252 1066 q 297 1032 283 1046 q 323 1003 310 1019 l 272 946 q 256 963 264 955 q 238 977 248 971 q 216 986 229 983 q 185 989 203 989 q 157 983 172 989 q 130 965 142 976 q 109 941 117 955 q 100 913 100 927 q 126 879 100 895 q 189 847 151 862 q 269 868 232 861 q 342 884 306 876 l 355 796 z "},"ٕ":{"ha":0,"x_min":-41,"x_max":321,"o":"m 321 -303 q 282 -310 300 -307 q 245 -318 264 -313 q 202 -329 225 -322 q 150 -347 180 -336 q 80 -376 119 -359 q -12 -419 41 -394 l -41 -339 q 11 -313 -13 -325 q 56 -292 35 -302 q 14 -245 31 -271 q -2 -186 -2 -219 q 13 -126 -2 -156 q 52 -73 28 -96 q 102 -36 75 -50 q 152 -22 129 -22 q 198 -27 178 -22 q 234 -43 218 -33 q 263 -67 250 -54 q 290 -96 277 -81 l 239 -153 q 223 -136 231 -144 q 205 -122 215 -128 q 182 -113 195 -117 q 152 -110 170 -110 q 124 -117 139 -110 q 97 -134 109 -123 q 76 -158 84 -144 q 67 -186 67 -172 q 93 -221 67 -204 q 156 -252 118 -237 q 201 -238 180 -243 q 239 -230 221 -233 q 274 -223 257 -226 q 309 -216 290 -220 l 321 -303 z "},"ٖ":{"ha":0,"x_min":115,"x_max":229,"o":"m 183 -347 q 178 -271 183 -304 q 163 -209 172 -237 q 141 -157 153 -180 q 115 -111 128 -133 l 169 -62 q 192 -102 181 -81 q 211 -149 203 -123 q 224 -205 219 -174 q 229 -273 229 -235 q 228 -289 229 -279 q 226 -310 227 -299 q 223 -332 224 -321 q 221 -347 222 -342 l 183 -347 z "},"ٰ":{"ha":0,"x_min":81,"x_max":195,"o":"m 149 798 q 144 875 149 841 q 129 937 138 909 q 107 989 119 965 q 81 1034 94 1013 l 135 1084 q 158 1043 147 1065 q 177 997 169 1022 q 190 941 185 971 q 195 873 195 910 q 194 857 195 867 q 192 835 193 846 q 189 814 191 824 q 187 798 188 804 l 149 798 z "},"﴾":{"ha":1072,"x_min":54,"x_max":1045,"o":"m 871 -421 q 671 -333 763 -385 q 505 -218 579 -281 q 373 -79 430 -154 q 279 78 317 -5 l 191 78 l 191 277 l 54 414 l 191 551 l 191 749 l 279 749 q 373 907 316 832 q 505 1045 430 981 q 671 1160 579 1109 q 871 1249 763 1212 l 1045 1249 q 940 1135 990 1194 q 846 1014 890 1076 q 766 885 802 951 q 703 749 730 819 l 862 749 l 862 551 l 999 414 l 862 277 l 862 78 l 703 78 q 766 -57 730 9 q 846 -186 802 -123 q 940 -308 890 -249 q 1045 -421 990 -367 l 871 -421 m 795 145 l 795 304 l 905 414 l 795 524 l 795 682 l 637 682 l 526 792 l 416 682 l 258 682 l 258 524 l 148 414 l 258 304 l 258 145 l 416 145 l 526 35 l 637 145 l 795 145 m 749 415 q 732 328 749 369 q 684 257 714 288 q 613 210 654 227 q 526 192 572 192 q 439 210 480 192 q 369 257 399 227 q 321 328 338 288 q 303 415 303 369 q 321 502 303 461 q 369 573 338 543 q 439 621 399 603 q 526 638 480 638 q 613 621 572 638 q 684 573 654 603 q 732 502 714 543 q 749 415 749 461 m 637 774 q 744 992 680 891 q 887 1183 808 1094 l 884 1183 q 707 1105 789 1150 q 558 1005 625 1060 q 439 885 492 949 q 351 749 387 821 l 389 749 l 526 886 l 637 774 m 887 -355 q 744 -166 808 -268 q 637 52 680 -64 l 526 -59 l 389 78 l 351 78 q 558 -177 424 -66 q 884 -355 692 -289 l 887 -355 m 526 262 l 680 416 l 526 570 l 372 416 l 526 262 z "},"﴿":{"ha":1072,"x_min":27,"x_max":1018,"o":"m 882 78 l 793 78 q 699 -79 755 -5 q 568 -218 642 -154 q 401 -333 493 -281 q 201 -421 309 -385 l 27 -421 q 132 -308 82 -367 q 226 -186 182 -249 q 306 -57 270 -123 q 369 78 342 9 l 210 78 l 210 277 l 73 414 l 210 551 l 210 749 l 369 749 q 306 885 342 819 q 226 1014 270 951 q 132 1135 182 1076 q 27 1249 82 1194 l 201 1249 q 401 1160 309 1212 q 568 1045 493 1109 q 699 907 642 981 q 793 749 755 832 l 882 749 l 882 551 l 1018 414 l 882 277 l 882 78 m 814 145 l 814 304 l 924 414 l 814 524 l 814 682 l 656 682 l 546 792 l 435 682 l 277 682 l 277 524 l 168 414 l 277 304 l 277 145 l 435 145 l 546 35 l 656 145 l 814 145 m 769 415 q 751 328 769 369 q 704 257 734 288 q 633 210 673 227 q 546 192 592 192 q 459 210 500 192 q 388 257 418 227 q 340 328 358 288 q 323 415 323 369 q 340 502 323 461 q 388 573 358 543 q 459 621 418 603 q 546 638 500 638 q 633 621 592 638 q 704 573 673 603 q 751 502 734 543 q 769 415 769 461 m 721 749 q 633 885 685 821 q 514 1005 581 949 q 365 1105 447 1060 q 189 1183 283 1150 l 185 1183 q 328 992 264 1094 q 435 774 392 891 l 546 886 l 684 749 l 721 749 m 684 78 l 546 -59 l 435 52 q 328 -166 392 -64 q 185 -355 264 -268 l 189 -355 q 514 -177 380 -289 q 721 78 648 -66 l 684 78 m 701 416 l 546 570 l 393 416 l 546 262 l 701 416 z "},"﷼":{"ha":1965,"x_min":81,"x_max":1883,"o":"m 1050 -39 l 915 -39 l 915 96 l 1050 96 l 1050 -39 m 1267 -39 l 1132 -39 l 1132 96 l 1267 96 l 1267 -39 m 873 382 q 841 150 873 246 q 746 -7 808 54 q 594 -97 684 -68 q 390 -125 505 -125 q 256 -106 313 -125 q 159 -53 198 -87 q 101 29 121 -18 q 81 132 81 76 q 93 228 81 180 q 122 319 104 275 q 158 400 139 362 q 194 466 178 437 l 279 426 q 250 370 266 401 q 221 303 234 340 q 199 224 208 267 q 190 132 190 181 q 202 81 190 104 q 239 41 214 58 q 302 14 264 24 q 390 5 339 5 q 559 22 488 5 q 677 81 631 39 q 746 194 724 123 q 768 370 768 264 l 768 1108 l 873 1108 l 873 382 m 1492 746 q 1546 564 1531 635 q 1561 454 1561 492 q 1543 368 1561 409 q 1490 297 1525 328 q 1404 248 1455 266 q 1284 230 1352 230 q 1159 244 1208 230 q 1079 289 1109 259 q 1038 363 1050 318 q 1025 471 1025 409 l 1025 1108 l 1130 1108 l 1130 471 q 1137 422 1130 443 q 1162 387 1144 401 q 1209 367 1179 374 q 1284 360 1239 360 q 1361 368 1329 360 q 1414 389 1393 376 q 1444 418 1434 401 q 1455 454 1455 435 q 1441 538 1455 475 q 1394 699 1428 601 l 1492 746 m 1356 56 q 1522 127 1446 87 q 1655 213 1599 168 q 1743 310 1711 259 q 1775 414 1775 361 q 1768 483 1775 446 q 1750 555 1761 520 q 1725 621 1739 591 q 1697 669 1712 651 l 1780 750 q 1816 687 1798 726 q 1849 602 1834 648 q 1874 507 1864 555 q 1883 414 1883 458 q 1845 264 1883 336 q 1741 131 1807 193 q 1585 19 1675 70 q 1390 -68 1495 -32 l 1356 56 z "},"ﮒ":{"ha":1497,"x_min":92,"x_max":1442,"o":"m 1442 1079 q 1334 1042 1397 1064 q 1201 992 1272 1020 q 1058 934 1131 965 q 919 871 985 903 l 889 951 q 983 995 935 973 q 1081 1037 1031 1017 q 1178 1076 1130 1057 q 1270 1111 1225 1095 q 1352 1140 1314 1127 q 1421 1164 1390 1154 l 1442 1079 m 199 312 q 227 248 199 275 q 303 203 254 220 q 418 178 352 186 q 561 170 484 170 q 691 171 623 170 q 826 178 759 173 q 953 194 892 184 q 1060 220 1014 204 q 1134 260 1106 237 q 1161 317 1161 284 q 1137 397 1161 360 q 1070 467 1112 433 q 972 532 1028 500 q 851 600 916 565 l 865 762 q 1011 836 934 800 q 1162 901 1088 871 q 1302 953 1236 931 q 1413 986 1367 975 l 1437 860 q 1345 832 1400 850 q 1228 788 1291 813 q 1099 735 1165 764 q 972 676 1032 706 q 1086 606 1033 642 q 1180 528 1140 570 q 1242 435 1219 486 q 1265 317 1265 383 q 1233 211 1265 255 q 1147 135 1201 166 q 1021 86 1093 104 q 872 57 950 67 q 713 43 793 46 q 561 39 633 39 q 377 55 463 39 q 228 104 292 71 q 129 189 165 138 q 92 312 92 241 q 98 378 92 342 q 113 450 104 413 q 132 522 121 486 q 154 590 143 558 l 258 567 q 238 502 249 537 q 219 433 228 467 q 204 367 210 398 q 199 312 199 335 z "},"ﮓ":{"ha":1586,"x_min":92,"x_max":1586,"o":"m 1444 1081 q 1336 1044 1398 1066 q 1202 995 1273 1022 q 1059 936 1132 967 q 920 873 986 905 l 890 954 q 984 997 936 975 q 1082 1039 1033 1019 q 1179 1078 1131 1059 q 1271 1113 1227 1097 q 1353 1142 1315 1129 q 1422 1166 1392 1156 l 1444 1081 m 199 312 q 227 248 199 275 q 304 203 255 220 q 419 178 353 186 q 562 170 486 170 q 692 171 624 170 q 827 178 760 173 q 955 194 894 184 q 1061 220 1015 204 q 1135 260 1107 237 q 1162 317 1162 284 q 1138 397 1162 360 q 1072 467 1114 433 q 973 532 1029 500 q 852 600 917 565 l 866 762 q 1013 836 935 800 q 1164 901 1090 871 q 1303 953 1238 931 q 1414 986 1369 975 l 1438 860 q 1347 832 1401 850 q 1229 788 1292 813 q 1100 735 1166 764 q 973 676 1034 706 q 1090 606 1027 645 q 1214 520 1154 566 q 1326 421 1274 474 q 1410 310 1378 368 q 1436 267 1422 288 q 1471 230 1451 246 q 1519 205 1491 214 q 1586 195 1547 195 l 1586 65 q 1487 81 1529 65 q 1414 123 1445 97 q 1359 183 1383 150 q 1317 252 1336 217 q 1267 321 1297 289 q 1234 211 1266 257 q 1147 134 1202 165 q 1022 84 1093 103 q 873 56 951 66 q 714 42 795 45 q 562 39 634 39 q 378 55 464 39 q 229 104 292 71 q 129 189 165 138 q 92 312 92 241 q 98 378 92 342 q 113 450 104 413 q 132 522 121 486 q 154 590 143 558 l 258 567 q 238 502 249 537 q 219 433 228 467 q 204 367 210 398 q 199 312 199 335 z "},"ﮔ":{"ha":692,"x_min":-47,"x_max":629,"o":"m 629 1081 q 520 1044 583 1066 q 387 995 458 1022 q 244 936 317 967 q 105 873 171 905 l 75 954 q 169 997 121 975 q 267 1039 218 1019 q 364 1078 316 1059 q 456 1113 412 1097 q 538 1142 500 1129 q 607 1166 576 1156 l 629 1081 m 0 65 q -47 73 -24 65 l -47 195 l 0 195 l 47 195 q 157 202 103 195 q 253 224 211 210 q 321 262 296 239 q 347 317 347 286 q 323 397 347 360 q 256 467 298 433 q 158 532 214 500 q 37 600 102 565 l 51 762 q 197 836 120 800 q 349 901 275 871 q 488 953 422 931 q 599 986 553 975 l 623 860 q 531 832 586 850 q 414 788 477 813 q 285 735 351 764 q 158 676 218 706 q 273 606 219 642 q 366 528 326 570 q 429 435 406 486 q 452 317 452 383 q 436 238 452 273 q 391 175 420 203 q 324 126 363 146 q 241 92 286 105 q 146 72 196 79 q 47 65 97 65 l 0 65 z "},"ﮕ":{"ha":781,"x_min":-47,"x_max":781,"o":"m 629 1081 q 520 1044 583 1066 q 387 995 458 1022 q 244 936 317 967 q 105 873 171 905 l 75 954 q 169 997 121 975 q 267 1039 218 1019 q 364 1078 316 1059 q 456 1113 412 1097 q 538 1142 500 1129 q 607 1166 576 1156 l 629 1081 m 781 65 q 677 81 721 65 q 601 123 633 97 q 545 183 568 149 q 502 252 521 216 q 479 289 492 272 q 452 322 467 305 q 436 241 452 277 q 391 176 420 205 q 324 127 363 148 q 241 92 286 106 q 146 72 196 79 q 47 65 97 65 l 0 65 q -47 73 -24 65 l -47 195 l 0 195 l 47 195 q 157 202 103 195 q 253 224 211 210 q 321 262 296 239 q 347 317 347 286 q 323 397 347 360 q 256 467 298 433 q 158 532 214 500 q 37 600 102 565 l 51 762 q 197 836 120 800 q 349 901 275 871 q 488 953 422 931 q 599 986 553 975 l 623 860 q 531 832 586 850 q 414 788 477 813 q 285 735 351 764 q 158 676 218 706 q 275 606 212 645 q 399 520 338 566 q 511 421 459 474 q 595 310 563 368 q 622 267 607 288 q 659 230 637 246 q 710 205 680 214 q 781 195 740 195 l 781 65 z "},"آ":{"ha":488,"x_min":1,"x_max":509,"o":"m 300 65 l 196 65 l 196 813 l 300 813 l 300 65 m 509 1088 q 411 1036 461 1059 q 366 1017 389 1027 q 317 1001 342 1008 q 266 989 292 994 q 216 985 241 985 q 166 986 191 985 q 123 991 142 988 q 80 998 100 994 q 72 951 73 977 q 70 903 70 924 l 1 903 q 3 947 1 922 q 13 1000 6 972 q 31 1054 20 1027 q 59 1101 42 1080 q 95 1086 73 1093 q 144 1077 114 1081 q 216 1073 174 1073 q 260 1077 237 1073 q 304 1087 282 1080 q 347 1101 326 1093 q 387 1118 368 1109 q 471 1163 430 1137 l 509 1088 z "},"أ":{"ha":488,"x_min":66,"x_max":429,"o":"m 429 961 q 361 948 393 954 q 294 929 330 941 q 211 898 258 918 q 96 845 164 878 l 66 925 q 119 951 95 939 q 164 972 142 962 q 122 1019 138 993 q 106 1078 106 1045 q 121 1138 106 1108 q 159 1191 136 1168 q 210 1228 182 1214 q 260 1242 237 1242 q 306 1237 286 1242 q 342 1221 326 1231 q 371 1197 358 1211 q 398 1168 385 1183 l 347 1111 q 331 1128 338 1120 q 313 1142 323 1136 q 290 1151 303 1147 q 260 1154 277 1154 q 232 1147 247 1154 q 204 1130 217 1141 q 183 1106 192 1120 q 175 1078 175 1092 q 200 1043 175 1060 q 264 1012 226 1027 q 343 1033 307 1026 q 416 1048 380 1040 l 429 961 m 296 65 l 192 65 l 192 813 l 296 813 l 296 65 z "},"ؤ":{"ha":731,"x_min":111,"x_max":635,"o":"m 111 -190 l 112 -187 q 292 -105 218 -146 q 412 -23 365 -64 q 485 58 459 18 q 521 137 510 98 q 470 125 495 129 q 416 122 445 122 q 375 123 397 122 q 329 130 352 125 q 283 145 305 135 q 243 173 260 155 q 215 218 226 191 q 205 282 205 244 q 213 344 205 311 q 237 412 222 378 q 272 477 252 446 q 314 533 292 509 q 361 572 337 557 q 410 587 386 587 q 475 571 445 587 q 530 529 505 555 q 574 468 555 503 q 608 393 594 433 q 628 312 621 354 q 635 232 635 271 q 630 137 635 184 q 606 44 624 90 q 556 -47 589 -2 q 468 -137 523 -93 q 335 -225 414 -182 q 146 -311 256 -269 l 111 -190 m 529 277 q 514 342 524 310 q 489 400 504 374 q 454 441 474 425 q 410 456 434 456 q 375 438 393 456 q 342 394 357 420 q 319 337 328 367 q 310 282 310 307 q 321 266 310 272 q 349 257 333 260 q 384 253 366 254 q 416 252 402 252 q 475 258 448 252 q 529 277 503 264 m 558 796 q 490 783 522 789 q 423 765 459 777 q 340 733 387 753 q 225 680 293 713 l 195 760 q 248 786 224 774 q 293 807 271 798 q 251 854 267 828 q 235 913 235 880 q 250 973 235 943 q 288 1026 265 1003 q 338 1063 311 1049 q 389 1078 366 1078 q 435 1072 415 1078 q 471 1056 455 1066 q 500 1032 487 1046 q 527 1003 513 1019 l 475 946 q 459 963 467 955 q 442 977 452 971 q 419 986 432 983 q 389 989 406 989 q 361 983 376 989 q 333 965 346 976 q 312 941 321 955 q 304 913 304 927 q 329 879 304 895 q 393 847 355 862 q 472 868 435 861 q 545 884 509 876 l 558 796 z "},"إ":{"ha":441,"x_min":18,"x_max":380,"o":"m 254 65 l 149 65 l 149 1055 l 254 1055 l 254 65 m 380 -303 q 341 -310 359 -307 q 304 -318 323 -313 q 261 -329 284 -322 q 209 -347 239 -336 q 139 -376 178 -359 q 47 -419 100 -394 l 18 -339 q 70 -313 46 -325 q 115 -292 94 -302 q 73 -245 90 -271 q 57 -186 57 -219 q 72 -126 57 -156 q 111 -73 87 -96 q 161 -36 134 -50 q 211 -22 188 -22 q 257 -27 237 -22 q 293 -43 277 -33 q 322 -67 309 -54 q 349 -96 336 -81 l 298 -153 q 282 -136 290 -144 q 264 -122 274 -128 q 241 -113 254 -117 q 211 -110 229 -110 q 183 -117 198 -110 q 156 -134 168 -123 q 135 -158 143 -144 q 126 -186 126 -172 q 152 -221 126 -204 q 215 -252 177 -237 q 260 -238 239 -243 q 298 -230 280 -233 q 333 -223 316 -226 q 368 -216 349 -220 l 380 -303 z "},"ئ":{"ha":1216,"x_min":77,"x_max":1146,"o":"m 1058 347 q 1006 407 1032 389 q 952 425 980 425 q 904 418 928 425 q 855 399 879 411 q 810 372 831 388 q 773 340 789 357 q 748 306 758 323 q 739 273 739 288 q 743 260 739 266 q 758 249 746 255 q 790 236 769 243 q 847 219 811 229 q 949 183 910 201 q 1010 143 988 165 q 1040 93 1032 121 q 1047 24 1047 64 q 1015 -55 1047 -19 q 929 -120 983 -92 q 808 -170 876 -149 q 669 -205 741 -191 q 529 -227 598 -220 q 406 -234 460 -234 q 162 -167 246 -234 q 77 24 77 -100 q 89 119 77 72 q 118 210 101 167 q 155 291 136 254 q 191 357 175 329 l 277 317 q 247 262 263 292 q 218 195 231 231 q 195 115 204 158 q 186 24 186 73 q 240 -71 186 -38 q 406 -104 294 -104 q 508 -100 451 -104 q 625 -90 566 -97 q 741 -72 684 -83 q 841 -47 797 -61 q 912 -15 885 -33 q 939 24 939 3 q 935 42 939 35 q 918 58 931 50 q 882 73 905 65 q 819 93 858 81 q 721 127 758 110 q 665 164 684 144 q 639 211 645 184 q 633 273 633 237 q 647 334 633 301 q 684 398 661 366 q 740 458 708 429 q 807 509 772 487 q 880 544 843 531 q 952 557 917 557 q 1052 524 1003 557 q 1146 419 1101 491 l 1058 347 m 694 722 q 626 709 657 715 q 558 691 595 703 q 475 659 522 679 q 361 606 429 639 l 331 686 q 383 712 359 701 q 429 733 407 724 q 387 780 403 754 q 370 839 370 806 q 386 899 370 869 q 424 952 401 929 q 474 989 447 975 q 524 1004 501 1004 q 571 998 551 1004 q 607 982 591 992 q 636 958 623 972 q 663 929 649 945 l 611 872 q 595 889 603 881 q 577 903 587 897 q 555 912 568 909 q 524 916 542 916 q 496 909 511 916 q 469 891 481 902 q 448 867 456 881 q 439 839 439 853 q 465 805 439 821 q 528 773 490 788 q 608 794 571 787 q 681 810 645 802 l 694 722 z "},"ا":{"ha":412,"x_min":149,"x_max":254,"o":"m 254 65 l 149 65 l 149 1055 l 254 1055 l 254 65 z "},"ب":{"ha":1497,"x_min":92,"x_max":1411,"o":"m 199 312 q 227 248 199 275 q 304 203 255 220 q 419 178 353 186 q 562 170 486 170 q 692 174 627 170 q 821 186 758 178 q 944 203 884 193 q 1056 222 1003 212 q 1153 243 1109 233 q 1231 262 1198 254 q 1287 282 1270 273 q 1305 302 1305 292 q 1289 414 1305 347 q 1242 578 1273 480 l 1351 587 q 1379 493 1368 534 q 1398 420 1391 453 q 1408 360 1405 388 q 1411 302 1411 332 q 1401 238 1411 264 q 1373 193 1392 212 q 1325 162 1354 175 q 1259 140 1297 150 q 1176 118 1223 130 q 1073 96 1128 107 q 955 75 1017 85 q 827 57 892 64 q 694 44 762 49 q 562 39 627 39 q 378 55 464 39 q 229 104 292 71 q 129 189 165 138 q 92 312 92 241 q 98 378 92 342 q 113 450 104 413 q 132 522 121 486 q 154 590 143 558 l 258 567 q 238 502 249 537 q 219 433 228 467 q 204 367 210 398 q 199 312 199 335 m 784 -248 l 648 -248 l 648 -113 l 784 -113 l 784 -248 z "},"ة":{"ha":743,"x_min":81,"x_max":672,"o":"m 296 674 q 375 639 333 661 q 459 590 418 618 q 539 529 501 563 q 607 458 578 496 q 654 379 637 420 q 672 294 672 338 q 657 230 672 261 q 615 172 642 199 q 555 122 589 145 q 483 83 521 100 q 404 58 444 67 q 328 49 364 49 q 230 66 275 49 q 152 112 185 83 q 100 182 119 142 q 81 270 81 222 q 93 343 81 304 q 122 424 104 383 q 163 504 140 464 q 211 577 186 543 q 257 636 235 610 q 296 674 279 661 m 317 528 q 272 470 295 503 q 230 402 249 437 q 198 332 210 367 q 186 270 186 298 q 197 234 186 250 q 227 205 208 217 q 272 186 245 193 q 328 179 298 179 q 408 188 366 179 q 486 213 450 197 q 545 250 522 229 q 568 294 568 271 q 545 360 568 327 q 485 425 522 394 q 404 482 449 455 q 317 528 359 509 m 256 783 l 121 783 l 121 918 l 256 918 l 256 783 m 456 783 l 321 783 l 321 918 l 456 918 l 456 783 z "},"ت":{"ha":1497,"x_min":92,"x_max":1411,"o":"m 199 312 q 227 248 199 275 q 304 203 255 220 q 419 178 353 186 q 562 170 486 170 q 692 174 627 170 q 821 186 758 178 q 944 203 884 193 q 1056 222 1003 212 q 1153 243 1109 233 q 1231 262 1198 254 q 1287 282 1270 273 q 1305 302 1305 292 q 1289 414 1305 347 q 1242 578 1273 480 l 1351 587 q 1379 493 1368 534 q 1398 420 1391 453 q 1408 360 1405 388 q 1411 302 1411 332 q 1401 238 1411 264 q 1373 193 1392 212 q 1325 162 1354 175 q 1259 140 1297 150 q 1176 118 1223 130 q 1073 96 1128 107 q 955 75 1017 85 q 827 57 892 64 q 694 44 762 49 q 562 39 627 39 q 378 55 464 39 q 229 104 292 71 q 129 189 165 138 q 92 312 92 241 q 98 378 92 342 q 113 450 104 413 q 132 522 121 486 q 154 590 143 558 l 258 567 q 238 502 249 537 q 219 433 228 467 q 204 367 210 398 q 199 312 199 335 m 705 654 l 569 654 l 569 790 l 705 790 l 705 654 m 905 654 l 769 654 l 769 790 l 905 790 l 905 654 z "},"ث":{"ha":1497,"x_min":92,"x_max":1411,"o":"m 199 312 q 227 248 199 275 q 304 203 255 220 q 419 178 353 186 q 562 170 486 170 q 692 174 627 170 q 821 186 758 178 q 944 203 884 193 q 1056 222 1003 212 q 1153 243 1109 233 q 1231 262 1198 254 q 1287 282 1270 273 q 1305 302 1305 292 q 1289 414 1305 347 q 1242 578 1273 480 l 1351 587 q 1379 493 1368 534 q 1398 420 1391 453 q 1408 360 1405 388 q 1411 302 1411 332 q 1401 238 1411 264 q 1373 193 1392 212 q 1325 162 1354 175 q 1259 140 1297 150 q 1176 118 1223 130 q 1073 96 1128 107 q 955 75 1017 85 q 827 57 892 64 q 694 44 762 49 q 562 39 627 39 q 378 55 464 39 q 229 104 292 71 q 129 189 165 138 q 92 312 92 241 q 98 378 92 342 q 113 450 104 413 q 132 522 121 486 q 154 590 143 558 l 258 567 q 238 502 249 537 q 219 433 228 467 q 204 367 210 398 q 199 312 199 335 m 699 654 l 564 654 l 564 790 l 699 790 l 699 654 m 910 654 l 774 654 l 774 790 l 910 790 l 910 654 m 804 860 l 669 860 l 669 996 l 804 996 l 804 860 z "},"ج":{"ha":1023,"x_min":94,"x_max":912,"o":"m 884 -216 q 821 -235 859 -224 q 734 -256 783 -246 q 628 -273 686 -266 q 506 -279 571 -279 q 406 -272 456 -279 q 310 -248 356 -265 q 225 -203 264 -231 q 156 -132 185 -174 q 110 -31 127 -90 q 94 104 94 27 q 111 203 94 157 q 157 290 127 250 q 225 365 186 330 q 311 427 265 399 q 407 478 357 456 q 506 519 456 501 l 331 614 q 297 630 309 625 q 273 634 286 634 q 261 629 269 634 q 248 619 253 625 l 155 519 l 94 580 l 172 707 q 189 728 178 718 q 212 746 199 738 q 239 759 224 754 q 269 764 254 764 q 292 763 280 764 q 316 757 303 761 q 345 746 330 753 q 380 729 360 739 l 603 608 q 649 592 622 598 q 707 583 677 586 q 765 579 736 580 q 814 578 793 578 l 912 578 l 912 448 l 825 448 q 751 444 794 448 q 658 430 708 439 q 555 406 608 420 q 452 371 503 391 q 356 324 401 351 q 276 264 311 298 q 222 192 242 231 q 202 104 202 152 q 214 15 202 54 q 248 -52 227 -24 q 298 -99 269 -80 q 361 -129 328 -117 q 432 -144 395 -140 q 506 -149 469 -149 q 621 -145 567 -149 q 720 -135 675 -141 q 800 -121 765 -129 q 857 -106 835 -114 l 884 -216 m 675 64 l 540 64 l 540 199 l 675 199 l 675 64 z "},"ح":{"ha":1023,"x_min":94,"x_max":912,"o":"m 884 -216 q 821 -235 859 -224 q 734 -256 783 -246 q 628 -273 686 -266 q 506 -279 571 -279 q 406 -272 456 -279 q 310 -248 356 -265 q 225 -203 264 -231 q 156 -132 185 -174 q 110 -31 127 -90 q 94 104 94 27 q 111 203 94 157 q 157 290 127 250 q 225 365 186 330 q 311 427 265 399 q 407 478 357 456 q 506 519 456 501 l 331 614 q 297 630 309 625 q 273 634 286 634 q 261 629 269 634 q 248 619 253 625 l 155 519 l 94 580 l 172 707 q 189 728 178 718 q 212 746 199 738 q 239 759 224 754 q 269 764 254 764 q 292 763 280 764 q 316 757 303 761 q 345 746 330 753 q 380 729 360 739 l 603 608 q 649 592 622 598 q 707 583 677 586 q 765 579 736 580 q 814 578 793 578 l 912 578 l 912 448 l 825 448 q 751 444 794 448 q 658 430 708 439 q 555 406 608 420 q 452 371 503 391 q 356 324 401 351 q 276 264 311 298 q 222 192 242 231 q 202 104 202 152 q 214 15 202 54 q 248 -52 227 -24 q 298 -99 269 -80 q 361 -129 328 -117 q 432 -144 395 -140 q 506 -149 469 -149 q 621 -145 567 -149 q 720 -135 675 -141 q 800 -121 765 -129 q 857 -106 835 -114 l 884 -216 z "},"خ":{"ha":1023,"x_min":94,"x_max":912,"o":"m 884 -216 q 821 -235 859 -224 q 734 -256 783 -246 q 628 -273 686 -266 q 506 -279 571 -279 q 406 -272 456 -279 q 310 -248 356 -265 q 225 -203 264 -231 q 156 -132 185 -174 q 110 -31 127 -90 q 94 104 94 27 q 111 203 94 157 q 157 290 127 250 q 225 365 186 330 q 311 427 265 399 q 407 478 357 456 q 506 519 456 501 l 331 614 q 297 630 309 625 q 273 634 286 634 q 261 629 269 634 q 248 619 253 625 l 155 519 l 94 580 l 172 707 q 189 728 178 718 q 212 746 199 738 q 239 759 224 754 q 269 764 254 764 q 292 763 280 764 q 316 757 303 761 q 345 746 330 753 q 380 729 360 739 l 603 608 q 649 592 622 598 q 707 583 677 586 q 765 579 736 580 q 814 578 793 578 l 912 578 l 912 448 l 825 448 q 751 444 794 448 q 658 430 708 439 q 555 406 608 420 q 452 371 503 391 q 356 324 401 351 q 276 264 311 298 q 222 192 242 231 q 202 104 202 152 q 214 15 202 54 q 248 -52 227 -24 q 298 -99 269 -80 q 361 -129 328 -117 q 432 -144 395 -140 q 506 -149 469 -149 q 621 -145 567 -149 q 720 -135 675 -141 q 800 -121 765 -129 q 857 -106 835 -114 l 884 -216 m 581 898 l 445 898 l 445 1034 l 581 1034 l 581 898 z "},"د":{"ha":781,"x_min":127,"x_max":703,"o":"m 178 195 q 298 172 218 172 q 360 174 327 172 q 427 182 393 177 q 491 195 460 187 q 546 211 522 202 q 585 230 570 220 q 599 252 599 240 q 590 334 599 294 q 567 411 581 374 q 533 480 552 448 q 496 539 515 512 q 393 656 450 603 l 460 757 q 581 615 528 694 q 626 541 604 581 q 665 455 648 501 q 693 358 682 410 q 703 252 703 307 q 684 194 703 222 q 632 143 665 167 q 558 101 600 120 q 472 68 517 81 q 381 47 427 55 q 298 40 336 40 q 201 51 243 40 q 127 81 159 62 l 178 195 z "},"ذ":{"ha":781,"x_min":127,"x_max":703,"o":"m 178 195 q 298 172 218 172 q 360 174 327 172 q 427 182 393 177 q 491 195 460 187 q 546 211 522 202 q 585 230 570 220 q 599 252 599 240 q 590 334 599 294 q 567 411 581 374 q 533 480 552 448 q 496 539 515 512 q 393 656 450 603 l 460 757 q 581 615 528 694 q 626 541 604 581 q 665 455 648 501 q 693 358 682 410 q 703 252 703 307 q 684 194 703 222 q 632 143 665 167 q 558 101 600 120 q 472 68 517 81 q 381 47 427 55 q 298 40 336 40 q 201 51 243 40 q 127 81 159 62 l 178 195 m 406 898 l 270 898 l 270 1034 l 406 1034 l 406 898 z "},"ر":{"ha":731,"x_min":56,"x_max":638,"o":"m 56 -187 q 174 -141 115 -166 q 285 -88 232 -116 q 382 -30 338 -60 q 460 34 427 1 q 511 101 492 67 q 530 172 530 136 q 523 240 530 203 q 505 313 516 277 q 480 378 494 348 q 452 427 467 408 l 534 507 q 571 444 553 484 q 604 359 589 405 q 629 264 619 313 q 638 172 638 215 q 617 70 638 119 q 558 -25 595 20 q 468 -112 520 -71 q 356 -189 416 -153 q 227 -256 295 -225 q 90 -311 159 -287 l 56 -187 z "},"ز":{"ha":731,"x_min":56,"x_max":638,"o":"m 56 -187 q 174 -141 115 -166 q 285 -88 232 -116 q 382 -30 338 -60 q 460 34 427 1 q 511 101 492 67 q 530 172 530 136 q 523 240 530 203 q 505 313 516 277 q 480 378 494 348 q 452 427 467 408 l 534 507 q 571 444 553 484 q 604 359 589 405 q 629 264 619 313 q 638 172 638 215 q 617 70 638 119 q 558 -25 595 20 q 468 -112 520 -71 q 356 -189 416 -153 q 227 -256 295 -225 q 90 -311 159 -287 l 56 -187 m 460 729 l 324 729 l 324 865 l 460 865 l 460 729 z "},"س":{"ha":1739,"x_min":79,"x_max":1655,"o":"m 1655 289 q 1634 203 1655 244 q 1577 132 1613 163 q 1496 83 1542 102 q 1400 65 1450 65 q 1352 70 1376 65 q 1304 85 1327 75 q 1260 111 1280 95 q 1223 150 1240 127 q 1153 89 1195 112 q 1058 65 1112 65 q 999 68 1025 65 q 951 82 973 71 l 951 74 q 927 -38 951 12 q 864 -123 904 -87 q 769 -186 823 -160 q 651 -228 714 -212 q 521 -251 589 -244 q 387 -258 454 -258 q 253 -239 311 -258 q 157 -185 195 -220 q 98 -104 118 -151 q 79 -1 79 -57 q 90 95 79 47 q 119 186 102 142 q 156 267 136 229 q 191 333 175 304 l 277 293 q 247 237 263 268 q 218 170 231 207 q 196 91 205 134 q 187 -1 187 48 q 199 -52 187 -28 q 237 -92 212 -75 q 299 -119 262 -109 q 387 -128 336 -128 q 496 -124 441 -128 q 602 -110 551 -119 q 697 -84 653 -100 q 774 -46 742 -68 q 826 6 807 -24 q 845 74 845 36 q 837 141 845 109 q 814 204 828 174 q 783 263 800 235 q 749 317 766 292 l 840 384 l 884 315 q 916 271 899 292 q 953 232 932 249 q 999 205 973 216 q 1058 195 1025 195 q 1111 208 1088 195 q 1149 238 1133 220 q 1173 274 1164 255 q 1181 307 1181 293 l 1181 406 l 1285 406 l 1285 300 q 1296 251 1285 271 q 1323 219 1306 231 q 1360 201 1339 206 q 1400 195 1380 195 q 1456 203 1430 195 q 1503 223 1483 210 q 1536 253 1524 236 q 1548 289 1548 270 q 1532 400 1548 334 q 1486 564 1516 467 l 1594 574 q 1623 480 1611 520 q 1642 407 1634 439 q 1652 346 1649 374 q 1655 289 1655 318 z "},"ش":{"ha":1739,"x_min":79,"x_max":1655,"o":"m 1655 289 q 1634 203 1655 244 q 1577 132 1613 163 q 1496 83 1542 102 q 1400 65 1450 65 q 1352 70 1376 65 q 1304 85 1327 75 q 1260 111 1280 95 q 1223 150 1240 127 q 1153 89 1195 112 q 1058 65 1112 65 q 999 68 1025 65 q 951 82 973 71 l 951 74 q 927 -38 951 12 q 864 -123 904 -87 q 769 -186 823 -160 q 651 -228 714 -212 q 521 -251 589 -244 q 387 -258 454 -258 q 253 -239 311 -258 q 157 -185 195 -220 q 98 -104 118 -151 q 79 -1 79 -57 q 90 95 79 47 q 119 186 102 142 q 156 267 136 229 q 191 333 175 304 l 277 293 q 247 237 263 268 q 218 170 231 207 q 196 91 205 134 q 187 -1 187 48 q 199 -52 187 -28 q 237 -92 212 -75 q 299 -119 262 -109 q 387 -128 336 -128 q 496 -124 441 -128 q 602 -110 551 -119 q 697 -84 653 -100 q 774 -46 742 -68 q 826 6 807 -24 q 845 74 845 36 q 837 141 845 109 q 814 204 828 174 q 783 263 800 235 q 749 317 766 292 l 840 384 l 884 315 q 916 271 899 292 q 953 232 932 249 q 999 205 973 216 q 1058 195 1025 195 q 1111 208 1088 195 q 1149 238 1133 220 q 1173 274 1164 255 q 1181 307 1181 293 l 1181 406 l 1285 406 l 1285 300 q 1296 251 1285 271 q 1323 219 1306 231 q 1360 201 1339 206 q 1400 195 1380 195 q 1456 203 1430 195 q 1503 223 1483 210 q 1536 253 1524 236 q 1548 289 1548 270 q 1532 400 1548 334 q 1486 564 1516 467 l 1594 574 q 1623 480 1611 520 q 1642 407 1634 439 q 1652 346 1649 374 q 1655 289 1655 318 m 1153 654 l 1017 654 l 1017 790 l 1153 790 l 1153 654 m 1364 654 l 1228 654 l 1228 790 l 1364 790 l 1364 654 m 1258 860 l 1122 860 l 1122 996 l 1258 996 l 1258 860 z "},"ص":{"ha":1853,"x_min":79,"x_max":1770,"o":"m 1287 195 q 1456 211 1385 195 q 1573 251 1527 226 q 1641 307 1619 275 q 1664 370 1664 338 q 1656 404 1664 385 q 1633 441 1648 424 q 1597 471 1618 458 q 1550 483 1577 483 q 1455 457 1503 483 q 1360 391 1407 432 q 1266 299 1312 351 q 1180 195 1221 248 l 1287 195 m 1067 65 q 1003 68 1034 65 q 951 82 973 71 l 951 74 q 927 -38 951 12 q 864 -123 904 -87 q 769 -186 823 -160 q 651 -228 714 -212 q 521 -251 589 -244 q 387 -258 454 -258 q 253 -239 311 -258 q 157 -185 195 -220 q 98 -104 118 -151 q 79 -1 79 -57 q 90 95 79 47 q 119 186 102 142 q 156 267 136 229 q 191 333 175 304 l 277 293 q 247 237 263 268 q 218 170 231 207 q 196 91 205 134 q 187 -1 187 48 q 199 -52 187 -28 q 237 -92 212 -75 q 299 -119 262 -109 q 387 -128 336 -128 q 496 -124 441 -128 q 602 -110 551 -119 q 697 -84 653 -100 q 774 -46 742 -68 q 826 6 807 -24 q 845 74 845 36 q 837 141 845 109 q 814 204 828 174 q 783 263 800 235 q 749 317 766 292 l 840 384 l 884 315 q 914 274 898 294 q 949 236 930 253 q 991 209 968 219 q 1039 197 1013 198 q 1110 290 1072 242 q 1189 385 1147 338 q 1274 472 1230 431 q 1364 545 1318 514 q 1456 595 1409 576 q 1550 613 1503 613 q 1613 601 1584 613 q 1667 569 1643 589 q 1710 524 1691 549 q 1743 471 1729 498 q 1763 418 1756 444 q 1770 370 1770 391 q 1741 259 1770 314 q 1652 162 1712 205 q 1502 92 1593 119 q 1287 65 1411 65 l 1067 65 z "},"ض":{"ha":1853,"x_min":79,"x_max":1770,"o":"m 1287 195 q 1456 211 1385 195 q 1573 251 1527 226 q 1641 307 1619 275 q 1664 370 1664 338 q 1656 404 1664 385 q 1633 441 1648 424 q 1597 471 1618 458 q 1550 483 1577 483 q 1455 457 1503 483 q 1360 391 1407 432 q 1266 299 1312 351 q 1180 195 1221 248 l 1287 195 m 1067 65 q 1003 68 1034 65 q 951 82 973 71 l 951 74 q 927 -38 951 12 q 864 -123 904 -87 q 769 -186 823 -160 q 651 -228 714 -212 q 521 -251 589 -244 q 387 -258 454 -258 q 253 -239 311 -258 q 157 -185 195 -220 q 98 -104 118 -151 q 79 -1 79 -57 q 90 95 79 47 q 119 186 102 142 q 156 267 136 229 q 191 333 175 304 l 277 293 q 247 237 263 268 q 218 170 231 207 q 196 91 205 134 q 187 -1 187 48 q 199 -52 187 -28 q 237 -92 212 -75 q 299 -119 262 -109 q 387 -128 336 -128 q 496 -124 441 -128 q 602 -110 551 -119 q 697 -84 653 -100 q 774 -46 742 -68 q 826 6 807 -24 q 845 74 845 36 q 837 141 845 109 q 814 204 828 174 q 783 263 800 235 q 749 317 766 292 l 840 384 l 884 315 q 914 274 898 294 q 949 236 930 253 q 991 209 968 219 q 1039 197 1013 198 q 1110 290 1072 242 q 1189 385 1147 338 q 1274 472 1230 431 q 1364 545 1318 514 q 1456 595 1409 576 q 1550 613 1503 613 q 1613 601 1584 613 q 1667 569 1643 589 q 1710 524 1691 549 q 1743 471 1729 498 q 1763 418 1756 444 q 1770 370 1770 391 q 1741 259 1770 314 q 1652 162 1712 205 q 1502 92 1593 119 q 1287 65 1411 65 l 1067 65 m 1407 783 l 1271 783 l 1271 918 l 1407 918 l 1407 783 z "},"ط":{"ha":1085,"x_min":106,"x_max":1002,"o":"m 345 348 q 444 447 392 399 q 551 530 496 494 q 664 587 606 566 q 783 609 722 609 q 845 597 816 609 q 899 565 875 585 q 943 519 924 545 q 975 467 962 494 q 995 414 988 440 q 1002 366 1002 387 q 972 255 1002 310 q 881 158 942 201 q 725 88 819 115 q 503 61 631 61 q 406 62 458 61 q 302 66 355 62 q 200 79 250 71 q 106 102 149 87 l 142 226 q 180 214 160 220 q 219 205 200 209 q 230 218 224 212 q 240 231 235 224 l 240 1055 l 345 1055 l 345 348 m 360 193 q 439 192 400 192 q 514 191 479 191 q 683 207 612 191 q 802 247 755 222 q 873 302 850 271 q 896 366 896 334 q 888 400 896 380 q 865 437 880 420 q 830 467 850 454 q 783 479 809 479 q 670 454 726 479 q 561 388 614 429 q 456 297 507 348 q 360 193 406 245 z "},"ظ":{"ha":1085,"x_min":106,"x_max":1002,"o":"m 345 348 q 444 447 392 399 q 551 530 496 494 q 664 587 606 566 q 783 609 722 609 q 845 597 816 609 q 899 565 875 585 q 943 519 924 545 q 975 467 962 494 q 995 414 988 440 q 1002 366 1002 387 q 972 255 1002 310 q 881 158 942 201 q 725 88 819 115 q 503 61 631 61 q 406 62 458 61 q 302 66 355 62 q 200 79 250 71 q 106 102 149 87 l 142 226 q 180 214 160 220 q 219 205 200 209 q 230 218 224 212 q 240 231 235 224 l 240 1055 l 345 1055 l 345 348 m 360 193 q 439 192 400 192 q 514 191 479 191 q 683 207 612 191 q 802 247 755 222 q 873 302 850 271 q 896 366 896 334 q 888 400 896 380 q 865 437 880 420 q 830 467 850 454 q 783 479 809 479 q 670 454 726 479 q 561 388 614 429 q 456 297 507 348 q 360 193 406 245 m 671 783 l 535 783 l 535 918 l 671 918 l 671 783 z "},"ع":{"ha":852,"x_min":81,"x_max":751,"o":"m 751 -251 q 689 -269 722 -261 q 624 -281 661 -275 q 545 -286 587 -286 q 453 -280 503 -286 q 351 -259 403 -273 q 251 -220 300 -244 q 165 -160 203 -196 q 104 -77 127 -125 q 81 34 81 -29 q 99 151 81 96 q 147 251 117 205 q 216 335 177 297 q 296 404 254 374 q 207 500 238 444 q 176 635 176 556 q 186 691 176 664 q 215 742 197 718 q 256 787 233 766 q 304 822 279 807 q 354 845 329 837 q 401 853 379 853 q 499 843 448 853 q 606 808 551 832 l 572 707 q 536 716 557 712 q 492 722 515 720 q 445 726 469 725 q 401 727 421 727 q 362 719 383 727 q 324 699 342 711 q 294 669 307 686 q 282 635 282 652 q 320 542 282 581 q 428 475 358 504 q 502 505 465 492 q 574 530 539 519 q 641 551 609 542 q 696 566 672 560 l 722 448 q 628 420 682 437 q 514 380 573 404 q 397 324 455 356 q 293 249 339 292 q 218 153 247 207 q 190 34 190 100 q 208 -32 190 -3 q 254 -81 225 -60 q 320 -117 283 -102 q 397 -140 357 -132 q 474 -152 436 -149 q 545 -156 513 -156 q 616 -155 582 -156 q 676 -153 650 -155 q 732 -151 707 -152 l 751 -251 z "},"غ":{"ha":852,"x_min":81,"x_max":751,"o":"m 751 -251 q 689 -269 722 -261 q 624 -281 661 -275 q 545 -286 587 -286 q 453 -280 503 -286 q 351 -259 403 -273 q 251 -220 300 -244 q 165 -160 203 -196 q 104 -77 127 -125 q 81 34 81 -29 q 99 151 81 96 q 147 251 117 205 q 216 335 177 297 q 296 404 254 374 q 207 500 238 444 q 176 635 176 556 q 186 691 176 664 q 215 742 197 718 q 256 787 233 766 q 304 822 279 807 q 354 845 329 837 q 401 853 379 853 q 499 843 448 853 q 606 808 551 832 l 572 707 q 536 716 557 712 q 492 722 515 720 q 445 726 469 725 q 401 727 421 727 q 362 719 383 727 q 324 699 342 711 q 294 669 307 686 q 282 635 282 652 q 320 542 282 581 q 428 475 358 504 q 502 505 465 492 q 574 530 539 519 q 641 551 609 542 q 696 566 672 560 l 722 448 q 628 420 682 437 q 514 380 573 404 q 397 324 455 356 q 293 249 339 292 q 218 153 247 207 q 190 34 190 100 q 208 -32 190 -3 q 254 -81 225 -60 q 320 -117 283 -102 q 397 -140 357 -132 q 474 -152 436 -149 q 545 -156 513 -156 q 616 -155 582 -156 q 676 -153 650 -155 q 732 -151 707 -152 l 751 -251 m 492 986 l 357 986 l 357 1122 l 492 1122 l 492 986 z "},"ف":{"ha":1431,"x_min":92,"x_max":1355,"o":"m 1248 478 q 1223 552 1240 521 q 1184 602 1206 583 q 1140 631 1163 622 q 1100 641 1118 641 q 1072 626 1084 641 q 1049 589 1059 611 q 1034 539 1040 566 q 1029 489 1029 513 q 1042 473 1029 479 q 1074 464 1055 467 q 1112 460 1092 460 q 1147 459 1133 459 q 1248 478 1203 459 m 92 312 q 98 378 92 342 q 113 450 104 413 q 132 522 121 486 q 154 590 143 558 l 258 567 q 238 502 249 537 q 219 433 228 467 q 204 367 210 398 q 199 312 199 335 q 227 248 199 275 q 304 203 255 220 q 419 178 353 186 q 562 170 486 170 q 800 176 696 170 q 982 193 904 182 q 1114 216 1060 203 q 1202 241 1168 229 q 1230 270 1217 248 q 1247 343 1242 293 q 1199 332 1223 336 q 1147 329 1174 329 q 1105 330 1128 329 q 1057 337 1082 332 q 1008 352 1032 342 q 966 380 985 362 q 936 425 947 398 q 924 489 924 451 q 930 550 924 518 q 947 614 936 583 q 974 673 958 645 q 1009 724 989 702 q 1052 758 1029 745 q 1100 771 1074 771 q 1150 763 1122 771 q 1206 736 1178 754 q 1262 691 1235 718 q 1309 626 1289 663 q 1342 540 1330 588 q 1355 432 1355 492 q 1347 289 1355 345 q 1323 199 1338 233 q 1286 147 1308 164 q 1238 119 1265 130 q 1142 91 1200 105 q 1001 65 1084 77 q 810 46 919 54 q 563 39 701 39 q 379 55 465 39 q 229 104 293 71 q 129 189 165 138 q 92 312 92 241 m 1181 898 l 1046 898 l 1046 1034 l 1181 1034 l 1181 898 z "},"ق":{"ha":1067,"x_min":79,"x_max":985,"o":"m 863 298 q 806 418 844 374 q 718 462 768 462 q 689 447 702 462 q 667 410 676 432 q 652 360 657 387 q 646 310 646 334 q 660 294 646 300 q 691 284 673 288 q 730 281 709 281 q 764 280 750 280 q 817 284 793 280 q 863 298 840 289 m 985 74 q 959 -38 985 12 q 889 -123 933 -87 q 786 -186 844 -160 q 661 -228 727 -212 q 524 -251 594 -244 q 387 -258 454 -258 q 253 -239 311 -258 q 157 -185 195 -220 q 98 -104 118 -151 q 79 -1 79 -57 q 90 95 79 47 q 119 186 102 142 q 156 267 136 229 q 191 333 175 304 l 277 293 q 247 237 263 268 q 218 170 231 207 q 196 91 205 134 q 187 -1 187 48 q 199 -52 187 -28 q 237 -92 212 -75 q 299 -119 262 -109 q 387 -128 336 -128 q 499 -124 441 -128 q 611 -110 557 -119 q 715 -84 666 -100 q 801 -46 764 -68 q 859 6 838 -24 q 880 74 880 36 l 880 168 q 824 154 853 159 q 764 150 795 150 q 723 151 746 150 q 674 158 699 153 q 626 173 650 163 q 583 201 602 183 q 553 245 564 219 q 541 310 541 272 q 554 403 541 353 q 591 494 568 452 q 647 564 614 536 q 718 592 679 592 q 825 560 776 592 q 910 470 874 528 q 965 332 945 412 q 985 155 985 252 l 985 74 m 697 729 l 562 729 l 562 865 l 697 865 l 697 729 m 897 729 l 762 729 l 762 865 l 897 865 l 897 729 z "},"ك":{"ha":1085,"x_min":81,"x_max":960,"o":"m 629 753 q 570 747 597 753 q 523 731 543 741 q 492 710 503 722 q 481 689 481 699 q 492 676 481 682 q 518 662 503 669 q 552 645 534 654 q 585 622 570 635 q 610 591 600 609 q 621 549 621 573 q 605 506 621 526 q 566 470 590 486 q 512 443 542 454 q 454 423 483 431 q 399 411 425 415 q 359 408 374 408 l 359 496 q 388 497 370 496 q 427 502 406 498 q 470 509 448 505 q 509 519 492 513 q 537 533 526 526 q 549 549 549 541 q 534 559 549 551 q 502 575 519 566 q 468 593 485 584 q 438 615 452 602 q 417 646 425 628 q 409 689 409 663 q 426 740 409 713 q 472 789 442 766 q 542 827 501 812 q 629 842 582 842 l 629 753 m 855 1055 l 960 1055 l 960 341 q 946 220 960 268 q 911 142 933 172 q 861 98 889 113 q 803 79 833 84 q 704 64 755 70 q 602 54 653 58 q 501 48 551 50 q 405 47 451 47 q 227 61 310 47 q 81 106 144 76 l 122 220 q 246 188 173 198 q 405 177 319 177 q 489 178 445 177 q 578 180 533 178 q 667 185 623 182 q 753 195 711 189 q 794 207 775 197 q 826 233 812 216 q 848 276 840 250 q 855 341 855 302 l 855 1055 z "},"ل":{"ha":1074,"x_min":79,"x_max":951,"o":"m 846 1055 l 951 1055 l 951 74 q 927 -38 951 12 q 864 -123 904 -87 q 769 -186 823 -160 q 651 -228 714 -212 q 521 -251 589 -244 q 387 -258 454 -258 q 253 -239 311 -258 q 157 -185 195 -220 q 98 -104 118 -151 q 79 -1 79 -57 q 90 95 79 47 q 119 186 102 142 q 156 267 136 229 q 191 333 175 304 l 277 293 q 247 237 263 268 q 218 170 231 207 q 196 91 205 134 q 187 -1 187 48 q 199 -52 187 -28 q 237 -92 212 -75 q 299 -119 262 -109 q 387 -128 336 -128 q 497 -124 441 -128 q 603 -110 552 -119 q 698 -84 654 -100 q 775 -46 743 -68 q 827 6 808 -24 q 846 74 846 36 l 846 1055 z "},"م":{"ha":873,"x_min":85,"x_max":781,"o":"m 159 -340 q 121 -37 138 -176 q 108 82 115 22 q 96 193 101 142 q 88 283 91 244 q 85 342 85 323 q 108 416 85 387 q 170 463 132 446 q 255 490 208 481 q 351 505 303 499 q 345 544 347 524 q 342 583 342 563 q 356 672 342 630 q 392 746 369 714 q 446 796 415 777 q 511 814 476 814 q 583 802 548 814 q 647 767 617 789 q 702 715 677 745 q 744 651 726 685 q 771 582 762 618 q 781 512 781 547 q 777 472 781 491 q 767 433 773 452 l 732 328 q 604 367 671 353 q 456 382 537 382 q 399 381 429 382 q 339 378 369 380 q 283 373 310 376 q 235 365 256 370 q 202 355 214 361 q 189 342 189 349 q 192 286 189 324 q 200 198 195 248 q 212 90 205 148 q 225 -26 218 31 q 262 -323 241 -163 l 159 -340 m 671 483 q 675 497 674 490 q 676 512 676 505 q 663 572 676 541 q 628 627 650 602 q 575 668 606 652 q 511 684 545 684 q 486 676 497 684 q 466 654 474 668 q 452 622 457 640 q 447 583 447 604 q 451 549 447 566 q 463 512 454 531 q 571 504 519 511 q 671 483 622 496 z "},"ن":{"ha":1023,"x_min":79,"x_max":956,"o":"m 836 471 q 883 357 861 417 q 921 242 905 298 q 947 142 937 187 q 956 74 956 98 q 933 -38 956 12 q 869 -123 909 -87 q 773 -186 828 -160 q 655 -228 718 -212 q 524 -251 592 -244 q 390 -258 456 -258 q 255 -239 313 -258 q 158 -185 197 -220 q 99 -104 119 -151 q 79 -1 79 -57 q 90 95 79 47 q 119 186 102 142 q 156 267 136 229 q 191 333 175 304 l 277 293 q 247 237 263 268 q 218 170 231 207 q 196 91 205 134 q 187 -1 187 48 q 200 -52 187 -28 q 238 -92 212 -75 q 301 -119 263 -109 q 390 -128 339 -128 q 499 -124 444 -128 q 605 -110 554 -119 q 700 -84 656 -100 q 777 -46 745 -68 q 829 6 810 -24 q 848 74 848 36 q 840 130 848 92 q 817 216 831 168 q 783 318 802 264 q 741 420 763 371 l 836 471 m 560 465 l 425 465 l 425 600 l 560 600 l 560 465 z "},"ه":{"ha":743,"x_min":81,"x_max":672,"o":"m 296 674 q 375 639 333 661 q 459 590 418 618 q 539 529 501 563 q 607 458 578 496 q 654 379 637 420 q 672 294 672 338 q 657 230 672 261 q 615 172 642 199 q 555 122 589 145 q 483 83 521 100 q 404 58 444 67 q 328 49 364 49 q 230 66 275 49 q 152 112 185 83 q 100 182 119 142 q 81 270 81 222 q 93 343 81 304 q 122 424 104 383 q 163 504 140 464 q 211 577 186 543 q 257 636 235 610 q 296 674 279 661 m 317 528 q 272 470 295 503 q 230 402 249 437 q 198 332 210 367 q 186 270 186 298 q 197 234 186 250 q 227 205 208 217 q 272 186 245 193 q 328 179 298 179 q 408 188 366 179 q 486 213 450 197 q 545 250 522 229 q 568 294 568 271 q 545 360 568 327 q 485 425 522 394 q 404 482 449 455 q 317 528 359 509 z "},"و":{"ha":731,"x_min":111,"x_max":635,"o":"m 111 -190 l 112 -187 q 292 -105 218 -146 q 412 -23 365 -64 q 485 58 459 18 q 521 137 510 98 q 470 125 495 129 q 416 122 445 122 q 375 123 397 122 q 329 130 352 125 q 283 145 305 135 q 243 173 260 155 q 215 218 226 191 q 205 282 205 244 q 213 344 205 311 q 237 412 222 378 q 272 477 252 446 q 314 533 292 509 q 361 572 337 557 q 410 587 386 587 q 475 571 445 587 q 530 529 505 555 q 574 468 555 503 q 608 393 594 433 q 628 312 621 354 q 635 232 635 271 q 630 137 635 184 q 606 44 624 90 q 556 -47 589 -2 q 468 -137 523 -93 q 335 -225 414 -182 q 146 -311 256 -269 l 111 -190 m 529 277 q 514 342 524 310 q 489 400 504 374 q 454 441 474 425 q 410 456 434 456 q 375 438 393 456 q 342 394 357 420 q 319 337 328 367 q 310 282 310 307 q 321 266 310 272 q 349 257 333 260 q 384 253 366 254 q 416 252 402 252 q 475 258 448 252 q 529 277 503 264 z "},"ى":{"ha":1216,"x_min":77,"x_max":1146,"o":"m 1058 347 q 1006 407 1032 389 q 952 425 980 425 q 904 418 928 425 q 855 399 879 411 q 810 372 831 388 q 773 340 789 357 q 748 306 758 323 q 739 273 739 288 q 743 260 739 266 q 758 249 746 255 q 790 236 769 243 q 847 219 811 229 q 949 183 910 201 q 1010 143 988 165 q 1040 93 1032 121 q 1047 24 1047 64 q 1015 -55 1047 -19 q 929 -120 983 -92 q 808 -170 876 -149 q 669 -205 741 -191 q 529 -227 598 -220 q 406 -234 460 -234 q 162 -167 246 -234 q 77 24 77 -100 q 89 119 77 72 q 118 210 101 167 q 155 291 136 254 q 191 357 175 329 l 277 317 q 247 262 263 292 q 218 195 231 231 q 195 115 204 158 q 186 24 186 73 q 240 -71 186 -38 q 406 -104 294 -104 q 508 -100 451 -104 q 625 -90 566 -97 q 741 -72 684 -83 q 841 -47 797 -61 q 912 -15 885 -33 q 939 24 939 3 q 935 42 939 35 q 918 58 931 50 q 882 73 905 65 q 819 93 858 81 q 721 127 758 110 q 665 164 684 144 q 639 211 645 184 q 633 273 633 237 q 647 334 633 301 q 684 398 661 366 q 740 458 708 429 q 807 509 772 487 q 880 544 843 531 q 952 557 917 557 q 1052 524 1003 557 q 1146 419 1101 491 l 1058 347 z "},"ي":{"ha":1216,"x_min":77,"x_max":1146,"o":"m 1058 347 q 1006 407 1032 389 q 952 425 980 425 q 904 418 928 425 q 855 399 879 411 q 810 372 831 388 q 773 340 789 357 q 748 306 758 323 q 739 273 739 288 q 743 260 739 266 q 758 249 746 255 q 790 236 769 243 q 847 219 811 229 q 949 183 910 201 q 1010 143 988 165 q 1040 93 1032 121 q 1047 24 1047 64 q 1015 -55 1047 -19 q 929 -120 983 -92 q 808 -170 876 -149 q 669 -205 741 -191 q 529 -227 598 -220 q 406 -234 460 -234 q 162 -167 246 -234 q 77 24 77 -100 q 89 119 77 72 q 118 210 101 167 q 155 291 136 254 q 191 357 175 329 l 277 317 q 247 262 263 292 q 218 195 231 231 q 195 115 204 158 q 186 24 186 73 q 240 -71 186 -38 q 406 -104 294 -104 q 508 -100 451 -104 q 625 -90 566 -97 q 741 -72 684 -83 q 841 -47 797 -61 q 912 -15 885 -33 q 939 24 939 3 q 935 42 939 35 q 918 58 931 50 q 882 73 905 65 q 819 93 858 81 q 721 127 758 110 q 665 164 684 144 q 639 211 645 184 q 633 273 633 237 q 647 334 633 301 q 684 398 661 366 q 740 458 708 429 q 807 509 772 487 q 880 544 843 531 q 952 557 917 557 q 1052 524 1003 557 q 1146 419 1101 491 l 1058 347 m 468 -437 l 332 -437 l 332 -302 l 468 -302 l 468 -437 m 668 -437 l 532 -437 l 532 -302 l 668 -302 l 668 -437 z "},"ٱ":{"ha":488,"x_min":-11,"x_max":507,"o":"m -11 978 q 12 1003 1 993 q 33 1019 22 1013 q 54 1028 43 1025 q 78 1030 64 1030 q 114 1020 100 1030 q 143 996 129 1010 q 192 1084 168 1048 q 238 1144 216 1120 q 280 1182 260 1168 q 319 1203 301 1196 q 351 1212 336 1210 q 377 1213 366 1213 q 419 1208 397 1213 q 461 1189 442 1202 q 494 1154 481 1176 q 507 1097 507 1131 q 491 1037 507 1065 q 449 985 475 1008 q 390 943 422 962 q 322 912 357 925 q 256 893 288 900 q 201 887 224 887 q 163 891 179 887 q 136 902 148 895 q 114 916 123 908 q 97 932 105 924 q 88 939 93 936 q 78 942 83 942 q 59 938 66 942 q 42 922 52 934 l -11 978 m 214 975 q 257 981 233 977 q 307 993 281 985 q 355 1011 332 1001 q 397 1035 378 1022 q 426 1063 415 1048 q 437 1097 437 1079 q 431 1111 437 1105 q 416 1119 425 1116 q 397 1124 408 1122 q 377 1125 386 1125 q 349 1121 366 1125 q 311 1103 332 1118 q 266 1058 290 1088 q 214 975 241 1028 m 296 65 l 192 65 l 192 813 l 296 813 l 296 65 z "},"پ":{"ha":1497,"x_min":92,"x_max":1411,"o":"m 199 312 q 227 248 199 275 q 304 203 255 220 q 419 178 353 186 q 562 170 486 170 q 692 174 627 170 q 821 186 758 178 q 944 203 884 193 q 1056 222 1003 212 q 1153 243 1109 233 q 1231 262 1198 254 q 1287 282 1270 273 q 1305 302 1305 292 q 1289 414 1305 347 q 1242 578 1273 480 l 1351 587 q 1379 493 1368 534 q 1398 420 1391 453 q 1408 360 1405 388 q 1411 302 1411 332 q 1401 238 1411 264 q 1373 193 1392 212 q 1325 162 1354 175 q 1259 140 1297 150 q 1176 118 1223 130 q 1073 96 1128 107 q 955 75 1017 85 q 827 57 892 64 q 694 44 762 49 q 562 39 627 39 q 378 55 464 39 q 229 104 292 71 q 129 189 165 138 q 92 312 92 241 q 98 378 92 342 q 113 450 104 413 q 132 522 121 486 q 154 590 143 558 l 258 567 q 238 502 249 537 q 219 433 228 467 q 204 367 210 398 q 199 312 199 335 m 678 -221 l 543 -221 l 543 -85 l 678 -85 l 678 -221 m 889 -221 l 753 -221 l 753 -85 l 889 -85 l 889 -221 m 783 -427 l 648 -427 l 648 -291 l 783 -291 l 783 -427 z "},"چ":{"ha":1023,"x_min":94,"x_max":912,"o":"m 884 -216 q 821 -235 859 -224 q 734 -256 783 -246 q 628 -273 686 -266 q 506 -279 571 -279 q 406 -272 456 -279 q 310 -248 356 -265 q 225 -203 264 -231 q 156 -132 185 -174 q 110 -31 127 -90 q 94 104 94 27 q 111 203 94 157 q 157 290 127 250 q 225 365 186 330 q 311 427 265 399 q 407 478 357 456 q 506 519 456 501 l 331 614 q 297 630 309 625 q 273 634 286 634 q 261 629 269 634 q 248 619 253 625 l 155 519 l 94 580 l 172 707 q 189 728 178 718 q 212 746 199 738 q 239 759 224 754 q 269 764 254 764 q 292 763 280 764 q 316 757 303 761 q 345 746 330 753 q 380 729 360 739 l 603 608 q 649 592 622 598 q 707 583 677 586 q 765 579 736 580 q 814 578 793 578 l 912 578 l 912 448 l 825 448 q 751 444 794 448 q 658 430 708 439 q 555 406 608 420 q 452 371 503 391 q 356 324 401 351 q 276 264 311 298 q 222 192 242 231 q 202 104 202 152 q 214 15 202 54 q 248 -52 227 -24 q 298 -99 269 -80 q 361 -129 328 -117 q 432 -144 395 -140 q 506 -149 469 -149 q 621 -145 567 -149 q 720 -135 675 -141 q 800 -121 765 -129 q 857 -106 835 -114 l 884 -216 m 543 144 l 420 144 l 420 266 l 543 266 l 543 144 m 732 144 l 610 144 l 610 266 l 732 266 l 732 144 m 637 -41 l 515 -41 l 515 81 l 637 81 l 637 -41 z "},"ژ":{"ha":731,"x_min":56,"x_max":638,"o":"m 56 -187 q 174 -141 115 -166 q 285 -88 232 -116 q 382 -30 338 -60 q 460 34 427 1 q 511 101 492 67 q 530 172 530 136 q 523 240 530 203 q 505 313 516 277 q 480 378 494 348 q 452 427 467 408 l 534 507 q 571 444 553 484 q 604 359 589 405 q 629 264 619 313 q 638 172 638 215 q 617 70 638 119 q 558 -25 595 20 q 468 -112 520 -71 q 356 -189 416 -153 q 227 -256 295 -225 q 90 -311 159 -287 l 56 -187 m 354 729 l 218 729 l 218 865 l 354 865 l 354 729 m 565 729 l 429 729 l 429 865 l 565 865 l 565 729 m 459 935 l 323 935 l 323 1070 l 459 1070 l 459 935 z "},"ک":{"ha":1497,"x_min":92,"x_max":1466,"o":"m 199 312 q 227 248 199 275 q 304 203 255 220 q 419 178 353 186 q 562 170 486 170 q 692 172 624 170 q 827 179 760 174 q 955 194 894 184 q 1061 220 1015 204 q 1134 260 1107 237 q 1162 317 1162 283 q 1138 401 1162 362 q 1072 477 1114 441 q 974 548 1030 513 q 854 618 918 582 l 870 791 q 1014 885 940 838 q 1160 972 1088 931 q 1302 1047 1233 1013 q 1432 1103 1371 1081 l 1466 979 q 1345 928 1409 958 q 1216 861 1282 897 q 1084 783 1149 824 q 956 702 1018 743 q 1075 625 1019 665 q 1175 538 1132 585 q 1243 437 1217 492 q 1268 317 1268 382 q 1236 211 1268 255 q 1149 135 1204 166 q 1024 86 1095 104 q 874 57 952 67 q 715 43 795 46 q 562 39 634 39 q 378 55 464 39 q 229 104 292 71 q 129 189 165 138 q 92 312 92 241 q 98 378 92 342 q 113 450 104 413 q 132 522 121 486 q 154 590 143 558 l 258 567 q 238 502 249 537 q 219 433 228 467 q 204 367 210 398 q 199 312 199 335 z "},"گ":{"ha":1497,"x_min":94,"x_max":1444,"o":"m 1444 1079 q 1336 1042 1398 1064 q 1202 992 1273 1020 q 1059 934 1132 965 q 920 871 986 903 l 890 951 q 984 995 936 973 q 1082 1037 1033 1017 q 1179 1076 1131 1057 q 1271 1111 1227 1095 q 1353 1140 1315 1127 q 1422 1164 1392 1154 l 1444 1079 m 200 312 q 228 248 200 275 q 304 203 256 220 q 419 178 353 186 q 562 170 486 170 q 692 171 624 170 q 827 178 760 173 q 955 194 894 184 q 1061 220 1015 204 q 1135 260 1107 237 q 1162 317 1162 284 q 1138 397 1162 360 q 1072 467 1114 433 q 973 532 1029 500 q 852 600 917 565 l 866 762 q 1013 836 935 800 q 1164 901 1090 871 q 1303 953 1238 931 q 1414 986 1369 975 l 1438 860 q 1347 832 1401 850 q 1229 788 1292 813 q 1100 735 1166 764 q 973 676 1034 706 q 1088 606 1034 642 q 1181 528 1141 570 q 1244 435 1221 486 q 1267 317 1267 383 q 1235 211 1267 255 q 1148 135 1202 166 q 1023 86 1094 104 q 873 57 951 67 q 714 43 795 46 q 562 39 634 39 q 378 55 464 39 q 230 104 293 71 q 130 189 166 138 q 94 312 94 241 q 99 378 94 342 q 114 450 105 413 q 134 522 123 486 q 155 590 144 558 l 260 567 q 240 502 250 537 q 220 433 229 467 q 206 367 212 398 q 200 312 200 335 z "},"ۀ":{"ha":743,"x_min":81,"x_max":672,"o":"m 296 674 q 375 639 333 661 q 459 590 418 618 q 539 529 501 563 q 607 458 578 496 q 654 379 637 420 q 672 294 672 338 q 657 230 672 261 q 615 172 642 199 q 555 122 589 145 q 483 83 521 100 q 404 58 444 67 q 328 49 364 49 q 230 66 275 49 q 152 112 185 83 q 100 182 119 142 q 81 270 81 222 q 93 343 81 304 q 122 424 104 383 q 163 504 140 464 q 211 577 186 543 q 257 636 235 610 q 296 674 279 661 m 317 528 q 272 470 295 503 q 230 402 249 437 q 198 332 210 367 q 186 270 186 298 q 197 234 186 250 q 227 205 208 217 q 272 186 245 193 q 328 179 298 179 q 408 188 366 179 q 486 213 450 197 q 545 250 522 229 q 568 294 568 271 q 545 360 568 327 q 485 425 522 394 q 404 482 449 455 q 317 528 359 509 m 470 850 q 402 837 433 844 q 335 819 371 831 q 252 787 298 807 q 137 734 205 767 l 107 814 q 159 840 136 829 q 205 861 183 852 q 163 908 179 882 q 146 967 146 935 q 162 1027 146 998 q 200 1080 177 1057 q 250 1118 223 1103 q 300 1132 277 1132 q 347 1126 327 1132 q 383 1110 367 1120 q 412 1086 399 1100 q 439 1057 425 1073 l 387 1000 q 371 1017 379 1009 q 354 1031 363 1025 q 331 1040 344 1037 q 300 1044 318 1044 q 273 1037 288 1044 q 245 1020 258 1030 q 224 995 233 1009 q 216 967 216 981 q 241 933 216 949 q 304 901 267 916 q 384 923 347 916 q 457 938 421 930 l 470 850 z "},"ی":{"ha":1216,"x_min":77,"x_max":1146,"o":"m 1058 347 q 1006 407 1032 389 q 952 425 980 425 q 904 418 928 425 q 855 399 879 411 q 810 372 831 388 q 773 340 789 357 q 748 306 758 323 q 739 273 739 288 q 743 260 739 266 q 758 249 746 255 q 790 236 769 243 q 847 219 811 229 q 949 183 910 201 q 1010 143 988 165 q 1040 93 1032 121 q 1047 24 1047 64 q 1015 -55 1047 -19 q 929 -120 983 -92 q 808 -170 876 -149 q 669 -205 741 -191 q 529 -227 598 -220 q 406 -234 460 -234 q 162 -167 246 -234 q 77 24 77 -100 q 89 119 77 72 q 118 210 101 167 q 155 291 136 254 q 191 357 175 329 l 277 317 q 247 262 263 292 q 218 195 231 231 q 195 115 204 158 q 186 24 186 73 q 240 -71 186 -38 q 406 -104 294 -104 q 508 -100 451 -104 q 625 -90 566 -97 q 741 -72 684 -83 q 841 -47 797 -61 q 912 -15 885 -33 q 939 24 939 3 q 935 42 939 35 q 918 58 931 50 q 882 73 905 65 q 819 93 858 81 q 721 127 758 110 q 665 164 684 144 q 639 211 645 184 q 633 273 633 237 q 647 334 633 301 q 684 398 661 366 q 740 458 708 429 q 807 509 772 487 q 880 544 843 531 q 952 557 917 557 q 1052 524 1003 557 q 1146 419 1101 491 l 1058 347 z "},"ﭐ":{"ha":488,"x_min":-11,"x_max":507,"o":"m -11 978 q 12 1003 1 993 q 33 1019 22 1013 q 54 1028 43 1025 q 78 1030 64 1030 q 114 1020 100 1030 q 143 996 129 1010 q 192 1084 168 1048 q 238 1144 216 1120 q 280 1182 260 1168 q 319 1203 301 1196 q 351 1212 336 1210 q 377 1213 366 1213 q 419 1208 397 1213 q 461 1189 442 1202 q 494 1154 481 1176 q 507 1097 507 1131 q 491 1037 507 1065 q 449 985 475 1008 q 390 943 422 962 q 322 912 357 925 q 256 893 288 900 q 201 887 224 887 q 163 891 179 887 q 136 902 148 895 q 114 916 123 908 q 97 932 105 924 q 88 939 93 936 q 78 942 83 942 q 59 938 66 942 q 42 922 52 934 l -11 978 m 214 975 q 257 981 233 977 q 307 993 281 985 q 355 1011 332 1001 q 397 1035 378 1022 q 426 1063 415 1048 q 437 1097 437 1079 q 431 1111 437 1105 q 416 1119 425 1116 q 397 1124 408 1122 q 377 1125 386 1125 q 349 1121 366 1125 q 311 1103 332 1118 q 266 1058 290 1088 q 214 975 241 1028 m 296 65 l 192 65 l 192 813 l 296 813 l 296 65 z "},"ﭑ":{"ha":533,"x_min":-11,"x_max":533,"o":"m 533 65 l 451 65 q 325 80 375 65 q 246 124 275 94 q 204 199 216 153 q 192 307 192 244 l 192 813 l 296 813 l 296 307 q 303 257 296 278 q 328 222 311 236 q 376 202 346 209 q 451 195 406 195 l 533 195 l 533 65 m -11 978 q 12 1003 1 993 q 33 1019 22 1013 q 54 1028 43 1025 q 78 1030 64 1030 q 114 1020 100 1030 q 143 996 129 1010 q 192 1084 168 1048 q 238 1144 216 1120 q 280 1182 260 1168 q 319 1203 301 1196 q 351 1212 336 1210 q 377 1213 366 1213 q 419 1208 397 1213 q 461 1189 442 1202 q 494 1154 481 1176 q 507 1097 507 1131 q 491 1037 507 1065 q 449 985 475 1008 q 390 943 422 962 q 322 912 357 925 q 256 893 288 900 q 201 887 224 887 q 163 891 179 887 q 136 902 148 895 q 114 916 123 908 q 97 932 105 924 q 88 939 93 936 q 78 942 83 942 q 59 938 66 942 q 42 922 52 934 l -11 978 m 214 975 q 257 981 233 977 q 307 993 281 985 q 355 1011 332 1001 q 397 1035 378 1022 q 426 1063 415 1048 q 437 1097 437 1079 q 431 1111 437 1105 q 416 1119 425 1116 q 397 1124 408 1122 q 377 1125 386 1125 q 349 1121 366 1125 q 311 1103 332 1118 q 266 1058 290 1088 q 214 975 241 1028 z "},"ﭖ":{"ha":1497,"x_min":92,"x_max":1411,"o":"m 199 312 q 227 248 199 275 q 304 203 255 220 q 419 178 353 186 q 562 170 486 170 q 692 174 627 170 q 821 186 758 178 q 944 203 884 193 q 1056 222 1003 212 q 1153 243 1109 233 q 1231 262 1198 254 q 1287 282 1270 273 q 1305 302 1305 292 q 1289 414 1305 347 q 1242 578 1273 480 l 1351 587 q 1379 493 1368 534 q 1398 420 1391 453 q 1408 360 1405 388 q 1411 302 1411 332 q 1401 238 1411 264 q 1373 193 1392 212 q 1325 162 1354 175 q 1259 140 1297 150 q 1176 118 1223 130 q 1073 96 1128 107 q 955 75 1017 85 q 827 57 892 64 q 694 44 762 49 q 562 39 627 39 q 378 55 464 39 q 229 104 292 71 q 129 189 165 138 q 92 312 92 241 q 98 378 92 342 q 113 450 104 413 q 132 522 121 486 q 154 590 143 558 l 258 567 q 238 502 249 537 q 219 433 228 467 q 204 367 210 398 q 199 312 199 335 m 678 -221 l 543 -221 l 543 -85 l 678 -85 l 678 -221 m 889 -221 l 753 -221 l 753 -85 l 889 -85 l 889 -221 m 783 -427 l 648 -427 l 648 -291 l 783 -291 l 783 -427 z "},"ﭗ":{"ha":1586,"x_min":92,"x_max":1586,"o":"m 92 312 q 98 378 92 342 q 113 450 104 413 q 132 522 121 486 q 154 590 143 558 l 258 567 q 238 502 249 537 q 219 433 228 467 q 204 367 210 398 q 199 312 199 335 q 227 248 199 275 q 304 203 255 220 q 419 178 353 186 q 562 170 486 170 q 757 178 661 170 q 940 201 854 186 q 1096 233 1025 215 q 1212 272 1166 252 q 1254 303 1236 283 q 1284 349 1271 323 q 1306 403 1297 375 q 1324 457 1316 431 l 1335 494 l 1428 457 q 1406 380 1414 410 q 1394 333 1398 351 q 1389 305 1390 315 q 1388 288 1388 295 q 1397 251 1388 268 q 1428 222 1406 234 q 1489 202 1451 210 q 1586 195 1527 195 l 1586 65 q 1476 74 1523 65 q 1395 98 1429 82 q 1338 135 1360 113 q 1303 182 1316 156 q 1239 146 1280 164 q 1141 113 1197 129 q 1017 83 1084 97 q 874 60 949 70 q 720 45 800 50 q 562 39 641 39 q 378 55 464 39 q 229 104 292 71 q 129 189 165 138 q 92 312 92 241 m 678 -221 l 543 -221 l 543 -85 l 678 -85 l 678 -221 m 889 -221 l 753 -221 l 753 -85 l 889 -85 l 889 -221 m 783 -427 l 648 -427 l 648 -291 l 783 -291 l 783 -427 z "},"ﭘ":{"ha":477,"x_min":-47,"x_max":357,"o":"m 250 289 q 234 400 250 334 q 188 564 218 467 l 296 574 q 325 480 313 520 q 343 407 336 439 q 354 346 351 374 q 357 289 357 318 q 335 203 357 244 q 274 132 313 163 q 179 83 234 101 q 56 65 123 65 l 0 65 q -47 73 -24 65 l -47 195 l 0 195 l 56 195 q 136 203 100 195 q 197 224 172 211 q 236 254 222 237 q 250 289 250 271 m 136 -221 l 0 -221 l 0 -85 l 136 -85 l 136 -221 m 347 -221 l 211 -221 l 211 -85 l 347 -85 l 347 -221 m 241 -427 l 105 -427 l 105 -291 l 241 -291 l 241 -427 z "},"ﭙ":{"ha":477,"x_min":-47,"x_max":477,"o":"m 477 65 q 390 70 428 65 q 322 84 351 75 q 271 107 292 94 q 235 139 250 121 q 150 84 202 103 q 24 65 98 65 l 0 65 q -47 73 -24 65 l -47 195 l 0 195 l 24 195 q 150 226 109 195 q 190 307 190 256 l 190 457 l 294 457 l 294 307 q 301 260 294 281 q 328 225 308 239 q 384 203 348 211 q 477 195 419 195 l 477 65 m 136 -221 l 0 -221 l 0 -85 l 136 -85 l 136 -221 m 347 -221 l 211 -221 l 211 -85 l 347 -85 l 347 -221 m 241 -427 l 105 -427 l 105 -291 l 241 -291 l 241 -427 z "},"ﭺ":{"ha":1023,"x_min":94,"x_max":912,"o":"m 884 -216 q 821 -235 859 -224 q 734 -256 783 -246 q 628 -273 686 -266 q 506 -279 571 -279 q 406 -272 456 -279 q 310 -248 356 -265 q 225 -203 264 -231 q 156 -132 185 -174 q 110 -31 127 -90 q 94 104 94 27 q 111 203 94 157 q 157 290 127 250 q 225 365 186 330 q 311 427 265 399 q 407 478 357 456 q 506 519 456 501 l 331 614 q 297 630 309 625 q 273 634 286 634 q 261 629 269 634 q 248 619 253 625 l 155 519 l 94 580 l 172 707 q 189 728 178 718 q 212 746 199 738 q 239 759 224 754 q 269 764 254 764 q 292 763 280 764 q 316 757 303 761 q 345 746 330 753 q 380 729 360 739 l 603 608 q 649 592 622 598 q 707 583 677 586 q 765 579 736 580 q 814 578 793 578 l 912 578 l 912 448 l 825 448 q 751 444 794 448 q 658 430 708 439 q 555 406 608 420 q 452 371 503 391 q 356 324 401 351 q 276 264 311 298 q 222 192 242 231 q 202 104 202 152 q 214 15 202 54 q 248 -52 227 -24 q 298 -99 269 -80 q 361 -129 328 -117 q 432 -144 395 -140 q 506 -149 469 -149 q 621 -145 567 -149 q 720 -135 675 -141 q 800 -121 765 -129 q 857 -106 835 -114 l 884 -216 m 543 144 l 420 144 l 420 266 l 543 266 l 543 144 m 732 144 l 610 144 l 610 266 l 732 266 l 732 144 m 637 -41 l 515 -41 l 515 81 l 637 81 l 637 -41 z "},"ﭻ":{"ha":1023,"x_min":94,"x_max":1023,"o":"m 884 -216 q 821 -235 859 -224 q 734 -256 783 -246 q 628 -273 686 -266 q 506 -279 571 -279 q 406 -272 456 -279 q 310 -248 356 -265 q 225 -203 264 -231 q 156 -132 185 -174 q 110 -31 127 -90 q 94 104 94 27 q 111 203 94 157 q 157 290 127 250 q 225 365 186 330 q 311 427 265 399 q 407 478 357 456 q 506 519 456 501 l 331 614 q 297 630 309 625 q 273 634 286 634 q 261 629 269 634 q 248 619 253 625 l 155 519 l 94 580 l 172 707 q 189 728 178 718 q 212 746 199 738 q 239 759 224 754 q 269 764 254 764 q 292 763 280 764 q 316 757 303 761 q 345 746 330 753 q 380 729 360 739 l 603 608 q 649 592 622 598 q 707 583 677 586 q 765 579 736 580 q 814 578 793 578 l 912 578 l 912 448 l 808 448 l 854 317 q 876 269 863 291 q 908 230 888 246 q 955 204 927 214 q 1023 195 983 195 l 1023 65 q 916 81 960 65 q 841 126 872 97 q 790 196 810 155 q 758 284 770 236 l 715 439 q 608 419 665 433 q 493 387 550 406 q 384 340 436 367 q 291 278 331 313 q 226 200 250 243 q 202 104 202 157 q 214 15 202 54 q 248 -52 227 -24 q 298 -99 269 -80 q 361 -129 328 -117 q 432 -144 395 -140 q 506 -149 469 -149 q 621 -145 567 -149 q 720 -135 675 -141 q 800 -121 765 -129 q 857 -106 835 -114 l 884 -216 m 488 130 l 366 130 l 366 252 l 488 252 l 488 130 m 678 130 l 556 130 l 556 252 l 678 252 l 678 130 m 583 -55 l 461 -55 l 461 67 l 583 67 l 583 -55 z "},"ﭼ":{"ha":1023,"x_min":-47,"x_max":926,"o":"m 926 304 l 841 304 q 793 299 815 304 q 753 286 772 294 q 717 265 734 277 q 685 240 701 253 q 644 209 669 227 q 587 172 618 191 q 518 133 555 152 q 444 99 482 114 q 366 75 405 84 q 291 65 327 65 l 0 65 q -47 73 -24 65 l -47 195 l 0 195 l 291 195 q 381 211 334 195 q 472 249 428 227 q 554 295 517 271 q 614 337 591 319 q 595 346 605 340 q 577 355 585 351 l 343 492 q 310 508 322 504 q 286 512 297 512 q 266 507 277 512 q 248 494 255 502 l 160 397 l 95 460 l 178 585 q 228 628 197 613 q 286 642 259 642 q 335 634 308 642 q 394 606 361 625 l 627 469 q 669 451 647 458 q 721 440 692 444 q 788 436 750 437 q 878 435 827 435 l 926 435 l 926 304 m 298 -221 l 163 -221 l 163 -85 l 298 -85 l 298 -221 m 509 -221 l 374 -221 l 374 -85 l 509 -85 l 509 -221 m 404 -427 l 268 -427 l 268 -291 l 404 -291 l 404 -427 z "},"ﭽ":{"ha":1044,"x_min":-47,"x_max":1044,"o":"m 1044 65 q 910 72 963 65 q 821 97 857 79 q 763 149 785 116 q 722 235 741 182 l 711 264 q 664 228 691 248 q 603 185 636 207 q 532 141 570 163 q 454 103 494 119 q 371 76 413 86 q 287 65 329 65 l 0 65 q -47 73 -24 65 l -47 195 l 0 195 l 287 195 q 377 211 330 195 q 468 249 424 227 q 550 295 513 271 q 610 337 587 319 q 591 346 601 340 q 573 355 581 351 l 339 492 q 306 508 318 504 q 282 512 293 512 q 262 507 273 512 q 244 494 251 502 l 156 397 l 91 460 l 174 585 q 224 628 193 613 q 282 642 255 642 q 331 634 304 642 q 390 606 357 625 l 623 469 q 665 451 643 458 q 717 440 688 444 q 784 436 746 437 q 873 435 823 435 l 922 435 l 922 304 l 837 304 q 817 303 827 304 q 798 301 808 302 l 808 282 q 837 242 821 258 q 879 215 852 226 q 944 200 905 205 q 1044 195 984 195 l 1044 65 m 298 -221 l 163 -221 l 163 -85 l 298 -85 l 298 -221 m 509 -221 l 374 -221 l 374 -85 l 509 -85 l 509 -221 m 404 -427 l 268 -427 l 268 -291 l 404 -291 l 404 -427 z "},"ﮊ":{"ha":731,"x_min":56,"x_max":638,"o":"m 56 -187 q 174 -141 115 -166 q 285 -88 232 -116 q 382 -30 338 -60 q 460 34 427 1 q 511 101 492 67 q 530 172 530 136 q 523 240 530 203 q 505 313 516 277 q 480 378 494 348 q 452 427 467 408 l 534 507 q 571 444 553 484 q 604 359 589 405 q 629 264 619 313 q 638 172 638 215 q 617 70 638 119 q 558 -25 595 20 q 468 -112 520 -71 q 356 -189 416 -153 q 227 -256 295 -225 q 90 -311 159 -287 l 56 -187 m 354 729 l 218 729 l 218 865 l 354 865 l 354 729 m 565 729 l 429 729 l 429 865 l 565 865 l 565 729 m 459 935 l 323 935 l 323 1070 l 459 1070 l 459 935 z "},"ﮋ":{"ha":852,"x_min":58,"x_max":852,"o":"m 852 65 q 722 79 772 65 q 640 117 673 92 q 601 21 629 66 q 531 -63 572 -24 q 438 -135 490 -102 q 330 -199 387 -169 q 216 -255 274 -229 q 102 -305 157 -281 l 58 -189 q 169 -137 112 -163 q 279 -83 226 -111 q 381 -25 333 -56 q 464 38 429 5 q 521 111 500 72 q 542 194 542 149 q 538 262 542 228 q 529 327 535 296 q 516 387 524 359 q 499 439 508 416 l 600 478 l 644 326 q 663 274 652 298 q 695 233 673 250 q 754 205 717 215 q 852 195 791 195 l 852 65 m 354 729 l 218 729 l 218 865 l 354 865 l 354 729 m 565 729 l 429 729 l 429 865 l 565 865 l 565 729 m 459 935 l 323 935 l 323 1070 l 459 1070 l 459 935 z "},"ﮎ":{"ha":1497,"x_min":92,"x_max":1466,"o":"m 199 312 q 227 248 199 275 q 304 203 255 220 q 419 178 353 186 q 562 170 486 170 q 692 172 624 170 q 827 179 760 174 q 955 194 894 184 q 1061 220 1015 204 q 1134 260 1107 237 q 1162 317 1162 283 q 1138 401 1162 362 q 1072 477 1114 441 q 974 548 1030 513 q 854 618 918 582 l 870 791 q 1014 885 940 838 q 1160 972 1088 931 q 1302 1047 1233 1013 q 1432 1103 1371 1081 l 1466 979 q 1345 928 1409 958 q 1216 861 1282 897 q 1084 783 1149 824 q 956 702 1018 743 q 1075 625 1019 665 q 1175 538 1132 585 q 1243 437 1217 492 q 1268 317 1268 382 q 1236 211 1268 255 q 1149 135 1204 166 q 1024 86 1095 104 q 874 57 952 67 q 715 43 795 46 q 562 39 634 39 q 378 55 464 39 q 229 104 292 71 q 129 189 165 138 q 92 312 92 241 q 98 378 92 342 q 113 450 104 413 q 132 522 121 486 q 154 590 143 558 l 258 567 q 238 502 249 537 q 219 433 228 467 q 204 367 210 398 q 199 312 199 335 z "},"ﮏ":{"ha":1586,"x_min":92,"x_max":1586,"o":"m 92 312 q 98 378 92 342 q 113 450 104 413 q 132 522 121 486 q 154 590 143 558 l 258 567 q 238 502 249 537 q 219 433 228 467 q 204 367 210 398 q 199 312 199 335 q 227 248 199 275 q 304 203 255 220 q 419 178 353 186 q 562 170 486 170 q 692 172 624 170 q 827 179 760 174 q 955 194 894 184 q 1061 220 1015 204 q 1134 260 1107 237 q 1162 317 1162 283 q 1138 401 1162 362 q 1072 477 1114 441 q 974 548 1030 513 q 854 618 918 582 l 870 791 q 1014 885 940 838 q 1160 972 1088 931 q 1302 1047 1233 1013 q 1432 1103 1371 1081 l 1466 979 q 1345 928 1409 959 q 1216 861 1282 898 q 1083 783 1149 824 q 956 702 1017 743 q 1033 655 991 681 q 1118 598 1075 629 q 1204 533 1161 568 q 1285 462 1246 499 q 1355 387 1323 425 q 1409 310 1388 349 q 1436 268 1421 288 q 1471 231 1451 247 q 1520 205 1492 215 q 1586 195 1548 195 l 1586 65 q 1489 81 1531 65 q 1414 124 1447 98 q 1358 184 1382 151 q 1316 252 1335 218 q 1294 287 1307 269 q 1267 321 1281 305 q 1234 211 1266 257 q 1147 134 1202 165 q 1022 84 1093 103 q 873 56 951 66 q 714 42 795 45 q 562 39 634 39 q 378 55 464 39 q 229 104 292 71 q 129 189 165 138 q 92 312 92 241 z "},"ﮐ":{"ha":692,"x_min":-47,"x_max":657,"o":"m 0 65 q -47 73 -24 65 l -47 195 l 0 195 l 47 195 q 158 202 103 195 q 256 224 213 210 q 326 262 299 239 q 353 317 353 286 q 329 401 353 362 q 263 477 304 441 q 165 548 221 513 q 45 618 109 582 l 61 791 q 205 885 131 838 q 351 972 279 931 q 493 1047 424 1013 q 623 1103 562 1081 l 657 979 q 536 928 600 958 q 407 861 473 897 q 275 783 340 824 q 147 702 209 743 q 266 625 210 665 q 366 538 323 585 q 434 437 408 492 q 459 317 459 382 q 443 238 459 273 q 397 175 426 203 q 328 126 368 146 q 243 92 288 105 q 147 72 197 79 q 47 65 97 65 l 0 65 z "},"ﮑ":{"ha":781,"x_min":-47,"x_max":781,"o":"m 781 65 q 680 81 723 65 q 605 123 637 97 q 549 183 573 149 q 507 252 526 216 q 484 288 497 271 q 458 323 471 306 q 441 241 458 278 q 396 176 425 205 q 328 127 367 148 q 242 92 288 106 q 147 72 197 79 q 47 65 97 65 l 0 65 q -47 73 -24 65 l -47 195 l 0 195 l 47 195 q 158 202 103 195 q 256 224 213 210 q 326 262 299 239 q 353 317 353 286 q 329 401 353 362 q 263 477 304 441 q 165 548 221 513 q 45 618 109 582 l 61 791 q 205 885 131 838 q 351 972 279 931 q 493 1047 424 1013 q 623 1103 562 1081 l 657 979 q 536 928 600 959 q 407 861 473 898 q 274 783 340 824 q 146 702 208 743 q 224 655 182 681 q 309 598 266 629 q 395 533 352 568 q 476 462 437 499 q 546 387 514 425 q 600 310 578 349 q 627 268 612 288 q 663 231 642 247 q 713 205 684 215 q 781 195 741 195 l 781 65 z "},"ﮤ":{"ha":743,"x_min":81,"x_max":672,"o":"m 296 674 q 375 639 333 661 q 459 590 418 618 q 539 529 501 563 q 607 458 578 496 q 654 379 637 420 q 672 294 672 338 q 657 230 672 261 q 615 172 642 199 q 555 122 589 145 q 483 83 521 100 q 404 58 444 67 q 328 49 364 49 q 230 66 275 49 q 152 112 185 83 q 100 182 119 142 q 81 270 81 222 q 93 343 81 304 q 122 424 104 383 q 163 504 140 464 q 211 577 186 543 q 257 636 235 610 q 296 674 279 661 m 317 528 q 272 470 295 503 q 230 402 249 437 q 198 332 210 367 q 186 270 186 298 q 197 234 186 250 q 227 205 208 217 q 272 186 245 193 q 328 179 298 179 q 408 188 366 179 q 486 213 450 197 q 545 250 522 229 q 568 294 568 271 q 545 360 568 327 q 485 425 522 394 q 404 482 449 455 q 317 528 359 509 m 470 850 q 402 837 433 844 q 335 819 371 831 q 252 787 298 807 q 137 734 205 767 l 107 814 q 159 840 136 829 q 205 861 183 852 q 163 908 179 882 q 146 967 146 935 q 162 1027 146 998 q 200 1080 177 1057 q 250 1118 223 1103 q 300 1132 277 1132 q 347 1126 327 1132 q 383 1110 367 1120 q 412 1086 399 1100 q 439 1057 425 1073 l 387 1000 q 371 1017 379 1009 q 354 1031 363 1025 q 331 1040 344 1037 q 300 1044 318 1044 q 273 1037 288 1044 q 245 1020 258 1030 q 224 995 233 1009 q 216 967 216 981 q 241 933 216 949 q 304 901 267 916 q 384 923 347 916 q 457 938 421 930 l 470 850 z "},"ﮥ":{"ha":792,"x_min":94,"x_max":792,"o":"m 792 65 q 712 68 751 65 q 637 88 672 72 q 573 137 602 104 q 522 229 543 170 l 503 142 q 412 148 459 144 q 320 157 365 151 q 235 176 275 164 q 164 209 195 189 q 117 259 134 229 q 99 331 99 289 q 123 441 99 389 q 190 537 147 494 q 290 616 232 581 q 417 675 349 650 l 395 774 l 496 802 l 608 310 q 636 244 618 267 q 680 210 655 220 q 733 197 704 199 q 792 195 762 195 l 792 65 m 446 549 q 349 507 393 530 q 272 455 304 483 q 222 396 240 427 q 203 331 203 364 q 231 303 203 314 q 301 287 258 293 q 399 278 345 281 q 509 273 454 275 l 446 549 m 456 911 q 389 898 420 905 q 321 880 357 892 q 238 848 285 868 q 123 795 191 828 l 94 876 q 146 901 122 890 q 191 922 170 913 q 149 969 165 943 q 133 1028 133 996 q 148 1088 133 1059 q 186 1141 163 1118 q 237 1179 210 1164 q 287 1193 264 1193 q 333 1187 313 1193 q 369 1171 353 1181 q 398 1147 385 1161 q 425 1118 412 1134 l 374 1061 q 358 1078 366 1070 q 340 1092 350 1086 q 317 1101 330 1098 q 287 1105 304 1105 q 259 1098 274 1105 q 232 1081 244 1091 q 211 1056 219 1070 q 202 1028 202 1042 q 228 994 202 1010 q 291 962 253 977 q 371 984 334 977 q 444 999 408 991 l 456 911 z "},"ﯨ":{"ha":441,"x_min":-47,"x_max":357,"o":"m 250 289 q 234 400 250 334 q 188 564 218 467 l 296 574 q 325 480 313 520 q 343 407 336 439 q 354 346 351 374 q 357 289 357 318 q 335 203 357 244 q 274 132 313 163 q 179 83 234 101 q 56 65 123 65 l 0 65 q -47 73 -24 65 l -47 195 l 0 195 l 56 195 q 136 203 100 195 q 197 224 172 211 q 236 254 222 237 q 250 289 250 271 z "},"ﯩ":{"ha":477,"x_min":-47,"x_max":477,"o":"m 477 65 q 390 70 428 65 q 322 84 351 75 q 271 107 292 94 q 235 139 250 121 q 150 84 202 103 q 24 65 98 65 l 0 65 q -47 73 -24 65 l -47 195 l 0 195 l 24 195 q 150 226 109 195 q 190 307 190 256 l 190 457 l 294 457 l 294 307 q 301 260 294 281 q 328 225 308 239 q 384 203 348 211 q 477 195 419 195 l 477 65 z "},"ﯼ":{"ha":1216,"x_min":77,"x_max":1146,"o":"m 1058 347 q 1006 407 1032 389 q 952 425 980 425 q 904 418 928 425 q 855 399 879 411 q 810 372 831 388 q 773 340 789 357 q 748 306 758 323 q 739 273 739 288 q 743 260 739 266 q 758 249 746 255 q 790 236 769 243 q 847 219 811 229 q 949 183 910 201 q 1010 143 988 165 q 1040 93 1032 121 q 1047 24 1047 64 q 1015 -55 1047 -19 q 929 -120 983 -92 q 808 -170 876 -149 q 669 -205 741 -191 q 529 -227 598 -220 q 406 -234 460 -234 q 162 -167 246 -234 q 77 24 77 -100 q 89 119 77 72 q 118 210 101 167 q 155 291 136 254 q 191 357 175 329 l 277 317 q 247 262 263 292 q 218 195 231 231 q 195 115 204 158 q 186 24 186 73 q 240 -71 186 -38 q 406 -104 294 -104 q 508 -100 451 -104 q 625 -90 566 -97 q 741 -72 684 -83 q 841 -47 797 -61 q 912 -15 885 -33 q 939 24 939 3 q 935 42 939 35 q 918 58 931 50 q 882 73 905 65 q 819 93 858 81 q 721 127 758 110 q 665 164 684 144 q 639 211 645 184 q 633 273 633 237 q 647 334 633 301 q 684 398 661 366 q 740 458 708 429 q 807 509 772 487 q 880 544 843 531 q 952 557 917 557 q 1052 524 1003 557 q 1146 419 1101 491 l 1058 347 z "},"ﯽ":{"ha":1136,"x_min":77,"x_max":1136,"o":"m 1136 65 q 1059 69 1093 65 q 995 78 1025 73 q 935 89 964 83 q 873 101 905 95 q 969 17 937 58 q 1002 -68 1002 -24 q 976 -127 1002 -100 q 905 -176 949 -154 q 803 -215 861 -198 q 682 -242 745 -231 q 554 -259 618 -253 q 432 -264 489 -264 q 290 -249 355 -264 q 178 -200 225 -233 q 104 -117 131 -167 q 77 -1 77 -68 q 89 95 77 47 q 118 186 101 142 q 155 267 136 229 q 191 333 175 304 l 277 293 q 247 237 263 268 q 218 170 231 207 q 195 91 204 134 q 186 -1 186 48 q 205 -60 186 -35 q 258 -101 224 -85 q 336 -126 292 -118 q 432 -134 381 -134 q 531 -133 479 -134 q 636 -127 584 -131 q 735 -118 688 -123 q 819 -106 783 -113 q 877 -89 855 -98 q 898 -68 898 -79 q 856 -7 898 -41 q 722 75 814 28 l 784 216 q 871 213 829 216 q 955 205 913 210 q 1041 198 997 201 q 1136 195 1086 195 l 1136 65 z "},"ﯾ":{"ha":477,"x_min":-47,"x_max":357,"o":"m 250 289 q 234 400 250 334 q 188 564 218 467 l 296 574 q 325 480 313 520 q 343 407 336 439 q 354 346 351 374 q 357 289 357 318 q 335 203 357 244 q 274 132 313 163 q 179 83 234 101 q 56 65 123 65 l 0 65 q -47 73 -24 65 l -47 195 l 0 195 l 56 195 q 136 203 100 195 q 197 224 172 211 q 236 254 222 237 q 250 289 250 271 m 141 -248 l 5 -248 l 5 -113 l 141 -113 l 141 -248 m 341 -248 l 205 -248 l 205 -113 l 341 -113 l 341 -248 z "},"ﯿ":{"ha":477,"x_min":-47,"x_max":477,"o":"m 477 65 q 390 70 428 65 q 322 84 351 75 q 271 107 292 94 q 235 139 250 121 q 150 84 202 103 q 24 65 98 65 l 0 65 q -47 73 -24 65 l -47 195 l 0 195 l 24 195 q 150 226 109 195 q 190 307 190 256 l 190 457 l 294 457 l 294 307 q 301 260 294 281 q 328 225 308 239 q 384 203 348 211 q 477 195 419 195 l 477 65 m 141 -248 l 5 -248 l 5 -113 l 141 -113 l 141 -248 m 341 -248 l 205 -248 l 205 -113 l 341 -113 l 341 -248 z "},"ﱞ":{"ha":441,"x_min":-37,"x_max":429,"o":"m 429 678 q 423 629 429 653 q 405 587 417 606 q 373 558 393 569 q 324 547 353 547 q 308 550 317 547 q 287 563 298 554 q 267 586 277 572 q 250 622 256 601 q 238 575 245 598 q 217 534 230 552 q 187 504 205 515 q 144 493 169 493 q 99 506 117 493 q 71 540 81 519 q 55 587 60 561 q 49 639 50 613 l 47 691 l 85 701 l 87 638 q 90 605 87 621 q 99 575 93 588 q 117 554 106 562 q 144 546 127 546 q 182 560 167 546 q 205 596 197 574 q 217 644 214 618 q 220 692 220 669 l 220 740 l 256 753 q 260 711 256 737 q 273 659 264 684 q 294 616 281 634 q 327 598 307 598 q 355 607 343 598 q 373 631 366 616 q 383 664 380 646 q 386 702 386 682 q 385 726 386 712 q 384 752 385 739 q 381 777 382 766 q 379 795 380 789 l 421 805 l 429 678 m 424 927 q 385 940 404 935 q 349 952 366 945 q 290 887 326 917 q 215 833 255 857 q 135 791 176 810 q 59 761 94 773 q 54 778 56 770 q 50 792 52 785 q 45 805 47 798 q 41 821 43 812 q 76 830 57 822 q 107 843 96 838 q 109 857 109 851 q 109 867 109 863 q 105 898 109 882 q 93 928 102 914 q 67 952 83 943 q 26 961 51 961 q -5 956 10 961 q -13 972 -9 966 q -21 983 -17 978 q -28 995 -24 989 q -37 1009 -33 1000 q -10 1015 -23 1013 q 15 1017 3 1017 q 66 1005 43 1017 q 107 974 90 994 q 135 923 125 953 q 146 855 145 892 q 188 877 164 863 q 235 907 212 890 q 277 940 258 923 q 307 969 297 956 q 270 978 290 974 q 229 989 250 982 q 190 1008 208 996 q 158 1040 171 1020 q 180 1114 163 1080 q 221 1173 197 1148 q 276 1211 245 1197 q 340 1225 307 1225 q 365 1208 353 1219 q 385 1183 376 1198 q 399 1152 394 1169 q 405 1117 405 1135 q 402 1076 405 1093 q 394 1044 399 1058 q 384 1018 389 1030 q 372 996 378 1006 q 397 986 387 989 q 424 980 408 983 l 424 927 m 330 1009 q 350 1050 342 1029 q 357 1082 357 1070 q 346 1134 357 1112 q 309 1166 334 1156 q 243 1140 268 1166 q 206 1066 219 1114 q 231 1047 218 1055 q 258 1034 243 1040 q 290 1022 273 1027 q 330 1009 308 1017 z "},"ﱟ":{"ha":441,"x_min":-9,"x_max":391,"o":"m 373 1098 q 367 1049 373 1073 q 349 1007 361 1025 q 317 978 337 989 q 269 966 297 966 q 252 970 262 966 q 232 983 242 974 q 211 1006 221 991 q 194 1042 201 1021 q 182 995 190 1018 q 162 954 174 972 q 131 924 149 935 q 88 913 113 913 q 44 926 62 913 q 15 960 26 939 q -1 1007 4 981 q -7 1059 -6 1033 l -9 1111 l 29 1120 l 31 1058 q 35 1024 32 1041 q 44 995 37 1008 q 61 974 50 982 q 88 966 72 966 q 126 980 111 966 q 150 1016 141 994 q 161 1064 158 1038 q 164 1112 164 1089 l 164 1160 l 201 1173 q 205 1131 201 1157 q 217 1079 209 1104 q 238 1036 225 1054 q 271 1018 252 1018 q 299 1027 288 1018 q 317 1050 311 1036 q 327 1084 324 1065 q 330 1122 330 1102 q 330 1145 330 1132 q 328 1172 329 1159 q 326 1197 327 1185 q 323 1215 324 1208 l 366 1225 l 373 1098 m 390 825 l 57 691 l 57 753 l 390 888 l 390 825 m 391 654 l 57 519 l 57 583 l 390 716 l 391 654 z "},"ﱠ":{"ha":441,"x_min":18,"x_max":415,"o":"m 415 909 q 409 860 415 884 q 391 818 404 836 q 359 788 379 800 q 311 777 339 777 q 294 781 304 777 q 274 793 284 785 q 253 817 263 802 q 236 852 243 831 q 224 806 232 829 q 204 764 216 783 q 173 735 191 746 q 130 724 155 724 q 86 737 104 724 q 57 771 68 750 q 41 818 46 791 q 35 869 36 844 l 33 922 l 71 931 l 73 869 q 77 835 74 852 q 86 806 79 819 q 103 785 92 793 q 130 777 114 777 q 168 791 153 777 q 192 827 183 805 q 203 874 200 849 q 206 922 206 900 l 206 970 l 243 984 q 247 941 243 968 q 259 890 251 915 q 280 847 267 865 q 313 829 294 829 q 341 838 330 829 q 359 861 353 846 q 369 895 366 876 q 372 932 372 913 q 372 956 372 943 q 370 983 371 970 q 368 1008 369 996 q 366 1025 366 1019 l 408 1036 l 415 909 m 351 1161 l 18 1027 l 18 1089 l 351 1223 l 351 1161 z "},"ﱡ":{"ha":441,"x_min":20,"x_max":417,"o":"m 417 678 q 411 629 417 653 q 393 587 406 606 q 361 558 381 569 q 313 547 341 547 q 296 550 306 547 q 276 563 286 554 q 255 586 265 572 q 238 622 245 601 q 226 575 234 598 q 206 534 218 552 q 175 504 193 515 q 132 493 157 493 q 88 506 106 493 q 59 540 70 519 q 43 587 48 561 q 37 639 38 613 l 35 691 l 73 701 l 75 638 q 79 605 76 621 q 88 575 81 588 q 105 554 94 562 q 132 546 116 546 q 170 560 155 546 q 194 596 185 574 q 205 644 202 618 q 208 692 208 669 l 208 740 l 245 753 q 249 711 245 737 q 261 659 253 684 q 282 616 269 634 q 315 598 296 598 q 343 607 332 598 q 361 631 355 616 q 371 664 368 646 q 374 702 374 682 q 374 726 374 712 q 372 752 373 739 q 370 777 371 766 q 368 795 368 789 l 410 805 l 417 678 m 355 919 q 334 927 343 924 q 316 934 324 930 q 298 941 307 937 q 277 951 289 945 q 179 849 241 899 q 20 763 117 800 l 20 833 q 83 853 52 840 q 143 884 115 867 q 195 921 171 901 q 236 963 218 941 q 200 975 220 968 q 162 992 180 983 q 126 1012 143 1002 q 100 1034 110 1023 q 116 1118 102 1083 q 152 1176 130 1154 q 205 1210 175 1199 q 269 1222 235 1221 q 292 1203 281 1216 q 313 1174 304 1190 q 327 1138 321 1157 q 332 1102 332 1120 q 329 1078 332 1093 q 323 1048 327 1064 q 315 1018 320 1033 q 307 990 311 1002 q 336 978 320 983 q 368 968 353 972 l 355 919 m 266 1007 q 282 1044 277 1027 q 286 1075 286 1061 q 275 1126 286 1105 q 238 1159 263 1147 q 175 1138 197 1159 q 140 1068 153 1116 q 164 1049 151 1057 q 192 1035 177 1041 q 226 1022 208 1028 q 266 1007 244 1016 z "},"ﱢ":{"ha":441,"x_min":22,"x_max":421,"o":"m 404 1098 q 398 1049 404 1073 q 380 1007 393 1025 q 348 978 368 989 q 300 966 328 966 q 283 970 293 966 q 263 983 273 974 q 242 1006 252 991 q 225 1042 232 1021 q 213 995 221 1018 q 193 954 205 972 q 162 924 180 935 q 119 913 144 913 q 75 926 93 913 q 46 960 57 939 q 30 1007 35 981 q 24 1059 25 1033 l 22 1111 l 60 1120 l 62 1058 q 66 1024 63 1041 q 75 995 68 1008 q 92 974 81 982 q 119 966 103 966 q 157 980 142 966 q 181 1016 172 994 q 192 1064 189 1038 q 195 1112 195 1089 l 195 1160 l 232 1173 q 236 1131 232 1157 q 248 1079 240 1104 q 270 1036 256 1054 q 302 1018 283 1018 q 330 1027 319 1018 q 349 1050 342 1036 q 358 1084 355 1065 q 361 1122 361 1102 q 361 1145 361 1132 q 359 1172 360 1159 q 357 1197 358 1185 q 355 1215 355 1208 l 397 1225 l 404 1098 m 421 833 l 88 701 l 88 763 l 421 895 l 421 833 z "},"ﱣ":{"ha":441,"x_min":18,"x_max":400,"o":"m 400 800 q 394 751 400 775 q 376 709 389 728 q 344 680 364 691 q 296 669 324 669 q 279 672 289 669 q 259 685 269 676 q 238 708 248 694 q 221 744 228 723 q 209 697 217 720 q 189 656 201 674 q 158 626 176 637 q 115 615 140 615 q 71 628 89 615 q 42 662 53 642 q 26 709 31 683 q 20 761 21 735 l 18 813 l 56 823 l 58 760 q 62 727 59 743 q 71 697 64 710 q 88 676 77 684 q 115 668 99 668 q 153 682 138 668 q 177 719 168 696 q 188 766 185 741 q 191 814 191 791 l 191 862 l 228 876 q 232 833 228 859 q 244 781 236 806 q 266 738 252 756 q 298 720 279 720 q 326 729 315 720 q 345 753 338 738 q 354 786 351 768 q 357 824 357 804 q 357 848 357 834 q 355 874 356 861 q 353 899 354 888 q 351 917 351 911 l 393 927 l 400 800 m 176 947 q 171 1024 176 990 q 156 1086 165 1058 q 134 1138 146 1114 q 108 1183 121 1162 l 162 1233 q 185 1193 174 1214 q 204 1146 196 1171 q 217 1090 212 1120 q 222 1022 222 1059 q 221 1006 222 1016 q 219 984 220 996 q 216 963 218 973 q 214 947 215 953 l 176 947 z "},"ﴼ":{"ha":533,"x_min":81,"x_max":533,"o":"m 533 65 l 451 65 q 325 80 375 65 q 246 124 275 94 q 204 199 216 153 q 192 307 192 244 l 192 813 l 296 813 l 296 307 q 303 257 296 278 q 328 222 311 236 q 376 202 346 209 q 451 195 406 195 l 533 195 l 533 65 m 414 1170 l 81 1038 l 81 1100 l 414 1232 l 414 1170 m 414 992 l 81 860 l 81 922 l 414 1055 l 414 992 z "},"ﴽ":{"ha":488,"x_min":81,"x_max":414,"o":"m 296 65 l 192 65 l 192 813 l 296 813 l 296 65 m 414 1170 l 81 1038 l 81 1100 l 414 1232 l 414 1170 m 414 992 l 81 860 l 81 922 l 414 1055 l 414 992 z "},"ﺀ":{"ha":522,"x_min":33,"x_max":463,"o":"m 463 180 q 415 171 439 175 q 366 162 391 168 q 311 148 340 157 q 248 126 282 140 q 174 91 214 112 q 86 41 134 71 l 33 153 q 80 181 58 168 q 124 206 102 195 q 80 262 96 232 q 65 331 65 292 q 74 382 65 357 q 96 432 82 408 q 129 475 111 455 q 169 510 148 495 q 211 533 190 524 q 252 541 233 541 q 299 538 279 541 q 336 528 319 535 q 368 509 353 521 q 404 480 384 497 l 336 384 q 319 397 327 392 q 303 405 312 402 q 282 410 294 408 q 252 411 270 411 q 223 404 239 411 q 196 386 208 397 q 175 360 183 375 q 167 331 167 346 q 174 315 167 323 q 194 298 181 307 q 223 282 206 290 q 260 267 241 274 q 355 292 311 283 q 441 308 398 300 l 463 180 z "},"ﺁ":{"ha":488,"x_min":1,"x_max":509,"o":"m 300 65 l 196 65 l 196 813 l 300 813 l 300 65 m 509 1088 q 411 1036 461 1059 q 366 1017 389 1027 q 317 1001 342 1008 q 266 989 292 994 q 216 985 241 985 q 166 986 191 985 q 123 991 142 988 q 80 998 100 994 q 72 951 73 977 q 70 903 70 924 l 1 903 q 3 947 1 922 q 13 1000 6 972 q 31 1054 20 1027 q 59 1101 42 1080 q 95 1086 73 1093 q 144 1077 114 1081 q 216 1073 174 1073 q 260 1077 237 1073 q 304 1087 282 1080 q 347 1101 326 1093 q 387 1118 368 1109 q 471 1163 430 1137 l 509 1088 z "},"ﺂ":{"ha":533,"x_min":1,"x_max":533,"o":"m 533 65 l 451 65 q 325 80 375 65 q 246 124 275 94 q 204 199 216 153 q 192 307 192 244 l 192 813 l 296 813 l 296 307 q 303 257 296 278 q 328 222 311 236 q 376 202 346 209 q 451 195 406 195 l 533 195 l 533 65 m 509 1088 q 411 1036 461 1059 q 366 1017 389 1027 q 317 1001 342 1008 q 266 989 292 994 q 216 985 241 985 q 166 986 191 985 q 123 991 142 988 q 80 998 100 994 q 72 951 73 977 q 70 903 70 924 l 1 903 q 3 947 1 922 q 13 1000 6 972 q 31 1054 20 1027 q 59 1101 42 1080 q 95 1086 73 1093 q 144 1077 114 1081 q 216 1073 174 1073 q 260 1077 237 1073 q 304 1087 282 1080 q 347 1101 326 1093 q 387 1118 368 1109 q 471 1163 430 1137 l 509 1088 z "},"ﺃ":{"ha":488,"x_min":66,"x_max":429,"o":"m 296 65 l 192 65 l 192 813 l 296 813 l 296 65 m 429 961 q 361 948 393 954 q 294 929 330 941 q 211 898 258 918 q 96 845 164 878 l 66 925 q 119 951 95 939 q 164 972 142 962 q 122 1019 138 993 q 106 1078 106 1045 q 121 1138 106 1108 q 159 1191 136 1168 q 210 1228 182 1214 q 260 1242 237 1242 q 306 1237 286 1242 q 342 1221 326 1231 q 371 1197 358 1211 q 398 1168 385 1183 l 347 1111 q 331 1128 338 1120 q 313 1142 323 1136 q 290 1151 303 1147 q 260 1154 277 1154 q 232 1147 247 1154 q 204 1130 217 1141 q 183 1106 192 1120 q 175 1078 175 1092 q 200 1043 175 1060 q 264 1012 226 1027 q 343 1033 307 1026 q 416 1048 380 1040 l 429 961 z "},"ﺄ":{"ha":533,"x_min":53,"x_max":533,"o":"m 533 65 l 451 65 q 325 80 375 65 q 246 124 275 94 q 204 199 216 153 q 192 307 192 244 l 192 813 l 296 813 l 296 307 q 303 257 296 278 q 328 222 311 236 q 376 202 346 209 q 451 195 406 195 l 533 195 l 533 65 m 416 961 q 348 948 379 954 q 280 929 317 941 q 197 898 244 918 q 83 845 151 878 l 53 925 q 105 951 81 939 q 151 972 129 962 q 109 1019 125 993 q 92 1078 92 1045 q 107 1138 92 1108 q 146 1191 123 1168 q 196 1228 169 1214 q 246 1242 223 1242 q 293 1237 273 1242 q 329 1221 313 1231 q 358 1197 345 1211 q 385 1168 371 1183 l 333 1111 q 317 1128 325 1120 q 299 1142 309 1136 q 277 1151 290 1147 q 246 1154 264 1154 q 218 1147 233 1154 q 191 1130 203 1141 q 170 1106 178 1120 q 161 1078 161 1092 q 187 1043 161 1060 q 250 1012 212 1027 q 330 1033 293 1026 q 403 1048 367 1040 l 416 961 z "},"ﺅ":{"ha":731,"x_min":111,"x_max":635,"o":"m 111 -190 l 112 -187 q 292 -105 218 -146 q 412 -23 365 -64 q 485 58 459 18 q 521 137 510 98 q 470 125 495 129 q 416 122 445 122 q 375 123 397 122 q 329 130 352 125 q 283 145 305 135 q 243 173 260 155 q 215 218 226 191 q 205 282 205 244 q 213 344 205 311 q 237 412 222 378 q 272 477 252 446 q 314 533 292 509 q 361 572 337 557 q 410 587 386 587 q 475 571 445 587 q 530 529 505 555 q 574 468 555 503 q 608 393 594 433 q 628 312 621 354 q 635 232 635 271 q 630 137 635 184 q 606 44 624 90 q 556 -47 589 -2 q 468 -137 523 -93 q 335 -225 414 -182 q 146 -311 256 -269 l 111 -190 m 529 277 q 514 342 524 310 q 489 400 504 374 q 454 441 474 425 q 410 456 434 456 q 375 438 393 456 q 342 394 357 420 q 319 337 328 367 q 310 282 310 307 q 321 266 310 272 q 349 257 333 260 q 384 253 366 254 q 416 252 402 252 q 475 258 448 252 q 529 277 503 264 m 558 796 q 490 783 522 789 q 423 765 459 777 q 340 733 387 753 q 225 680 293 713 l 195 760 q 248 786 224 774 q 293 807 271 798 q 251 854 267 828 q 235 913 235 880 q 250 973 235 943 q 288 1026 265 1003 q 338 1063 311 1049 q 389 1078 366 1078 q 435 1072 415 1078 q 471 1056 455 1066 q 500 1032 487 1046 q 527 1003 513 1019 l 475 946 q 459 963 467 955 q 442 977 452 971 q 419 986 432 983 q 389 989 406 989 q 361 983 376 989 q 333 965 346 976 q 312 941 321 955 q 304 913 304 927 q 329 879 304 895 q 393 847 355 862 q 472 868 435 861 q 545 884 509 876 l 558 796 z "},"ﺆ":{"ha":852,"x_min":123,"x_max":852,"o":"m 852 65 q 812 65 840 65 q 752 66 785 65 q 686 67 720 66 q 628 70 652 68 q 580 -28 612 21 q 494 -125 549 -77 q 357 -219 439 -173 q 159 -311 275 -266 l 123 -188 q 280 -119 214 -153 q 392 -51 346 -85 q 468 16 439 -17 q 513 83 497 50 q 409 106 460 92 q 318 145 358 121 q 254 202 278 168 q 229 282 229 236 q 238 344 229 311 q 261 412 246 378 q 296 477 276 446 q 339 533 316 509 q 386 572 361 557 q 435 587 410 587 q 499 571 470 587 q 552 529 528 555 q 594 468 576 503 q 624 393 612 433 q 642 312 636 354 q 648 232 648 271 l 648 197 q 700 196 669 197 q 761 196 730 196 q 817 195 791 195 q 852 195 842 195 l 852 65 m 543 203 q 544 218 543 210 q 544 232 544 226 q 537 309 544 269 q 516 381 530 349 q 482 435 503 414 q 435 456 462 456 q 399 438 417 456 q 367 394 381 420 q 343 337 353 367 q 334 282 334 307 q 352 252 334 264 q 398 229 369 239 q 465 214 427 220 q 543 203 503 208 m 558 796 q 490 783 522 789 q 423 765 459 777 q 340 733 387 753 q 225 680 293 713 l 195 760 q 248 786 224 774 q 293 807 271 798 q 251 854 267 828 q 235 913 235 880 q 250 973 235 943 q 288 1026 265 1003 q 338 1063 311 1049 q 389 1078 366 1078 q 435 1072 415 1078 q 471 1056 455 1066 q 500 1032 487 1046 q 527 1003 513 1019 l 475 946 q 459 963 467 955 q 442 977 452 971 q 419 986 432 983 q 389 989 406 989 q 361 983 376 989 q 333 965 346 976 q 312 941 321 955 q 304 913 304 927 q 329 879 304 895 q 393 847 355 862 q 472 868 435 861 q 545 884 509 876 l 558 796 z "},"ﺇ":{"ha":441,"x_min":18,"x_max":380,"o":"m 254 65 l 149 65 l 149 1055 l 254 1055 l 254 65 m 380 -303 q 341 -310 359 -307 q 304 -318 323 -313 q 261 -329 284 -322 q 209 -347 239 -336 q 139 -376 178 -359 q 47 -419 100 -394 l 18 -339 q 70 -313 46 -325 q 115 -292 94 -302 q 73 -245 90 -271 q 57 -186 57 -219 q 72 -126 57 -156 q 111 -73 87 -96 q 161 -36 134 -50 q 211 -22 188 -22 q 257 -27 237 -22 q 293 -43 277 -33 q 322 -67 309 -54 q 349 -96 336 -81 l 298 -153 q 282 -136 290 -144 q 264 -122 274 -128 q 241 -113 254 -117 q 211 -110 229 -110 q 183 -117 198 -110 q 156 -134 168 -123 q 135 -158 143 -144 q 126 -186 126 -172 q 152 -221 126 -204 q 215 -252 177 -237 q 260 -238 239 -243 q 298 -230 280 -233 q 333 -223 316 -226 q 368 -216 349 -220 l 380 -303 z "},"ﺈ":{"ha":448,"x_min":11,"x_max":448,"o":"m 448 65 l 408 65 q 282 80 332 65 q 203 124 233 94 q 161 199 174 153 q 149 307 149 244 l 149 1055 l 254 1055 l 254 307 q 261 257 254 278 q 286 222 268 236 q 333 202 303 209 q 408 195 363 195 l 448 195 l 448 65 m 374 -303 q 335 -310 353 -307 q 297 -318 317 -313 q 255 -329 277 -322 q 202 -347 232 -336 q 132 -376 172 -359 q 41 -419 93 -394 l 11 -339 q 63 -313 39 -325 q 109 -292 87 -302 q 66 -245 83 -271 q 50 -186 50 -219 q 65 -126 50 -156 q 104 -73 81 -96 q 154 -36 127 -50 q 204 -22 181 -22 q 251 -27 231 -22 q 287 -43 271 -33 q 316 -67 302 -54 q 342 -96 329 -81 l 291 -153 q 275 -136 283 -144 q 257 -122 267 -128 q 235 -113 248 -117 q 204 -110 222 -110 q 176 -117 191 -110 q 149 -134 161 -123 q 128 -158 136 -144 q 119 -186 119 -172 q 145 -221 119 -204 q 208 -252 170 -237 q 253 -238 233 -243 q 291 -230 273 -233 q 326 -223 309 -226 q 361 -216 342 -220 l 374 -303 z "},"ﺉ":{"ha":1216,"x_min":77,"x_max":1146,"o":"m 1058 347 q 1006 407 1032 389 q 952 425 980 425 q 904 418 928 425 q 855 399 879 411 q 810 372 831 388 q 773 340 789 357 q 748 306 758 323 q 739 273 739 288 q 743 260 739 266 q 758 249 746 255 q 790 236 769 243 q 847 219 811 229 q 949 183 910 201 q 1010 143 988 165 q 1040 93 1032 121 q 1047 24 1047 64 q 1015 -55 1047 -19 q 929 -120 983 -92 q 808 -170 876 -149 q 669 -205 741 -191 q 529 -227 598 -220 q 406 -234 460 -234 q 162 -167 246 -234 q 77 24 77 -100 q 89 119 77 72 q 118 210 101 167 q 155 291 136 254 q 191 357 175 329 l 277 317 q 247 262 263 292 q 218 195 231 231 q 195 115 204 158 q 186 24 186 73 q 240 -71 186 -38 q 406 -104 294 -104 q 508 -100 451 -104 q 625 -90 566 -97 q 741 -72 684 -83 q 841 -47 797 -61 q 912 -15 885 -33 q 939 24 939 3 q 935 42 939 35 q 918 58 931 50 q 882 73 905 65 q 819 93 858 81 q 721 127 758 110 q 665 164 684 144 q 639 211 645 184 q 633 273 633 237 q 647 334 633 301 q 684 398 661 366 q 740 458 708 429 q 807 509 772 487 q 880 544 843 531 q 952 557 917 557 q 1052 524 1003 557 q 1146 419 1101 491 l 1058 347 m 694 722 q 626 709 657 715 q 558 691 595 703 q 475 659 522 679 q 361 606 429 639 l 331 686 q 383 712 359 701 q 429 733 407 724 q 387 780 403 754 q 370 839 370 806 q 386 899 370 869 q 424 952 401 929 q 474 989 447 975 q 524 1004 501 1004 q 571 998 551 1004 q 607 982 591 992 q 636 958 623 972 q 663 929 649 945 l 611 872 q 595 889 603 881 q 577 903 587 897 q 555 912 568 909 q 524 916 542 916 q 496 909 511 916 q 469 891 481 902 q 448 867 456 881 q 439 839 439 853 q 465 805 439 821 q 528 773 490 788 q 608 794 571 787 q 681 810 645 802 l 694 722 z "},"ﺊ":{"ha":1136,"x_min":77,"x_max":1136,"o":"m 1136 65 q 1059 69 1093 65 q 995 78 1025 73 q 935 89 964 83 q 873 101 905 95 q 969 17 937 58 q 1002 -68 1002 -24 q 976 -127 1002 -100 q 905 -176 949 -154 q 803 -215 861 -198 q 682 -242 745 -231 q 554 -259 618 -253 q 432 -264 489 -264 q 290 -249 355 -264 q 178 -200 225 -233 q 104 -117 131 -167 q 77 -1 77 -68 q 89 95 77 47 q 118 186 101 142 q 155 267 136 229 q 191 333 175 304 l 277 293 q 247 237 263 268 q 218 170 231 207 q 195 91 204 134 q 186 -1 186 48 q 205 -60 186 -35 q 258 -101 224 -85 q 336 -126 292 -118 q 432 -134 381 -134 q 531 -133 479 -134 q 636 -127 584 -131 q 735 -118 688 -123 q 819 -106 783 -113 q 877 -89 855 -98 q 898 -68 898 -79 q 856 -7 898 -41 q 722 75 814 28 l 784 216 q 871 213 829 216 q 955 205 913 210 q 1041 198 997 201 q 1136 195 1086 195 l 1136 65 m 897 532 q 829 519 861 526 q 762 501 798 513 q 679 469 726 489 q 564 416 632 449 l 534 496 q 587 522 563 511 q 632 543 610 534 q 590 590 606 564 q 574 649 574 616 q 589 709 574 680 q 627 762 604 739 q 677 800 650 785 q 728 814 705 814 q 774 808 754 814 q 810 792 794 802 q 839 768 826 782 q 866 739 852 755 l 814 682 q 799 699 806 691 q 781 713 791 707 q 758 722 771 719 q 728 726 745 726 q 700 719 715 726 q 672 702 685 712 q 651 677 660 691 q 643 649 643 663 q 668 615 643 631 q 732 583 694 598 q 811 605 774 597 q 884 620 848 612 l 897 532 z "},"ﺋ":{"ha":477,"x_min":-47,"x_max":357,"o":"m 250 289 q 234 400 250 334 q 188 564 218 467 l 296 574 q 325 480 313 520 q 343 407 336 439 q 354 346 351 374 q 357 289 357 318 q 335 203 357 244 q 274 132 313 163 q 179 83 234 101 q 56 65 123 65 l 0 65 q -47 73 -24 65 l -47 195 l 0 195 l 56 195 q 136 203 100 195 q 197 224 172 211 q 236 254 222 237 q 250 289 250 271 m 355 850 q 287 837 318 844 q 219 819 256 831 q 136 787 183 807 q 22 734 90 767 l -8 814 q 44 840 20 829 q 90 861 68 852 q 47 908 64 882 q 31 967 31 935 q 46 1027 31 998 q 85 1080 62 1057 q 135 1118 108 1103 q 185 1132 162 1132 q 232 1126 212 1132 q 268 1110 252 1120 q 297 1086 283 1100 q 323 1057 310 1073 l 272 1000 q 256 1017 264 1009 q 238 1031 248 1025 q 216 1040 229 1037 q 185 1044 203 1044 q 157 1037 172 1044 q 130 1020 142 1030 q 109 995 117 1009 q 100 967 100 981 q 126 933 100 949 q 189 901 151 916 q 269 923 232 916 q 342 938 306 930 l 355 850 z "},"ﺌ":{"ha":477,"x_min":-47,"x_max":477,"o":"m 477 65 q 390 70 428 65 q 322 84 351 75 q 271 107 292 94 q 235 139 250 121 q 150 84 202 103 q 24 65 98 65 l 0 65 q -47 73 -24 65 l -47 195 l 0 195 l 24 195 q 150 226 109 195 q 190 307 190 256 l 190 457 l 294 457 l 294 307 q 301 260 294 281 q 328 225 308 239 q 384 203 348 211 q 477 195 419 195 l 477 65 m 355 722 q 287 709 318 715 q 219 691 256 703 q 136 659 183 679 q 22 606 90 639 l -8 686 q 44 712 20 701 q 90 733 68 724 q 47 780 64 754 q 31 839 31 806 q 46 899 31 869 q 85 952 62 929 q 135 989 108 975 q 185 1004 162 1004 q 232 998 212 1004 q 268 982 252 992 q 297 958 283 972 q 323 929 310 945 l 272 872 q 256 889 264 881 q 238 903 248 897 q 216 912 229 909 q 185 916 203 916 q 157 909 172 916 q 130 891 142 902 q 109 867 117 881 q 100 839 100 853 q 126 805 100 821 q 189 773 151 788 q 269 794 232 787 q 342 810 306 802 l 355 722 z "},"ﺏ":{"ha":1497,"x_min":92,"x_max":1411,"o":"m 199 312 q 227 248 199 275 q 304 203 255 220 q 419 178 353 186 q 562 170 486 170 q 692 174 627 170 q 821 186 758 178 q 944 203 884 193 q 1056 222 1003 212 q 1153 243 1109 233 q 1231 262 1198 254 q 1287 282 1270 273 q 1305 302 1305 292 q 1289 414 1305 347 q 1242 578 1273 480 l 1351 587 q 1379 493 1368 534 q 1398 420 1391 453 q 1408 360 1405 388 q 1411 302 1411 332 q 1401 238 1411 264 q 1373 193 1392 212 q 1325 162 1354 175 q 1259 140 1297 150 q 1176 118 1223 130 q 1073 96 1128 107 q 955 75 1017 85 q 827 57 892 64 q 694 44 762 49 q 562 39 627 39 q 378 55 464 39 q 229 104 292 71 q 129 189 165 138 q 92 312 92 241 q 98 378 92 342 q 113 450 104 413 q 132 522 121 486 q 154 590 143 558 l 258 567 q 238 502 249 537 q 219 433 228 467 q 204 367 210 398 q 199 312 199 335 m 784 -248 l 648 -248 l 648 -113 l 784 -113 l 784 -248 z "},"ﺐ":{"ha":1586,"x_min":92,"x_max":1586,"o":"m 92 312 q 98 378 92 342 q 113 450 104 413 q 132 522 121 486 q 154 590 143 558 l 258 567 q 238 502 249 537 q 219 433 228 467 q 204 367 210 398 q 199 312 199 335 q 227 248 199 275 q 304 203 255 220 q 419 178 353 186 q 562 170 486 170 q 757 178 661 170 q 940 201 854 186 q 1096 233 1025 215 q 1212 272 1166 252 q 1254 303 1236 283 q 1284 349 1271 323 q 1306 403 1297 375 q 1324 457 1316 431 l 1335 494 l 1428 457 q 1406 380 1414 410 q 1394 333 1398 351 q 1389 305 1390 315 q 1388 288 1388 295 q 1397 251 1388 268 q 1428 222 1406 234 q 1489 202 1451 210 q 1586 195 1527 195 l 1586 65 q 1476 74 1523 65 q 1395 98 1429 82 q 1338 135 1360 113 q 1303 182 1316 156 q 1239 146 1280 164 q 1141 113 1197 129 q 1017 83 1084 97 q 874 60 949 70 q 720 45 800 50 q 562 39 641 39 q 378 55 464 39 q 229 104 292 71 q 129 189 165 138 q 92 312 92 241 m 784 -248 l 648 -248 l 648 -113 l 784 -113 l 784 -248 z "},"ﺑ":{"ha":441,"x_min":-47,"x_max":357,"o":"m 250 289 q 234 400 250 334 q 188 564 218 467 l 296 574 q 325 480 313 520 q 343 407 336 439 q 354 346 351 374 q 357 289 357 318 q 335 203 357 244 q 274 132 313 163 q 179 83 234 101 q 56 65 123 65 l 0 65 q -47 73 -24 65 l -47 195 l 0 195 l 56 195 q 136 203 100 195 q 197 224 172 211 q 236 254 222 237 q 250 289 250 271 m 241 -248 l 106 -248 l 106 -113 l 241 -113 l 241 -248 z "},"ﺒ":{"ha":477,"x_min":-47,"x_max":477,"o":"m 477 65 q 390 70 428 65 q 322 84 351 75 q 271 107 292 94 q 235 139 250 121 q 150 84 202 103 q 24 65 98 65 l 0 65 q -47 73 -24 65 l -47 195 l 0 195 l 24 195 q 150 226 109 195 q 190 307 190 256 l 190 457 l 294 457 l 294 307 q 301 260 294 281 q 328 225 308 239 q 384 203 348 211 q 477 195 419 195 l 477 65 m 241 -248 l 106 -248 l 106 -113 l 241 -113 l 241 -248 z "},"ﺓ":{"ha":743,"x_min":81,"x_max":672,"o":"m 296 674 q 375 639 333 661 q 459 590 418 618 q 539 529 501 563 q 607 458 578 496 q 654 379 637 420 q 672 294 672 338 q 657 230 672 261 q 615 172 642 199 q 555 122 589 145 q 483 83 521 100 q 404 58 444 67 q 328 49 364 49 q 230 66 275 49 q 152 112 185 83 q 100 182 119 142 q 81 270 81 222 q 93 343 81 304 q 122 424 104 383 q 163 504 140 464 q 211 577 186 543 q 257 636 235 610 q 296 674 279 661 m 317 528 q 272 470 295 503 q 230 402 249 437 q 198 332 210 367 q 186 270 186 298 q 197 234 186 250 q 227 205 208 217 q 272 186 245 193 q 328 179 298 179 q 408 188 366 179 q 486 213 450 197 q 545 250 522 229 q 568 294 568 271 q 545 360 568 327 q 485 425 522 394 q 404 482 449 455 q 317 528 359 509 m 256 783 l 121 783 l 121 918 l 256 918 l 256 783 m 456 783 l 321 783 l 321 918 l 456 918 l 456 783 z "},"ﺔ":{"ha":792,"x_min":99,"x_max":792,"o":"m 792 65 q 712 68 751 65 q 637 88 672 72 q 573 137 602 104 q 522 229 543 170 l 503 142 q 412 148 459 144 q 320 157 365 151 q 235 176 275 164 q 164 209 195 189 q 117 259 134 229 q 99 331 99 289 q 123 441 99 389 q 190 537 147 494 q 290 616 232 581 q 417 675 349 650 l 395 774 l 496 802 l 608 310 q 636 244 618 267 q 680 210 655 220 q 733 197 704 199 q 792 195 762 195 l 792 65 m 446 549 q 349 507 393 530 q 272 455 304 483 q 222 396 240 427 q 203 331 203 364 q 231 303 203 314 q 301 287 258 293 q 399 278 345 281 q 509 273 454 275 l 446 549 m 399 898 l 263 898 l 263 1034 l 399 1034 l 399 898 m 599 898 l 463 898 l 463 1034 l 599 1034 l 599 898 z "},"ﺕ":{"ha":1497,"x_min":92,"x_max":1411,"o":"m 199 312 q 227 248 199 275 q 304 203 255 220 q 419 178 353 186 q 562 170 486 170 q 692 174 627 170 q 821 186 758 178 q 944 203 884 193 q 1056 222 1003 212 q 1153 243 1109 233 q 1231 262 1198 254 q 1287 282 1270 273 q 1305 302 1305 292 q 1289 414 1305 347 q 1242 578 1273 480 l 1351 587 q 1379 493 1368 534 q 1398 420 1391 453 q 1408 360 1405 388 q 1411 302 1411 332 q 1401 238 1411 264 q 1373 193 1392 212 q 1325 162 1354 175 q 1259 140 1297 150 q 1176 118 1223 130 q 1073 96 1128 107 q 955 75 1017 85 q 827 57 892 64 q 694 44 762 49 q 562 39 627 39 q 378 55 464 39 q 229 104 292 71 q 129 189 165 138 q 92 312 92 241 q 98 378 92 342 q 113 450 104 413 q 132 522 121 486 q 154 590 143 558 l 258 567 q 238 502 249 537 q 219 433 228 467 q 204 367 210 398 q 199 312 199 335 m 705 654 l 569 654 l 569 790 l 705 790 l 705 654 m 905 654 l 769 654 l 769 790 l 905 790 l 905 654 z "},"ﺖ":{"ha":1586,"x_min":92,"x_max":1586,"o":"m 92 312 q 98 378 92 342 q 113 450 104 413 q 132 522 121 486 q 154 590 143 558 l 258 567 q 238 502 249 537 q 219 433 228 467 q 204 367 210 398 q 199 312 199 335 q 227 248 199 275 q 304 203 255 220 q 419 178 353 186 q 562 170 486 170 q 757 178 661 170 q 940 201 854 186 q 1096 233 1025 215 q 1212 272 1166 252 q 1254 303 1236 283 q 1284 349 1271 323 q 1306 403 1297 375 q 1324 457 1316 431 l 1335 494 l 1428 457 q 1406 380 1414 410 q 1394 333 1398 351 q 1389 305 1390 315 q 1388 288 1388 295 q 1397 251 1388 268 q 1428 222 1406 234 q 1489 202 1451 210 q 1586 195 1527 195 l 1586 65 q 1476 74 1523 65 q 1395 98 1429 82 q 1338 135 1360 113 q 1303 182 1316 156 q 1239 146 1280 164 q 1141 113 1197 129 q 1017 83 1084 97 q 874 60 949 70 q 720 45 800 50 q 562 39 641 39 q 378 55 464 39 q 229 104 292 71 q 129 189 165 138 q 92 312 92 241 m 759 654 l 623 654 l 623 790 l 759 790 l 759 654 m 959 654 l 823 654 l 823 790 l 959 790 l 959 654 z "},"ﺗ":{"ha":477,"x_min":-47,"x_max":357,"o":"m 250 289 q 234 400 250 334 q 188 564 218 467 l 296 574 q 325 480 313 520 q 343 407 336 439 q 354 346 351 374 q 357 289 357 318 q 335 203 357 244 q 274 132 313 163 q 179 83 234 101 q 56 65 123 65 l 0 65 q -47 73 -24 65 l -47 195 l 0 195 l 56 195 q 136 203 100 195 q 197 224 172 211 q 236 254 222 237 q 250 289 250 271 m 141 783 l 5 783 l 5 918 l 141 918 l 141 783 m 341 783 l 205 783 l 205 918 l 341 918 l 341 783 z "},"ﺘ":{"ha":477,"x_min":-47,"x_max":477,"o":"m 477 65 q 390 70 428 65 q 322 84 351 75 q 271 107 292 94 q 235 139 250 121 q 150 84 202 103 q 24 65 98 65 l 0 65 q -47 73 -24 65 l -47 195 l 0 195 l 24 195 q 150 226 109 195 q 190 307 190 256 l 190 457 l 294 457 l 294 307 q 301 260 294 281 q 328 225 308 239 q 384 203 348 211 q 477 195 419 195 l 477 65 m 141 654 l 5 654 l 5 790 l 141 790 l 141 654 m 341 654 l 205 654 l 205 790 l 341 790 l 341 654 z "},"ﺙ":{"ha":1497,"x_min":92,"x_max":1411,"o":"m 199 312 q 227 248 199 275 q 304 203 255 220 q 419 178 353 186 q 562 170 486 170 q 692 174 627 170 q 821 186 758 178 q 944 203 884 193 q 1056 222 1003 212 q 1153 243 1109 233 q 1231 262 1198 254 q 1287 282 1270 273 q 1305 302 1305 292 q 1289 414 1305 347 q 1242 578 1273 480 l 1351 587 q 1379 493 1368 534 q 1398 420 1391 453 q 1408 360 1405 388 q 1411 302 1411 332 q 1401 238 1411 264 q 1373 193 1392 212 q 1325 162 1354 175 q 1259 140 1297 150 q 1176 118 1223 130 q 1073 96 1128 107 q 955 75 1017 85 q 827 57 892 64 q 694 44 762 49 q 562 39 627 39 q 378 55 464 39 q 229 104 292 71 q 129 189 165 138 q 92 312 92 241 q 98 378 92 342 q 113 450 104 413 q 132 522 121 486 q 154 590 143 558 l 258 567 q 238 502 249 537 q 219 433 228 467 q 204 367 210 398 q 199 312 199 335 m 699 654 l 564 654 l 564 790 l 699 790 l 699 654 m 910 654 l 774 654 l 774 790 l 910 790 l 910 654 m 804 860 l 669 860 l 669 996 l 804 996 l 804 860 z "},"ﺚ":{"ha":1586,"x_min":92,"x_max":1586,"o":"m 92 312 q 98 378 92 342 q 113 450 104 413 q 132 522 121 486 q 154 590 143 558 l 258 567 q 238 502 249 537 q 219 433 228 467 q 204 367 210 398 q 199 312 199 335 q 227 248 199 275 q 304 203 255 220 q 419 178 353 186 q 562 170 486 170 q 757 178 661 170 q 940 201 854 186 q 1096 233 1025 215 q 1212 272 1166 252 q 1254 303 1236 283 q 1284 349 1271 323 q 1306 403 1297 375 q 1324 457 1316 431 l 1335 494 l 1428 457 q 1406 380 1414 410 q 1394 333 1398 351 q 1389 305 1390 315 q 1388 288 1388 295 q 1397 251 1388 268 q 1428 222 1406 234 q 1489 202 1451 210 q 1586 195 1527 195 l 1586 65 q 1476 74 1523 65 q 1395 98 1429 82 q 1338 135 1360 113 q 1303 182 1316 156 q 1239 146 1280 164 q 1141 113 1197 129 q 1017 83 1084 97 q 874 60 949 70 q 720 45 800 50 q 562 39 641 39 q 378 55 464 39 q 229 104 292 71 q 129 189 165 138 q 92 312 92 241 m 753 654 l 618 654 l 618 790 l 753 790 l 753 654 m 964 654 l 829 654 l 829 790 l 964 790 l 964 654 m 859 860 l 723 860 l 723 996 l 859 996 l 859 860 z "},"ﺛ":{"ha":477,"x_min":-47,"x_max":357,"o":"m 250 289 q 234 400 250 334 q 188 564 218 467 l 296 574 q 325 480 313 520 q 343 407 336 439 q 354 346 351 374 q 357 289 357 318 q 335 203 357 244 q 274 132 313 163 q 179 83 234 101 q 56 65 123 65 l 0 65 q -47 73 -24 65 l -47 195 l 0 195 l 56 195 q 136 203 100 195 q 197 224 172 211 q 236 254 222 237 q 250 289 250 271 m 136 783 l 0 783 l 0 918 l 136 918 l 136 783 m 347 783 l 211 783 l 211 918 l 347 918 l 347 783 m 241 988 l 105 988 l 105 1124 l 241 1124 l 241 988 z "},"ﺜ":{"ha":477,"x_min":-47,"x_max":477,"o":"m 477 65 q 390 70 428 65 q 322 84 351 75 q 271 107 292 94 q 235 139 250 121 q 150 84 202 103 q 24 65 98 65 l 0 65 q -47 73 -24 65 l -47 195 l 0 195 l 24 195 q 150 226 109 195 q 190 307 190 256 l 190 457 l 294 457 l 294 307 q 301 260 294 281 q 328 225 308 239 q 384 203 348 211 q 477 195 419 195 l 477 65 m 136 654 l 0 654 l 0 790 l 136 790 l 136 654 m 347 654 l 211 654 l 211 790 l 347 790 l 347 654 m 241 860 l 105 860 l 105 996 l 241 996 l 241 860 z "},"ﺝ":{"ha":1023,"x_min":94,"x_max":912,"o":"m 884 -216 q 821 -235 859 -224 q 734 -256 783 -246 q 628 -273 686 -266 q 506 -279 571 -279 q 406 -272 456 -279 q 310 -248 356 -265 q 225 -203 264 -231 q 156 -132 185 -174 q 110 -31 127 -90 q 94 104 94 27 q 111 203 94 157 q 157 290 127 250 q 225 365 186 330 q 311 427 265 399 q 407 478 357 456 q 506 519 456 501 l 331 614 q 297 630 309 625 q 273 634 286 634 q 261 629 269 634 q 248 619 253 625 l 155 519 l 94 580 l 172 707 q 189 728 178 718 q 212 746 199 738 q 239 759 224 754 q 269 764 254 764 q 292 763 280 764 q 316 757 303 761 q 345 746 330 753 q 380 729 360 739 l 603 608 q 649 592 622 598 q 707 583 677 586 q 765 579 736 580 q 814 578 793 578 l 912 578 l 912 448 l 825 448 q 751 444 794 448 q 658 430 708 439 q 555 406 608 420 q 452 371 503 391 q 356 324 401 351 q 276 264 311 298 q 222 192 242 231 q 202 104 202 152 q 214 15 202 54 q 248 -52 227 -24 q 298 -99 269 -80 q 361 -129 328 -117 q 432 -144 395 -140 q 506 -149 469 -149 q 621 -145 567 -149 q 720 -135 675 -141 q 800 -121 765 -129 q 857 -106 835 -114 l 884 -216 m 675 64 l 540 64 l 540 199 l 675 199 l 675 64 z "},"ﺞ":{"ha":1023,"x_min":94,"x_max":1023,"o":"m 884 -216 q 821 -235 859 -224 q 734 -256 783 -246 q 628 -273 686 -266 q 506 -279 571 -279 q 406 -272 456 -279 q 310 -248 356 -265 q 225 -203 264 -231 q 156 -132 185 -174 q 110 -31 127 -90 q 94 104 94 27 q 111 203 94 157 q 157 290 127 250 q 225 365 186 330 q 311 427 265 399 q 407 478 357 456 q 506 519 456 501 l 331 614 q 297 630 309 625 q 273 634 286 634 q 261 629 269 634 q 248 619 253 625 l 155 519 l 94 580 l 172 707 q 189 728 178 718 q 212 746 199 738 q 239 759 224 754 q 269 764 254 764 q 292 763 280 764 q 316 757 303 761 q 345 746 330 753 q 380 729 360 739 l 603 608 q 649 592 622 598 q 707 583 677 586 q 765 579 736 580 q 814 578 793 578 l 912 578 l 912 448 l 808 448 l 854 317 q 876 269 863 291 q 908 230 888 246 q 955 204 927 214 q 1023 195 983 195 l 1023 65 q 916 81 960 65 q 841 126 872 97 q 790 196 810 155 q 758 284 770 236 l 715 439 q 608 419 665 433 q 493 387 550 406 q 384 340 436 367 q 291 278 331 313 q 226 200 250 243 q 202 104 202 157 q 214 15 202 54 q 248 -52 227 -24 q 298 -99 269 -80 q 361 -129 328 -117 q 432 -144 395 -140 q 506 -149 469 -149 q 621 -145 567 -149 q 720 -135 675 -141 q 800 -121 765 -129 q 857 -106 835 -114 l 884 -216 m 594 64 l 458 64 l 458 199 l 594 199 l 594 64 z "},"ﺟ":{"ha":1023,"x_min":-47,"x_max":926,"o":"m 926 304 l 841 304 q 793 299 815 304 q 753 286 772 294 q 717 265 734 277 q 685 240 701 253 q 644 209 669 227 q 587 172 618 191 q 518 133 555 152 q 444 99 482 114 q 366 75 405 84 q 291 65 327 65 l 0 65 q -47 73 -24 65 l -47 195 l 0 195 l 291 195 q 381 211 334 195 q 472 249 428 227 q 554 295 517 271 q 614 337 591 319 q 595 346 605 340 q 577 355 585 351 l 343 492 q 310 508 322 504 q 286 512 297 512 q 266 507 277 512 q 248 494 255 502 l 160 397 l 95 460 l 178 585 q 228 628 197 613 q 286 642 259 642 q 335 634 308 642 q 394 606 361 625 l 627 469 q 669 451 647 458 q 721 440 692 444 q 788 436 750 437 q 878 435 827 435 l 926 435 l 926 304 m 404 -248 l 269 -248 l 269 -113 l 404 -113 l 404 -248 z "},"ﺠ":{"ha":1044,"x_min":-47,"x_max":1044,"o":"m 1044 65 q 910 72 963 65 q 821 97 857 79 q 763 149 785 116 q 722 235 741 182 l 711 264 q 664 228 691 248 q 603 185 636 207 q 532 141 570 163 q 454 103 494 119 q 371 76 413 86 q 287 65 329 65 l 0 65 q -47 73 -24 65 l -47 195 l 0 195 l 287 195 q 377 211 330 195 q 468 249 424 227 q 550 295 513 271 q 610 337 587 319 q 591 346 601 340 q 573 355 581 351 l 339 492 q 306 508 318 504 q 282 512 293 512 q 262 507 273 512 q 244 494 251 502 l 156 397 l 91 460 l 174 585 q 224 628 193 613 q 282 642 255 642 q 331 634 304 642 q 390 606 357 625 l 623 469 q 665 451 643 458 q 717 440 688 444 q 784 436 746 437 q 873 435 823 435 l 922 435 l 922 304 l 837 304 q 817 303 827 304 q 798 301 808 302 l 808 282 q 837 242 821 258 q 879 215 852 226 q 944 200 905 205 q 1044 195 984 195 l 1044 65 m 404 -248 l 269 -248 l 269 -113 l 404 -113 l 404 -248 z "},"ﺡ":{"ha":1023,"x_min":94,"x_max":912,"o":"m 884 -216 q 821 -235 859 -224 q 734 -256 783 -246 q 628 -273 686 -266 q 506 -279 571 -279 q 406 -272 456 -279 q 310 -248 356 -265 q 225 -203 264 -231 q 156 -132 185 -174 q 110 -31 127 -90 q 94 104 94 27 q 111 203 94 157 q 157 290 127 250 q 225 365 186 330 q 311 427 265 399 q 407 478 357 456 q 506 519 456 501 l 331 614 q 297 630 309 625 q 273 634 286 634 q 261 629 269 634 q 248 619 253 625 l 155 519 l 94 580 l 172 707 q 189 728 178 718 q 212 746 199 738 q 239 759 224 754 q 269 764 254 764 q 292 763 280 764 q 316 757 303 761 q 345 746 330 753 q 380 729 360 739 l 603 608 q 649 592 622 598 q 707 583 677 586 q 765 579 736 580 q 814 578 793 578 l 912 578 l 912 448 l 825 448 q 751 444 794 448 q 658 430 708 439 q 555 406 608 420 q 452 371 503 391 q 356 324 401 351 q 276 264 311 298 q 222 192 242 231 q 202 104 202 152 q 214 15 202 54 q 248 -52 227 -24 q 298 -99 269 -80 q 361 -129 328 -117 q 432 -144 395 -140 q 506 -149 469 -149 q 621 -145 567 -149 q 720 -135 675 -141 q 800 -121 765 -129 q 857 -106 835 -114 l 884 -216 z "},"ﺢ":{"ha":1023,"x_min":94,"x_max":1023,"o":"m 884 -216 q 821 -235 859 -224 q 734 -256 783 -246 q 628 -273 686 -266 q 506 -279 571 -279 q 406 -272 456 -279 q 310 -248 356 -265 q 225 -203 264 -231 q 156 -132 185 -174 q 110 -31 127 -90 q 94 104 94 27 q 111 203 94 157 q 157 290 127 250 q 225 365 186 330 q 311 427 265 399 q 407 478 357 456 q 506 519 456 501 l 331 614 q 297 630 309 625 q 273 634 286 634 q 261 629 269 634 q 248 619 253 625 l 155 519 l 94 580 l 172 707 q 189 728 178 718 q 212 746 199 738 q 239 759 224 754 q 269 764 254 764 q 292 763 280 764 q 316 757 303 761 q 345 746 330 753 q 380 729 360 739 l 603 608 q 649 592 622 598 q 707 583 677 586 q 765 579 736 580 q 814 578 793 578 l 912 578 l 912 448 l 808 448 l 854 317 q 876 269 863 291 q 908 230 888 246 q 955 204 927 214 q 1023 195 983 195 l 1023 65 q 916 81 960 65 q 841 126 872 97 q 790 196 810 155 q 758 284 770 236 l 715 439 q 608 419 665 433 q 493 387 550 406 q 384 340 436 367 q 291 278 331 313 q 226 200 250 243 q 202 104 202 157 q 214 15 202 54 q 248 -52 227 -24 q 298 -99 269 -80 q 361 -129 328 -117 q 432 -144 395 -140 q 506 -149 469 -149 q 621 -145 567 -149 q 720 -135 675 -141 q 800 -121 765 -129 q 857 -106 835 -114 l 884 -216 z "},"ﺣ":{"ha":1023,"x_min":-47,"x_max":926,"o":"m 926 304 l 841 304 q 793 299 815 304 q 753 286 772 294 q 717 265 734 277 q 685 240 701 253 q 644 209 669 227 q 587 172 618 191 q 518 133 555 152 q 444 99 482 114 q 366 75 405 84 q 291 65 327 65 l 0 65 q -47 73 -24 65 l -47 195 l 0 195 l 291 195 q 381 211 334 195 q 472 249 428 227 q 554 295 517 271 q 614 337 591 319 q 595 346 605 340 q 577 355 585 351 l 343 492 q 310 508 322 504 q 286 512 297 512 q 266 507 277 512 q 248 494 255 502 l 160 397 l 95 460 l 178 585 q 228 628 197 613 q 286 642 259 642 q 335 634 308 642 q 394 606 361 625 l 627 469 q 669 451 647 458 q 721 440 692 444 q 788 436 750 437 q 878 435 827 435 l 926 435 l 926 304 z "},"ﺤ":{"ha":1044,"x_min":-47,"x_max":1044,"o":"m 1044 65 q 910 72 963 65 q 821 97 857 79 q 763 149 785 116 q 722 235 741 182 l 711 264 q 664 228 691 248 q 603 185 636 207 q 532 141 570 163 q 454 103 494 119 q 371 76 413 86 q 287 65 329 65 l 0 65 q -47 73 -24 65 l -47 195 l 0 195 l 287 195 q 377 211 330 195 q 468 249 424 227 q 550 295 513 271 q 610 337 587 319 q 591 346 601 340 q 573 355 581 351 l 339 492 q 306 508 318 504 q 282 512 293 512 q 262 507 273 512 q 244 494 251 502 l 156 397 l 91 460 l 174 585 q 224 628 193 613 q 282 642 255 642 q 331 634 304 642 q 390 606 357 625 l 623 469 q 665 451 643 458 q 717 440 688 444 q 784 436 746 437 q 873 435 823 435 l 922 435 l 922 304 l 837 304 q 817 303 827 304 q 798 301 808 302 l 808 282 q 837 242 821 258 q 879 215 852 226 q 944 200 905 205 q 1044 195 984 195 l 1044 65 z "},"ﺥ":{"ha":1023,"x_min":94,"x_max":912,"o":"m 884 -216 q 821 -235 859 -224 q 734 -256 783 -246 q 628 -273 686 -266 q 506 -279 571 -279 q 406 -272 456 -279 q 310 -248 356 -265 q 225 -203 264 -231 q 156 -132 185 -174 q 110 -31 127 -90 q 94 104 94 27 q 111 203 94 157 q 157 290 127 250 q 225 365 186 330 q 311 427 265 399 q 407 478 357 456 q 506 519 456 501 l 331 614 q 297 630 309 625 q 273 634 286 634 q 261 629 269 634 q 248 619 253 625 l 155 519 l 94 580 l 172 707 q 189 728 178 718 q 212 746 199 738 q 239 759 224 754 q 269 764 254 764 q 292 763 280 764 q 316 757 303 761 q 345 746 330 753 q 380 729 360 739 l 603 608 q 649 592 622 598 q 707 583 677 586 q 765 579 736 580 q 814 578 793 578 l 912 578 l 912 448 l 825 448 q 751 444 794 448 q 658 430 708 439 q 555 406 608 420 q 452 371 503 391 q 356 324 401 351 q 276 264 311 298 q 222 192 242 231 q 202 104 202 152 q 214 15 202 54 q 248 -52 227 -24 q 298 -99 269 -80 q 361 -129 328 -117 q 432 -144 395 -140 q 506 -149 469 -149 q 621 -145 567 -149 q 720 -135 675 -141 q 800 -121 765 -129 q 857 -106 835 -114 l 884 -216 m 581 898 l 445 898 l 445 1034 l 581 1034 l 581 898 z "},"ﺦ":{"ha":1023,"x_min":94,"x_max":1023,"o":"m 884 -216 q 821 -235 859 -224 q 734 -256 783 -246 q 628 -273 686 -266 q 506 -279 571 -279 q 406 -272 456 -279 q 310 -248 356 -265 q 225 -203 264 -231 q 156 -132 185 -174 q 110 -31 127 -90 q 94 104 94 27 q 111 203 94 157 q 157 290 127 250 q 225 365 186 330 q 311 427 265 399 q 407 478 357 456 q 506 519 456 501 l 331 614 q 297 630 309 625 q 273 634 286 634 q 261 629 269 634 q 248 619 253 625 l 155 519 l 94 580 l 172 707 q 189 728 178 718 q 212 746 199 738 q 239 759 224 754 q 269 764 254 764 q 292 763 280 764 q 316 757 303 761 q 345 746 330 753 q 380 729 360 739 l 603 608 q 649 592 622 598 q 707 583 677 586 q 765 579 736 580 q 814 578 793 578 l 912 578 l 912 448 l 808 448 l 854 317 q 876 269 863 291 q 908 230 888 246 q 955 204 927 214 q 1023 195 983 195 l 1023 65 q 916 81 960 65 q 841 126 872 97 q 790 196 810 155 q 758 284 770 236 l 715 439 q 608 419 665 433 q 493 387 550 406 q 384 340 436 367 q 291 278 331 313 q 226 200 250 243 q 202 104 202 157 q 214 15 202 54 q 248 -52 227 -24 q 298 -99 269 -80 q 361 -129 328 -117 q 432 -144 395 -140 q 506 -149 469 -149 q 621 -145 567 -149 q 720 -135 675 -141 q 800 -121 765 -129 q 857 -106 835 -114 l 884 -216 m 581 898 l 445 898 l 445 1034 l 581 1034 l 581 898 z "},"ﺧ":{"ha":1023,"x_min":-47,"x_max":926,"o":"m 926 304 l 841 304 q 793 299 815 304 q 753 286 772 294 q 717 265 734 277 q 685 240 701 253 q 644 209 669 227 q 587 172 618 191 q 518 133 555 152 q 444 99 482 114 q 366 75 405 84 q 291 65 327 65 l 0 65 q -47 73 -24 65 l -47 195 l 0 195 l 291 195 q 381 211 334 195 q 472 249 428 227 q 554 295 517 271 q 614 337 591 319 q 595 346 605 340 q 577 355 585 351 l 343 492 q 310 508 322 504 q 286 512 297 512 q 266 507 277 512 q 248 494 255 502 l 160 397 l 95 460 l 178 585 q 228 628 197 613 q 286 642 259 642 q 335 634 308 642 q 394 606 361 625 l 627 469 q 669 451 647 458 q 721 440 692 444 q 788 436 750 437 q 878 435 827 435 l 926 435 l 926 304 m 540 844 l 404 844 l 404 979 l 540 979 l 540 844 z "},"ﺨ":{"ha":1044,"x_min":-47,"x_max":1044,"o":"m 1044 65 q 910 72 963 65 q 821 97 857 79 q 763 149 785 116 q 722 235 741 182 l 711 264 q 664 228 691 248 q 603 185 636 207 q 532 141 570 163 q 454 103 494 119 q 371 76 413 86 q 287 65 329 65 l 0 65 q -47 73 -24 65 l -47 195 l 0 195 l 287 195 q 377 211 330 195 q 468 249 424 227 q 550 295 513 271 q 610 337 587 319 q 591 346 601 340 q 573 355 581 351 l 339 492 q 306 508 318 504 q 282 512 293 512 q 262 507 273 512 q 244 494 251 502 l 156 397 l 91 460 l 174 585 q 224 628 193 613 q 282 642 255 642 q 331 634 304 642 q 390 606 357 625 l 623 469 q 665 451 643 458 q 717 440 688 444 q 784 436 746 437 q 873 435 823 435 l 922 435 l 922 304 l 837 304 q 817 303 827 304 q 798 301 808 302 l 808 282 q 837 242 821 258 q 879 215 852 226 q 944 200 905 205 q 1044 195 984 195 l 1044 65 m 540 844 l 404 844 l 404 979 l 540 979 l 540 844 z "},"ﺩ":{"ha":781,"x_min":127,"x_max":703,"o":"m 178 195 q 298 172 218 172 q 360 174 327 172 q 427 182 393 177 q 491 195 460 187 q 546 211 522 202 q 585 230 570 220 q 599 252 599 240 q 590 334 599 294 q 567 411 581 374 q 533 480 552 448 q 496 539 515 512 q 393 656 450 603 l 460 757 q 581 615 528 694 q 626 541 604 581 q 665 455 648 501 q 693 358 682 410 q 703 252 703 307 q 684 194 703 222 q 632 143 665 167 q 558 101 600 120 q 472 68 517 81 q 381 47 427 55 q 298 40 336 40 q 201 51 243 40 q 127 81 159 62 l 178 195 z "},"ﺪ":{"ha":915,"x_min":127,"x_max":915,"o":"m 915 65 q 840 69 873 65 q 780 84 807 73 q 729 112 752 94 q 684 157 706 130 q 604 114 651 135 q 504 77 557 93 q 398 50 452 60 q 298 40 345 40 q 201 51 243 40 q 127 81 159 62 l 178 195 q 298 172 218 172 q 384 179 338 172 q 474 199 429 187 q 557 228 518 212 q 623 260 596 243 q 565 377 592 321 q 512 486 537 433 q 462 589 486 538 q 412 690 437 640 l 506 748 l 707 335 q 748 265 728 292 q 790 222 767 238 q 843 201 814 207 q 915 195 873 195 l 915 65 z "},"ﺫ":{"ha":781,"x_min":127,"x_max":703,"o":"m 178 195 q 298 172 218 172 q 360 174 327 172 q 427 182 393 177 q 491 195 460 187 q 546 211 522 202 q 585 230 570 220 q 599 252 599 240 q 590 334 599 294 q 567 411 581 374 q 533 480 552 448 q 496 539 515 512 q 393 656 450 603 l 460 757 q 581 615 528 694 q 626 541 604 581 q 665 455 648 501 q 693 358 682 410 q 703 252 703 307 q 684 194 703 222 q 632 143 665 167 q 558 101 600 120 q 472 68 517 81 q 381 47 427 55 q 298 40 336 40 q 201 51 243 40 q 127 81 159 62 l 178 195 m 406 898 l 270 898 l 270 1034 l 406 1034 l 406 898 z "},"ﺬ":{"ha":915,"x_min":127,"x_max":915,"o":"m 915 65 q 840 69 873 65 q 780 84 807 73 q 729 112 752 94 q 684 157 706 130 q 604 114 651 135 q 504 77 557 93 q 398 50 452 60 q 298 40 345 40 q 201 51 243 40 q 127 81 159 62 l 178 195 q 298 172 218 172 q 384 179 338 172 q 474 199 429 187 q 557 228 518 212 q 623 260 596 243 q 565 377 592 321 q 512 486 537 433 q 462 589 486 538 q 412 690 437 640 l 506 748 l 707 335 q 748 265 728 292 q 790 222 767 238 q 843 201 814 207 q 915 195 873 195 l 915 65 m 406 898 l 270 898 l 270 1034 l 406 1034 l 406 898 z "},"ﺭ":{"ha":731,"x_min":56,"x_max":638,"o":"m 56 -187 q 174 -141 115 -166 q 285 -88 232 -116 q 382 -30 338 -60 q 460 34 427 1 q 511 101 492 67 q 530 172 530 136 q 523 240 530 203 q 505 313 516 277 q 480 378 494 348 q 452 427 467 408 l 534 507 q 571 444 553 484 q 604 359 589 405 q 629 264 619 313 q 638 172 638 215 q 617 70 638 119 q 558 -25 595 20 q 468 -112 520 -71 q 356 -189 416 -153 q 227 -256 295 -225 q 90 -311 159 -287 l 56 -187 z "},"ﺮ":{"ha":852,"x_min":58,"x_max":852,"o":"m 852 65 q 722 79 772 65 q 640 117 673 92 q 601 21 629 66 q 531 -63 572 -24 q 438 -135 490 -102 q 330 -199 387 -169 q 216 -255 274 -229 q 102 -305 157 -281 l 58 -189 q 169 -137 112 -163 q 279 -83 226 -111 q 381 -25 333 -56 q 464 38 429 5 q 521 111 500 72 q 542 194 542 149 q 538 262 542 228 q 529 327 535 296 q 516 387 524 359 q 499 439 508 416 l 600 478 l 644 326 q 663 274 652 298 q 695 233 673 250 q 754 205 717 215 q 852 195 791 195 l 852 65 z "},"ﺯ":{"ha":731,"x_min":56,"x_max":638,"o":"m 56 -187 q 174 -141 115 -166 q 285 -88 232 -116 q 382 -30 338 -60 q 460 34 427 1 q 511 101 492 67 q 530 172 530 136 q 523 240 530 203 q 505 313 516 277 q 480 378 494 348 q 452 427 467 408 l 534 507 q 571 444 553 484 q 604 359 589 405 q 629 264 619 313 q 638 172 638 215 q 617 70 638 119 q 558 -25 595 20 q 468 -112 520 -71 q 356 -189 416 -153 q 227 -256 295 -225 q 90 -311 159 -287 l 56 -187 m 460 729 l 324 729 l 324 865 l 460 865 l 460 729 z "},"ﺰ":{"ha":852,"x_min":58,"x_max":852,"o":"m 852 65 q 722 79 772 65 q 640 117 673 92 q 601 21 629 66 q 531 -63 572 -24 q 438 -135 490 -102 q 330 -199 387 -169 q 216 -255 274 -229 q 102 -305 157 -281 l 58 -189 q 169 -137 112 -163 q 279 -83 226 -111 q 381 -25 333 -56 q 464 38 429 5 q 521 111 500 72 q 542 194 542 149 q 538 262 542 228 q 529 327 535 296 q 516 387 524 359 q 499 439 508 416 l 600 478 l 644 326 q 663 274 652 298 q 695 233 673 250 q 754 205 717 215 q 852 195 791 195 l 852 65 m 460 729 l 324 729 l 324 865 l 460 865 l 460 729 z "},"ﺱ":{"ha":1739,"x_min":79,"x_max":1655,"o":"m 1655 289 q 1634 203 1655 244 q 1577 132 1613 163 q 1496 83 1542 102 q 1400 65 1450 65 q 1352 70 1376 65 q 1304 85 1327 75 q 1260 111 1280 95 q 1223 150 1240 127 q 1153 89 1195 112 q 1058 65 1112 65 q 999 68 1025 65 q 951 82 973 71 l 951 74 q 927 -38 951 12 q 864 -123 904 -87 q 769 -186 823 -160 q 651 -228 714 -212 q 521 -251 589 -244 q 387 -258 454 -258 q 253 -239 311 -258 q 157 -185 195 -220 q 98 -104 118 -151 q 79 -1 79 -57 q 90 95 79 47 q 119 186 102 142 q 156 267 136 229 q 191 333 175 304 l 277 293 q 247 237 263 268 q 218 170 231 207 q 196 91 205 134 q 187 -1 187 48 q 199 -52 187 -28 q 237 -92 212 -75 q 299 -119 262 -109 q 387 -128 336 -128 q 496 -124 441 -128 q 602 -110 551 -119 q 697 -84 653 -100 q 774 -46 742 -68 q 826 6 807 -24 q 845 74 845 36 q 837 141 845 109 q 814 204 828 174 q 783 263 800 235 q 749 317 766 292 l 840 384 l 884 315 q 916 271 899 292 q 953 232 932 249 q 999 205 973 216 q 1058 195 1025 195 q 1111 208 1088 195 q 1149 238 1133 220 q 1173 274 1164 255 q 1181 307 1181 293 l 1181 406 l 1285 406 l 1285 300 q 1296 251 1285 271 q 1323 219 1306 231 q 1360 201 1339 206 q 1400 195 1380 195 q 1456 203 1430 195 q 1503 223 1483 210 q 1536 253 1524 236 q 1548 289 1548 270 q 1532 400 1548 334 q 1486 564 1516 467 l 1594 574 q 1623 480 1611 520 q 1642 407 1634 439 q 1652 346 1649 374 q 1655 289 1655 318 z "},"ﺲ":{"ha":1815,"x_min":79,"x_max":1815,"o":"m 1815 65 l 1743 65 q 1694 70 1718 65 q 1646 86 1669 75 q 1602 114 1623 97 q 1566 153 1581 130 q 1496 90 1537 115 q 1400 65 1454 65 q 1352 70 1376 65 q 1304 85 1327 75 q 1260 111 1280 95 q 1223 150 1240 127 q 1153 89 1195 112 q 1058 65 1112 65 q 999 68 1025 65 q 951 82 973 71 l 951 74 q 927 -38 951 12 q 864 -123 904 -87 q 769 -186 823 -160 q 651 -228 714 -212 q 521 -251 589 -244 q 387 -258 454 -258 q 253 -239 311 -258 q 157 -185 195 -220 q 98 -104 118 -151 q 79 -1 79 -57 q 90 95 79 47 q 119 186 102 142 q 156 267 136 229 q 191 333 175 304 l 277 293 q 247 237 263 268 q 218 170 231 207 q 196 91 205 134 q 187 -1 187 48 q 199 -52 187 -28 q 237 -92 212 -75 q 299 -119 262 -109 q 387 -128 336 -128 q 496 -124 441 -128 q 602 -110 551 -119 q 697 -84 653 -100 q 774 -46 742 -68 q 826 6 807 -24 q 845 74 845 36 q 837 141 845 109 q 814 204 828 174 q 783 263 800 235 q 749 317 766 292 l 840 384 l 884 315 q 916 271 899 292 q 953 232 932 249 q 999 205 973 216 q 1058 195 1025 195 q 1111 208 1088 195 q 1149 238 1133 220 q 1173 274 1164 255 q 1181 307 1181 293 l 1181 406 l 1285 406 l 1285 300 q 1296 251 1285 271 q 1323 219 1306 231 q 1360 201 1339 206 q 1400 195 1380 195 q 1453 208 1430 195 q 1491 239 1476 221 q 1515 277 1507 258 q 1523 310 1523 296 l 1523 406 l 1628 406 l 1628 304 q 1638 254 1628 275 q 1665 220 1649 233 q 1702 201 1682 208 q 1743 195 1723 195 l 1815 195 l 1815 65 z "},"ﺳ":{"ha":1291,"x_min":-47,"x_max":1206,"o":"m 1099 289 q 1083 400 1099 334 q 1037 564 1067 467 l 1145 574 q 1174 480 1162 520 q 1193 407 1185 439 q 1203 346 1200 374 q 1206 289 1206 318 q 1185 203 1206 244 q 1129 132 1164 163 q 1048 83 1094 102 q 952 65 1002 65 q 903 70 928 65 q 856 85 879 75 q 812 111 832 95 q 775 150 791 127 q 705 89 747 112 q 610 65 663 65 q 561 69 585 65 q 513 83 536 73 q 469 108 490 92 q 433 146 449 123 q 398 113 418 127 q 354 87 378 98 q 304 71 331 77 q 252 65 278 65 l 0 65 q -47 73 -24 65 l -47 195 l 0 195 l 252 195 q 307 207 281 195 q 351 236 332 219 q 379 271 369 253 q 390 303 390 290 l 390 406 l 494 406 l 494 297 q 505 248 494 268 q 532 217 515 229 q 569 200 549 205 q 610 195 589 195 q 662 208 640 195 q 701 238 685 220 q 724 274 716 255 q 732 307 732 293 l 732 406 l 837 406 l 837 300 q 847 251 837 271 q 874 219 858 231 q 911 201 891 206 q 952 195 932 195 q 1008 203 981 195 q 1055 223 1034 210 q 1087 253 1075 236 q 1099 289 1099 270 z "},"ﺴ":{"ha":1367,"x_min":-47,"x_max":1367,"o":"m 1367 65 l 1295 65 q 1245 70 1270 65 q 1198 86 1221 75 q 1154 114 1175 97 q 1118 153 1133 130 q 1047 90 1089 115 q 952 65 1006 65 q 903 70 928 65 q 856 85 879 75 q 812 111 832 95 q 775 150 791 127 q 705 89 747 112 q 610 65 663 65 q 561 69 585 65 q 513 83 536 73 q 469 108 490 92 q 433 146 449 123 q 398 113 418 127 q 354 87 378 98 q 304 71 331 77 q 252 65 278 65 l 0 65 q -47 73 -24 65 l -47 195 l 0 195 l 252 195 q 307 207 281 195 q 351 236 332 219 q 379 271 369 253 q 390 303 390 290 l 390 406 l 494 406 l 494 297 q 505 248 494 268 q 532 217 515 229 q 569 200 549 205 q 610 195 589 195 q 662 208 640 195 q 701 238 685 220 q 724 274 716 255 q 732 307 732 293 l 732 406 l 837 406 l 837 300 q 847 251 837 271 q 874 219 858 231 q 911 201 891 206 q 952 195 932 195 q 1005 208 982 195 q 1043 239 1027 221 q 1067 277 1059 258 q 1075 310 1075 296 l 1075 406 l 1179 406 l 1179 304 q 1190 254 1179 275 q 1217 220 1200 233 q 1254 201 1234 208 q 1295 195 1274 195 l 1367 195 l 1367 65 z "},"ﺵ":{"ha":1739,"x_min":79,"x_max":1655,"o":"m 1655 289 q 1634 203 1655 244 q 1577 132 1613 163 q 1496 83 1542 102 q 1400 65 1450 65 q 1352 70 1376 65 q 1304 85 1327 75 q 1260 111 1280 95 q 1223 150 1240 127 q 1153 89 1195 112 q 1058 65 1112 65 q 999 68 1025 65 q 951 82 973 71 l 951 74 q 927 -38 951 12 q 864 -123 904 -87 q 769 -186 823 -160 q 651 -228 714 -212 q 521 -251 589 -244 q 387 -258 454 -258 q 253 -239 311 -258 q 157 -185 195 -220 q 98 -104 118 -151 q 79 -1 79 -57 q 90 95 79 47 q 119 186 102 142 q 156 267 136 229 q 191 333 175 304 l 277 293 q 247 237 263 268 q 218 170 231 207 q 196 91 205 134 q 187 -1 187 48 q 199 -52 187 -28 q 237 -92 212 -75 q 299 -119 262 -109 q 387 -128 336 -128 q 496 -124 441 -128 q 602 -110 551 -119 q 697 -84 653 -100 q 774 -46 742 -68 q 826 6 807 -24 q 845 74 845 36 q 837 141 845 109 q 814 204 828 174 q 783 263 800 235 q 749 317 766 292 l 840 384 l 884 315 q 916 271 899 292 q 953 232 932 249 q 999 205 973 216 q 1058 195 1025 195 q 1111 208 1088 195 q 1149 238 1133 220 q 1173 274 1164 255 q 1181 307 1181 293 l 1181 406 l 1285 406 l 1285 300 q 1296 251 1285 271 q 1323 219 1306 231 q 1360 201 1339 206 q 1400 195 1380 195 q 1456 203 1430 195 q 1503 223 1483 210 q 1536 253 1524 236 q 1548 289 1548 270 q 1532 400 1548 334 q 1486 564 1516 467 l 1594 574 q 1623 480 1611 520 q 1642 407 1634 439 q 1652 346 1649 374 q 1655 289 1655 318 m 1153 654 l 1017 654 l 1017 790 l 1153 790 l 1153 654 m 1364 654 l 1228 654 l 1228 790 l 1364 790 l 1364 654 m 1258 860 l 1122 860 l 1122 996 l 1258 996 l 1258 860 z "},"ﺶ":{"ha":1815,"x_min":79,"x_max":1815,"o":"m 1815 65 l 1743 65 q 1694 70 1718 65 q 1646 86 1669 75 q 1602 114 1623 97 q 1566 153 1581 130 q 1496 90 1537 115 q 1400 65 1454 65 q 1352 70 1376 65 q 1304 85 1327 75 q 1260 111 1280 95 q 1223 150 1240 127 q 1153 89 1195 112 q 1058 65 1112 65 q 999 68 1025 65 q 951 82 973 71 l 951 74 q 927 -38 951 12 q 864 -123 904 -87 q 769 -186 823 -160 q 651 -228 714 -212 q 521 -251 589 -244 q 387 -258 454 -258 q 253 -239 311 -258 q 157 -185 195 -220 q 98 -104 118 -151 q 79 -1 79 -57 q 90 95 79 47 q 119 186 102 142 q 156 267 136 229 q 191 333 175 304 l 277 293 q 247 237 263 268 q 218 170 231 207 q 196 91 205 134 q 187 -1 187 48 q 199 -52 187 -28 q 237 -92 212 -75 q 299 -119 262 -109 q 387 -128 336 -128 q 496 -124 441 -128 q 602 -110 551 -119 q 697 -84 653 -100 q 774 -46 742 -68 q 826 6 807 -24 q 845 74 845 36 q 837 141 845 109 q 814 204 828 174 q 783 263 800 235 q 749 317 766 292 l 840 384 l 884 315 q 916 271 899 292 q 953 232 932 249 q 999 205 973 216 q 1058 195 1025 195 q 1111 208 1088 195 q 1149 238 1133 220 q 1173 274 1164 255 q 1181 307 1181 293 l 1181 406 l 1285 406 l 1285 300 q 1296 251 1285 271 q 1323 219 1306 231 q 1360 201 1339 206 q 1400 195 1380 195 q 1453 208 1430 195 q 1491 239 1476 221 q 1515 277 1507 258 q 1523 310 1523 296 l 1523 406 l 1628 406 l 1628 304 q 1638 254 1628 275 q 1665 220 1649 233 q 1702 201 1682 208 q 1743 195 1723 195 l 1815 195 l 1815 65 m 1153 654 l 1017 654 l 1017 790 l 1153 790 l 1153 654 m 1364 654 l 1228 654 l 1228 790 l 1364 790 l 1364 654 m 1258 860 l 1122 860 l 1122 996 l 1258 996 l 1258 860 z "},"ﺷ":{"ha":1291,"x_min":-47,"x_max":1206,"o":"m 1099 289 q 1083 400 1099 334 q 1037 564 1067 467 l 1145 574 q 1174 480 1162 520 q 1193 407 1185 439 q 1203 346 1200 374 q 1206 289 1206 318 q 1185 203 1206 244 q 1129 132 1164 163 q 1048 83 1094 102 q 952 65 1002 65 q 903 70 928 65 q 856 85 879 75 q 812 111 832 95 q 775 150 791 127 q 705 89 747 112 q 610 65 663 65 q 561 69 585 65 q 513 83 536 73 q 469 108 490 92 q 433 146 449 123 q 398 113 418 127 q 354 87 378 98 q 304 71 331 77 q 252 65 278 65 l 0 65 q -47 73 -24 65 l -47 195 l 0 195 l 252 195 q 307 207 281 195 q 351 236 332 219 q 379 271 369 253 q 390 303 390 290 l 390 406 l 494 406 l 494 297 q 505 248 494 268 q 532 217 515 229 q 569 200 549 205 q 610 195 589 195 q 662 208 640 195 q 701 238 685 220 q 724 274 716 255 q 732 307 732 293 l 732 406 l 837 406 l 837 300 q 847 251 837 271 q 874 219 858 231 q 911 201 891 206 q 952 195 932 195 q 1008 203 981 195 q 1055 223 1034 210 q 1087 253 1075 236 q 1099 289 1099 270 m 610 654 l 475 654 l 475 790 l 610 790 l 610 654 m 821 654 l 686 654 l 686 790 l 821 790 l 821 654 m 715 860 l 580 860 l 580 996 l 715 996 l 715 860 z "},"ﺸ":{"ha":1367,"x_min":-47,"x_max":1367,"o":"m 1367 65 l 1295 65 q 1245 70 1270 65 q 1198 86 1221 75 q 1154 114 1175 97 q 1118 153 1133 130 q 1047 90 1089 115 q 952 65 1006 65 q 903 70 928 65 q 856 85 879 75 q 812 111 832 95 q 775 150 791 127 q 705 89 747 112 q 610 65 663 65 q 561 69 585 65 q 513 83 536 73 q 469 108 490 92 q 433 146 449 123 q 398 113 418 127 q 354 87 378 98 q 304 71 331 77 q 252 65 278 65 l 0 65 q -47 73 -24 65 l -47 195 l 0 195 l 252 195 q 307 207 281 195 q 351 236 332 219 q 379 271 369 253 q 390 303 390 290 l 390 406 l 494 406 l 494 297 q 505 248 494 268 q 532 217 515 229 q 569 200 549 205 q 610 195 589 195 q 662 208 640 195 q 701 238 685 220 q 724 274 716 255 q 732 307 732 293 l 732 406 l 837 406 l 837 300 q 847 251 837 271 q 874 219 858 231 q 911 201 891 206 q 952 195 932 195 q 1005 208 982 195 q 1043 239 1027 221 q 1067 277 1059 258 q 1075 310 1075 296 l 1075 406 l 1179 406 l 1179 304 q 1190 254 1179 275 q 1217 220 1200 233 q 1254 201 1234 208 q 1295 195 1274 195 l 1367 195 l 1367 65 m 610 654 l 475 654 l 475 790 l 610 790 l 610 654 m 821 654 l 686 654 l 686 790 l 821 790 l 821 654 m 715 860 l 580 860 l 580 996 l 715 996 l 715 860 z "},"ﺹ":{"ha":1853,"x_min":79,"x_max":1770,"o":"m 1287 195 q 1456 211 1385 195 q 1573 251 1527 226 q 1641 307 1619 275 q 1664 370 1664 338 q 1656 404 1664 385 q 1633 441 1648 424 q 1597 471 1618 458 q 1550 483 1577 483 q 1455 457 1503 483 q 1360 391 1407 432 q 1266 299 1312 351 q 1180 195 1221 248 l 1287 195 m 1067 65 q 1003 68 1034 65 q 951 82 973 71 l 951 74 q 927 -38 951 12 q 864 -123 904 -87 q 769 -186 823 -160 q 651 -228 714 -212 q 521 -251 589 -244 q 387 -258 454 -258 q 253 -239 311 -258 q 157 -185 195 -220 q 98 -104 118 -151 q 79 -1 79 -57 q 90 95 79 47 q 119 186 102 142 q 156 267 136 229 q 191 333 175 304 l 277 293 q 247 237 263 268 q 218 170 231 207 q 196 91 205 134 q 187 -1 187 48 q 199 -52 187 -28 q 237 -92 212 -75 q 299 -119 262 -109 q 387 -128 336 -128 q 496 -124 441 -128 q 602 -110 551 -119 q 697 -84 653 -100 q 774 -46 742 -68 q 826 6 807 -24 q 845 74 845 36 q 837 141 845 109 q 814 204 828 174 q 783 263 800 235 q 749 317 766 292 l 840 384 l 884 315 q 914 274 898 294 q 949 236 930 253 q 991 209 968 219 q 1039 197 1013 198 q 1110 290 1072 242 q 1189 385 1147 338 q 1274 472 1230 431 q 1364 545 1318 514 q 1456 595 1409 576 q 1550 613 1503 613 q 1613 601 1584 613 q 1667 569 1643 589 q 1710 524 1691 549 q 1743 471 1729 498 q 1763 418 1756 444 q 1770 370 1770 391 q 1741 259 1770 314 q 1652 162 1712 205 q 1502 92 1593 119 q 1287 65 1411 65 l 1067 65 z "},"ﺺ":{"ha":1898,"x_min":79,"x_max":1898,"o":"m 1289 195 q 1457 211 1386 195 q 1574 251 1528 226 q 1643 307 1620 275 q 1665 370 1665 338 q 1657 404 1665 385 q 1634 441 1649 424 q 1599 471 1619 458 q 1552 483 1578 483 q 1457 457 1505 483 q 1361 391 1409 432 q 1268 299 1314 351 q 1181 195 1222 248 l 1289 195 m 1898 65 q 1825 66 1857 65 q 1765 69 1792 66 q 1715 75 1738 71 q 1669 84 1691 79 q 1623 97 1647 90 q 1571 116 1599 105 q 1445 80 1517 94 q 1289 65 1373 65 l 1068 65 q 1004 68 1035 65 q 951 82 973 71 l 951 74 q 927 -38 951 12 q 864 -123 904 -87 q 769 -186 823 -160 q 651 -228 714 -212 q 521 -251 589 -244 q 387 -258 454 -258 q 253 -239 311 -258 q 157 -185 195 -220 q 98 -104 118 -151 q 79 -1 79 -57 q 90 95 79 47 q 119 186 102 142 q 156 267 136 229 q 191 333 175 304 l 277 293 q 247 237 263 268 q 218 170 231 207 q 196 91 205 134 q 187 -1 187 48 q 199 -52 187 -28 q 237 -92 212 -75 q 299 -119 262 -109 q 387 -128 336 -128 q 496 -124 441 -128 q 602 -110 551 -119 q 697 -84 653 -100 q 774 -46 742 -68 q 826 6 807 -24 q 845 74 845 36 q 837 141 845 109 q 814 204 828 174 q 783 263 800 235 q 749 317 766 292 l 840 384 l 884 315 q 914 274 898 294 q 950 236 930 253 q 992 209 969 219 q 1040 197 1015 198 q 1112 289 1074 241 q 1191 384 1149 337 q 1278 471 1233 430 q 1368 544 1322 513 q 1460 594 1414 576 q 1552 613 1506 613 q 1614 601 1585 613 q 1668 569 1644 589 q 1712 524 1693 549 q 1744 471 1731 498 q 1764 418 1757 444 q 1771 370 1771 391 q 1754 287 1771 328 q 1705 208 1737 245 q 1738 202 1720 205 q 1781 199 1757 200 q 1833 196 1804 197 q 1898 195 1862 195 l 1898 65 z "},"ﺻ":{"ha":1245,"x_min":-47,"x_max":1162,"o":"m 454 61 q 405 66 429 61 q 357 81 380 71 q 313 107 334 91 q 277 146 293 123 q 242 113 262 127 q 198 87 222 98 q 149 71 175 77 q 96 65 122 65 l 0 65 q -47 73 -24 65 l -47 195 l 0 195 l 96 195 q 151 207 125 195 q 195 236 176 219 q 223 271 213 253 q 234 303 234 290 l 234 405 l 338 405 l 338 297 q 347 250 338 269 q 370 218 356 230 q 400 199 384 205 q 431 193 416 193 q 503 285 465 237 q 582 379 541 333 q 669 467 624 425 q 759 540 713 509 q 851 590 805 572 q 943 609 897 609 q 1005 597 976 609 q 1059 565 1035 585 q 1103 519 1084 545 q 1135 467 1122 494 q 1155 414 1148 440 q 1162 366 1162 387 q 1133 255 1162 310 q 1045 158 1104 201 q 895 88 985 115 q 680 61 804 61 l 454 61 m 680 191 q 848 207 777 191 q 965 247 919 222 q 1034 302 1011 271 q 1056 366 1056 334 q 1048 400 1056 380 q 1025 437 1040 420 q 990 467 1010 454 q 943 479 969 479 q 848 453 896 479 q 752 387 800 428 q 659 295 705 347 q 572 191 613 243 l 680 191 z "},"ﺼ":{"ha":1291,"x_min":-47,"x_max":1291,"o":"m 1291 65 q 1185 66 1229 65 q 1105 73 1141 68 q 1035 87 1069 77 q 959 112 1000 96 q 833 76 905 90 q 676 61 761 61 l 450 61 q 401 66 426 61 q 354 81 377 71 q 310 107 330 91 q 273 146 290 123 q 239 113 259 127 q 195 87 218 98 q 145 71 172 77 q 92 65 119 65 l 0 65 q -47 73 -24 65 l -47 195 l 0 195 l 92 195 q 148 207 122 195 q 191 236 173 219 q 220 271 210 253 q 231 303 231 290 l 231 405 l 335 405 l 335 297 q 344 250 335 269 q 367 218 353 230 q 397 199 380 205 q 428 193 413 193 q 499 285 461 237 q 579 379 537 333 q 665 467 621 425 q 756 540 710 509 q 848 590 802 572 q 939 609 894 609 q 1002 597 972 609 q 1056 565 1031 585 q 1099 519 1080 545 q 1132 467 1118 494 q 1152 414 1145 440 q 1159 366 1159 387 q 1142 283 1159 324 q 1093 204 1125 241 q 1171 197 1123 198 q 1291 195 1218 195 l 1291 65 m 676 191 q 845 207 774 191 q 962 247 916 222 q 1030 302 1008 271 q 1053 366 1053 334 q 1045 400 1053 380 q 1022 437 1037 420 q 986 467 1007 454 q 939 479 966 479 q 844 453 892 479 q 749 387 796 428 q 655 295 701 347 q 569 191 610 243 l 676 191 z "},"ﺽ":{"ha":1853,"x_min":79,"x_max":1770,"o":"m 1287 195 q 1456 211 1385 195 q 1573 251 1527 226 q 1641 307 1619 275 q 1664 370 1664 338 q 1656 404 1664 385 q 1633 441 1648 424 q 1597 471 1618 458 q 1550 483 1577 483 q 1455 457 1503 483 q 1360 391 1407 432 q 1266 299 1312 351 q 1180 195 1221 248 l 1287 195 m 1067 65 q 1003 68 1034 65 q 951 82 973 71 l 951 74 q 927 -38 951 12 q 864 -123 904 -87 q 769 -186 823 -160 q 651 -228 714 -212 q 521 -251 589 -244 q 387 -258 454 -258 q 253 -239 311 -258 q 157 -185 195 -220 q 98 -104 118 -151 q 79 -1 79 -57 q 90 95 79 47 q 119 186 102 142 q 156 267 136 229 q 191 333 175 304 l 277 293 q 247 237 263 268 q 218 170 231 207 q 196 91 205 134 q 187 -1 187 48 q 199 -52 187 -28 q 237 -92 212 -75 q 299 -119 262 -109 q 387 -128 336 -128 q 496 -124 441 -128 q 602 -110 551 -119 q 697 -84 653 -100 q 774 -46 742 -68 q 826 6 807 -24 q 845 74 845 36 q 837 141 845 109 q 814 204 828 174 q 783 263 800 235 q 749 317 766 292 l 840 384 l 884 315 q 914 274 898 294 q 949 236 930 253 q 991 209 968 219 q 1039 197 1013 198 q 1110 290 1072 242 q 1189 385 1147 338 q 1274 472 1230 431 q 1364 545 1318 514 q 1456 595 1409 576 q 1550 613 1503 613 q 1613 601 1584 613 q 1667 569 1643 589 q 1710 524 1691 549 q 1743 471 1729 498 q 1763 418 1756 444 q 1770 370 1770 391 q 1741 259 1770 314 q 1652 162 1712 205 q 1502 92 1593 119 q 1287 65 1411 65 l 1067 65 m 1407 783 l 1271 783 l 1271 918 l 1407 918 l 1407 783 z "},"ﺾ":{"ha":1898,"x_min":79,"x_max":1898,"o":"m 1289 195 q 1457 211 1386 195 q 1574 251 1528 226 q 1643 307 1620 275 q 1665 370 1665 338 q 1657 404 1665 385 q 1634 441 1649 424 q 1599 471 1619 458 q 1552 483 1578 483 q 1457 457 1505 483 q 1361 391 1409 432 q 1268 299 1314 351 q 1181 195 1222 248 l 1289 195 m 1898 65 q 1825 66 1857 65 q 1765 69 1792 66 q 1715 75 1738 71 q 1669 84 1691 79 q 1623 97 1647 90 q 1571 116 1599 105 q 1445 80 1517 94 q 1289 65 1373 65 l 1068 65 q 1004 68 1035 65 q 951 82 973 71 l 951 74 q 927 -38 951 12 q 864 -123 904 -87 q 769 -186 823 -160 q 651 -228 714 -212 q 521 -251 589 -244 q 387 -258 454 -258 q 253 -239 311 -258 q 157 -185 195 -220 q 98 -104 118 -151 q 79 -1 79 -57 q 90 95 79 47 q 119 186 102 142 q 156 267 136 229 q 191 333 175 304 l 277 293 q 247 237 263 268 q 218 170 231 207 q 196 91 205 134 q 187 -1 187 48 q 199 -52 187 -28 q 237 -92 212 -75 q 299 -119 262 -109 q 387 -128 336 -128 q 496 -124 441 -128 q 602 -110 551 -119 q 697 -84 653 -100 q 774 -46 742 -68 q 826 6 807 -24 q 845 74 845 36 q 837 141 845 109 q 814 204 828 174 q 783 263 800 235 q 749 317 766 292 l 840 384 l 884 315 q 914 274 898 294 q 950 236 930 253 q 992 209 969 219 q 1040 197 1015 198 q 1112 289 1074 241 q 1191 384 1149 337 q 1278 471 1233 430 q 1368 544 1322 513 q 1460 594 1414 576 q 1552 613 1506 613 q 1614 601 1585 613 q 1668 569 1644 589 q 1712 524 1693 549 q 1744 471 1731 498 q 1764 418 1757 444 q 1771 370 1771 391 q 1754 287 1771 328 q 1705 208 1737 245 q 1738 202 1720 205 q 1781 199 1757 200 q 1833 196 1804 197 q 1898 195 1862 195 l 1898 65 m 1407 783 l 1271 783 l 1271 918 l 1407 918 l 1407 783 z "},"ﺿ":{"ha":1245,"x_min":-47,"x_max":1162,"o":"m 454 61 q 405 66 429 61 q 357 81 380 71 q 313 107 334 91 q 277 146 293 123 q 242 113 262 127 q 198 87 222 98 q 149 71 175 77 q 96 65 122 65 l 0 65 q -47 73 -24 65 l -47 195 l 0 195 l 96 195 q 151 207 125 195 q 195 236 176 219 q 223 271 213 253 q 234 303 234 290 l 234 405 l 338 405 l 338 297 q 347 250 338 269 q 370 218 356 230 q 400 199 384 205 q 431 193 416 193 q 503 285 465 237 q 582 379 541 333 q 669 467 624 425 q 759 540 713 509 q 851 590 805 572 q 943 609 897 609 q 1005 597 976 609 q 1059 565 1035 585 q 1103 519 1084 545 q 1135 467 1122 494 q 1155 414 1148 440 q 1162 366 1162 387 q 1133 255 1162 310 q 1045 158 1104 201 q 895 88 985 115 q 680 61 804 61 l 454 61 m 680 191 q 848 207 777 191 q 965 247 919 222 q 1034 302 1011 271 q 1056 366 1056 334 q 1048 400 1056 380 q 1025 437 1040 420 q 990 467 1010 454 q 943 479 969 479 q 848 453 896 479 q 752 387 800 428 q 659 295 705 347 q 572 191 613 243 l 680 191 m 787 783 l 651 783 l 651 918 l 787 918 l 787 783 z "},"ﻀ":{"ha":1291,"x_min":-47,"x_max":1291,"o":"m 1291 65 q 1185 66 1229 65 q 1105 73 1141 68 q 1035 87 1069 77 q 959 112 1000 96 q 833 76 905 90 q 676 61 761 61 l 450 61 q 401 66 426 61 q 354 81 377 71 q 310 107 330 91 q 273 146 290 123 q 239 113 259 127 q 195 87 218 98 q 145 71 172 77 q 92 65 119 65 l 0 65 q -47 73 -24 65 l -47 195 l 0 195 l 92 195 q 148 207 122 195 q 191 236 173 219 q 220 271 210 253 q 231 303 231 290 l 231 405 l 335 405 l 335 297 q 344 250 335 269 q 367 218 353 230 q 397 199 380 205 q 428 193 413 193 q 499 285 461 237 q 579 379 537 333 q 665 467 621 425 q 756 540 710 509 q 848 590 802 572 q 939 609 894 609 q 1002 597 972 609 q 1056 565 1031 585 q 1099 519 1080 545 q 1132 467 1118 494 q 1152 414 1145 440 q 1159 366 1159 387 q 1142 283 1159 324 q 1093 204 1125 241 q 1171 197 1123 198 q 1291 195 1218 195 l 1291 65 m 676 191 q 845 207 774 191 q 962 247 916 222 q 1030 302 1008 271 q 1053 366 1053 334 q 1045 400 1053 380 q 1022 437 1037 420 q 986 467 1007 454 q 939 479 966 479 q 844 453 892 479 q 749 387 796 428 q 655 295 701 347 q 569 191 610 243 l 676 191 m 787 783 l 651 783 l 651 918 l 787 918 l 787 783 z "},"ﻁ":{"ha":1085,"x_min":106,"x_max":1002,"o":"m 345 348 q 444 447 392 399 q 551 530 496 494 q 664 587 606 566 q 783 609 722 609 q 845 597 816 609 q 899 565 875 585 q 943 519 924 545 q 975 467 962 494 q 995 414 988 440 q 1002 366 1002 387 q 972 255 1002 310 q 881 158 942 201 q 725 88 819 115 q 503 61 631 61 q 406 62 458 61 q 302 66 355 62 q 200 79 250 71 q 106 102 149 87 l 142 226 q 180 214 160 220 q 219 205 200 209 q 230 218 224 212 q 240 231 235 224 l 240 1055 l 345 1055 l 345 348 m 360 193 q 439 192 400 192 q 514 191 479 191 q 683 207 612 191 q 802 247 755 222 q 873 302 850 271 q 896 366 896 334 q 888 400 896 380 q 865 437 880 420 q 830 467 850 454 q 783 479 809 479 q 670 454 726 479 q 561 388 614 429 q 456 297 507 348 q 360 193 406 245 z "},"ﻂ":{"ha":1132,"x_min":104,"x_max":1132,"o":"m 358 193 q 437 192 398 192 q 512 191 477 191 q 681 207 610 191 q 800 247 753 222 q 871 302 848 271 q 894 366 894 334 q 886 400 894 380 q 863 437 878 420 q 828 467 848 454 q 781 479 807 479 q 668 454 724 479 q 559 388 612 429 q 454 297 505 348 q 358 193 404 245 m 217 205 q 228 218 222 212 q 238 231 233 224 l 238 1055 l 342 1055 l 342 348 q 442 447 390 399 q 549 530 494 494 q 662 587 604 566 q 781 609 720 609 q 843 597 814 609 q 897 565 873 585 q 941 519 922 545 q 973 467 960 494 q 993 414 986 440 q 1000 366 1000 387 q 983 282 1000 323 q 930 203 965 241 q 1011 196 962 197 q 1132 195 1060 195 l 1132 65 q 1026 67 1071 65 q 943 73 981 68 q 871 87 905 78 q 795 112 836 96 q 667 76 741 90 q 500 61 593 61 q 404 62 456 61 q 300 66 353 62 q 198 79 248 71 q 104 102 147 87 l 138 227 q 178 214 157 220 q 217 205 198 209 z "},"ﻃ":{"ha":995,"x_min":-47,"x_max":912,"o":"m 424 195 q 593 210 522 195 q 712 249 665 224 q 783 303 760 273 q 806 366 806 334 q 798 400 806 380 q 775 437 790 420 q 740 467 760 454 q 692 479 719 479 q 582 454 637 479 q 472 388 526 429 q 367 297 418 348 q 271 195 315 246 l 424 195 m 150 1055 l 254 1055 l 254 348 q 354 447 302 399 q 461 530 406 494 q 575 587 517 566 q 692 609 633 609 q 755 597 726 609 q 809 565 785 585 q 852 519 833 545 q 885 467 871 494 q 905 414 898 440 q 912 366 912 387 q 882 256 912 310 q 792 160 852 202 q 640 91 731 117 q 424 65 548 65 l 0 65 q -47 73 -24 65 l -47 195 l 0 195 l 121 195 q 135 213 128 205 q 150 230 142 221 l 150 1055 z "},"ﻄ":{"ha":1044,"x_min":-47,"x_max":1044,"o":"m 425 195 q 594 210 523 195 q 713 249 666 224 q 784 303 761 273 q 807 366 807 334 q 799 400 807 380 q 777 437 791 420 q 741 467 762 454 q 694 479 720 479 q 583 454 639 479 q 473 388 528 429 q 368 297 419 348 q 272 195 317 246 l 425 195 m 151 1055 l 256 1055 l 256 348 q 356 447 304 399 q 463 530 408 494 q 576 587 518 566 q 694 609 634 609 q 756 597 727 609 q 810 565 786 585 q 854 519 835 545 q 886 467 873 494 q 906 414 899 440 q 913 366 913 387 q 896 281 913 323 q 842 203 878 240 q 923 196 873 197 q 1044 195 972 195 l 1044 65 q 938 67 983 65 q 854 74 892 68 q 781 88 816 79 q 705 113 745 97 q 578 79 651 93 q 425 65 505 65 l 0 65 q -47 73 -24 65 l -47 195 l 0 195 l 122 195 q 137 213 130 205 q 151 230 144 221 l 151 1055 z "},"ﻅ":{"ha":1085,"x_min":106,"x_max":1002,"o":"m 345 348 q 444 447 392 399 q 551 530 496 494 q 664 587 606 566 q 783 609 722 609 q 845 597 816 609 q 899 565 875 585 q 943 519 924 545 q 975 467 962 494 q 995 414 988 440 q 1002 366 1002 387 q 972 255 1002 310 q 881 158 942 201 q 725 88 819 115 q 503 61 631 61 q 406 62 458 61 q 302 66 355 62 q 200 79 250 71 q 106 102 149 87 l 142 226 q 180 214 160 220 q 219 205 200 209 q 230 218 224 212 q 240 231 235 224 l 240 1055 l 345 1055 l 345 348 m 360 193 q 439 192 400 192 q 514 191 479 191 q 683 207 612 191 q 802 247 755 222 q 873 302 850 271 q 896 366 896 334 q 888 400 896 380 q 865 437 880 420 q 830 467 850 454 q 783 479 809 479 q 670 454 726 479 q 561 388 614 429 q 456 297 507 348 q 360 193 406 245 m 671 783 l 535 783 l 535 918 l 671 918 l 671 783 z "},"ﻆ":{"ha":1132,"x_min":104,"x_max":1132,"o":"m 358 193 q 437 192 398 192 q 512 191 477 191 q 681 207 610 191 q 800 247 753 222 q 871 302 848 271 q 894 366 894 334 q 886 400 894 380 q 863 437 878 420 q 828 467 848 454 q 781 479 807 479 q 668 454 724 479 q 559 388 612 429 q 454 297 505 348 q 358 193 404 245 m 217 205 q 228 218 222 212 q 238 231 233 224 l 238 1055 l 342 1055 l 342 348 q 442 447 390 399 q 549 530 494 494 q 662 587 604 566 q 781 609 720 609 q 843 597 814 609 q 897 565 873 585 q 941 519 922 545 q 973 467 960 494 q 993 414 986 440 q 1000 366 1000 387 q 983 282 1000 323 q 930 203 965 241 q 1011 196 962 197 q 1132 195 1060 195 l 1132 65 q 1026 67 1071 65 q 943 73 981 68 q 871 87 905 78 q 795 112 836 96 q 667 76 741 90 q 500 61 593 61 q 404 62 456 61 q 300 66 353 62 q 198 79 248 71 q 104 102 147 87 l 138 227 q 178 214 157 220 q 217 205 198 209 m 671 783 l 535 783 l 535 918 l 671 918 l 671 783 z "},"ﻇ":{"ha":995,"x_min":-47,"x_max":912,"o":"m 424 195 q 593 210 522 195 q 712 249 665 224 q 783 303 760 273 q 806 366 806 334 q 798 400 806 380 q 775 437 790 420 q 740 467 760 454 q 692 479 719 479 q 582 454 637 479 q 472 388 526 429 q 367 297 418 348 q 271 195 315 246 l 424 195 m 150 1055 l 254 1055 l 254 348 q 354 447 302 399 q 461 530 406 494 q 575 587 517 566 q 692 609 633 609 q 755 597 726 609 q 809 565 785 585 q 852 519 833 545 q 885 467 871 494 q 905 414 898 440 q 912 366 912 387 q 882 256 912 310 q 792 160 852 202 q 640 91 731 117 q 424 65 548 65 l 0 65 q -47 73 -24 65 l -47 195 l 0 195 l 121 195 q 135 213 128 205 q 150 230 142 221 l 150 1055 m 586 783 l 450 783 l 450 918 l 586 918 l 586 783 z "},"ﻈ":{"ha":1044,"x_min":-47,"x_max":1044,"o":"m 425 195 q 594 210 523 195 q 713 249 666 224 q 784 303 761 273 q 807 366 807 334 q 799 400 807 380 q 777 437 791 420 q 741 467 762 454 q 694 479 720 479 q 583 454 639 479 q 473 388 528 429 q 368 297 419 348 q 272 195 317 246 l 425 195 m 151 1055 l 256 1055 l 256 348 q 356 447 304 399 q 463 530 408 494 q 576 587 518 566 q 694 609 634 609 q 756 597 727 609 q 810 565 786 585 q 854 519 835 545 q 886 467 873 494 q 906 414 899 440 q 913 366 913 387 q 896 281 913 323 q 842 203 878 240 q 923 196 873 197 q 1044 195 972 195 l 1044 65 q 938 67 983 65 q 854 74 892 68 q 781 88 816 79 q 705 113 745 97 q 578 79 651 93 q 425 65 505 65 l 0 65 q -47 73 -24 65 l -47 195 l 0 195 l 122 195 q 137 213 130 205 q 151 230 144 221 l 151 1055 m 586 783 l 450 783 l 450 918 l 586 918 l 586 783 z "},"ﻉ":{"ha":852,"x_min":81,"x_max":751,"o":"m 751 -251 q 689 -269 722 -261 q 624 -281 661 -275 q 545 -286 587 -286 q 453 -280 503 -286 q 351 -259 403 -273 q 251 -220 300 -244 q 165 -160 203 -196 q 104 -77 127 -125 q 81 34 81 -29 q 99 151 81 96 q 147 251 117 205 q 216 335 177 297 q 296 404 254 374 q 207 500 238 444 q 176 635 176 556 q 186 691 176 664 q 215 742 197 718 q 256 787 233 766 q 304 822 279 807 q 354 845 329 837 q 401 853 379 853 q 499 843 448 853 q 606 808 551 832 l 572 707 q 536 716 557 712 q 492 722 515 720 q 445 726 469 725 q 401 727 421 727 q 362 719 383 727 q 324 699 342 711 q 294 669 307 686 q 282 635 282 652 q 320 542 282 581 q 428 475 358 504 q 502 505 465 492 q 574 530 539 519 q 641 551 609 542 q 696 566 672 560 l 722 448 q 628 420 682 437 q 514 380 573 404 q 397 324 455 356 q 293 249 339 292 q 218 153 247 207 q 190 34 190 100 q 208 -32 190 -3 q 254 -81 225 -60 q 320 -117 283 -102 q 397 -140 357 -132 q 474 -152 436 -149 q 545 -156 513 -156 q 616 -155 582 -156 q 676 -153 650 -155 q 732 -151 707 -152 l 751 -251 z "},"ﻊ":{"ha":852,"x_min":103,"x_max":852,"o":"m 755 -248 q 682 -260 721 -255 q 604 -267 648 -264 q 513 -271 560 -271 q 434 -264 478 -271 q 344 -244 390 -258 q 255 -207 298 -230 q 178 -150 212 -184 q 124 -70 144 -115 q 103 37 103 -24 q 119 140 103 91 q 163 232 136 189 q 228 312 191 275 q 306 379 265 349 q 390 433 347 410 q 472 472 433 456 q 431 516 456 503 q 363 530 405 530 l 358 631 q 451 664 404 649 q 547 678 497 678 q 613 670 582 678 q 666 646 644 661 q 702 608 689 630 q 715 558 715 586 q 708 516 715 538 q 688 472 701 494 q 654 429 674 450 q 608 392 634 408 q 655 287 629 326 q 710 227 680 248 q 775 201 740 207 q 852 195 810 195 l 852 65 q 777 67 812 65 q 710 79 742 70 q 650 106 678 88 q 597 156 623 125 q 550 235 572 188 q 508 350 528 282 q 441 319 475 337 q 373 278 406 301 q 311 229 340 256 q 259 172 281 202 q 224 107 237 141 q 212 37 212 73 q 227 -24 212 2 q 267 -71 242 -51 q 323 -104 292 -90 q 389 -125 355 -117 q 455 -137 422 -134 q 513 -140 487 -140 q 602 -140 560 -140 q 676 -139 644 -140 q 746 -137 713 -138 l 755 -248 z "},"ﻋ":{"ha":781,"x_min":-47,"x_max":716,"o":"m 716 223 q 555 166 635 195 q 395 116 475 138 q 232 79 315 93 q 60 65 149 65 l 0 65 q -47 73 -24 65 l -47 195 l 0 195 l 60 195 q 150 199 107 195 q 231 210 192 203 q 171 274 194 241 q 135 340 148 307 q 118 404 122 373 q 113 461 113 435 q 134 539 113 500 q 190 610 155 578 q 273 660 225 641 q 374 680 320 680 q 495 669 438 680 q 602 645 553 659 l 575 518 q 479 540 530 530 q 374 549 429 549 q 314 542 342 549 q 265 521 286 534 q 232 493 244 509 q 220 461 220 477 q 228 415 220 441 q 256 359 235 388 q 312 304 276 331 q 406 256 349 277 q 479 279 445 267 q 546 302 513 290 q 613 325 579 313 q 686 349 647 336 l 716 223 z "},"ﻌ":{"ha":608,"x_min":-47,"x_max":608,"o":"m 608 65 q 517 70 558 65 q 441 86 476 74 q 376 120 406 98 q 320 176 347 142 q 256 127 290 148 q 187 93 222 106 q 116 72 152 79 q 47 65 81 65 l 0 65 q -47 73 -24 65 l -47 195 l 0 195 l 47 195 q 103 201 74 195 q 159 217 132 206 q 213 243 187 227 q 260 279 239 258 q 231 319 246 301 q 199 351 216 338 q 160 372 181 364 q 113 379 138 379 l 109 475 q 159 494 133 484 q 213 511 186 503 q 267 523 240 518 q 319 528 294 528 q 385 520 355 528 q 436 497 414 512 q 470 459 458 481 q 482 409 482 437 q 476 368 482 387 q 459 332 470 349 q 433 297 448 315 q 398 260 417 280 q 436 227 416 239 q 483 207 457 214 q 539 198 508 200 q 608 195 570 195 l 608 65 z "},"ﻍ":{"ha":852,"x_min":81,"x_max":751,"o":"m 751 -251 q 689 -269 722 -261 q 624 -281 661 -275 q 545 -286 587 -286 q 453 -280 503 -286 q 351 -259 403 -273 q 251 -220 300 -244 q 165 -160 203 -196 q 104 -77 127 -125 q 81 34 81 -29 q 99 151 81 96 q 147 251 117 205 q 216 335 177 297 q 296 404 254 374 q 207 500 238 444 q 176 635 176 556 q 186 691 176 664 q 215 742 197 718 q 256 787 233 766 q 304 822 279 807 q 354 845 329 837 q 401 853 379 853 q 499 843 448 853 q 606 808 551 832 l 572 707 q 536 716 557 712 q 492 722 515 720 q 445 726 469 725 q 401 727 421 727 q 362 719 383 727 q 324 699 342 711 q 294 669 307 686 q 282 635 282 652 q 320 542 282 581 q 428 475 358 504 q 502 505 465 492 q 574 530 539 519 q 641 551 609 542 q 696 566 672 560 l 722 448 q 628 420 682 437 q 514 380 573 404 q 397 324 455 356 q 293 249 339 292 q 218 153 247 207 q 190 34 190 100 q 208 -32 190 -3 q 254 -81 225 -60 q 320 -117 283 -102 q 397 -140 357 -132 q 474 -152 436 -149 q 545 -156 513 -156 q 616 -155 582 -156 q 676 -153 650 -155 q 732 -151 707 -152 l 751 -251 m 492 986 l 357 986 l 357 1122 l 492 1122 l 492 986 z "},"ﻎ":{"ha":852,"x_min":103,"x_max":852,"o":"m 755 -248 q 682 -260 721 -255 q 604 -267 648 -264 q 513 -271 560 -271 q 434 -264 478 -271 q 344 -244 390 -258 q 255 -207 298 -230 q 178 -150 212 -184 q 124 -70 144 -115 q 103 37 103 -24 q 119 140 103 91 q 163 232 136 189 q 228 312 191 275 q 306 379 265 349 q 390 433 347 410 q 472 472 433 456 q 431 516 456 503 q 363 530 405 530 l 358 631 q 451 664 404 649 q 547 678 497 678 q 613 670 582 678 q 666 646 644 661 q 702 608 689 630 q 715 558 715 586 q 708 516 715 538 q 688 472 701 494 q 654 429 674 450 q 608 392 634 408 q 655 287 629 326 q 710 227 680 248 q 775 201 740 207 q 852 195 810 195 l 852 65 q 777 67 812 65 q 710 79 742 70 q 650 106 678 88 q 597 156 623 125 q 550 235 572 188 q 508 350 528 282 q 441 319 475 337 q 373 278 406 301 q 311 229 340 256 q 259 172 281 202 q 224 107 237 141 q 212 37 212 73 q 227 -24 212 2 q 267 -71 242 -51 q 323 -104 292 -90 q 389 -125 355 -117 q 455 -137 422 -134 q 513 -140 487 -140 q 602 -140 560 -140 q 676 -139 644 -140 q 746 -137 713 -138 l 755 -248 m 594 844 l 458 844 l 458 979 l 594 979 l 594 844 z "},"ﻏ":{"ha":781,"x_min":-47,"x_max":716,"o":"m 716 223 q 555 166 635 195 q 395 116 475 138 q 232 79 315 93 q 60 65 149 65 l 0 65 q -47 73 -24 65 l -47 195 l 0 195 l 60 195 q 150 199 107 195 q 231 210 192 203 q 171 274 194 241 q 135 340 148 307 q 118 404 122 373 q 113 461 113 435 q 134 539 113 500 q 190 610 155 578 q 273 660 225 641 q 374 680 320 680 q 495 669 438 680 q 602 645 553 659 l 575 518 q 479 540 530 530 q 374 549 429 549 q 314 542 342 549 q 265 521 286 534 q 232 493 244 509 q 220 461 220 477 q 228 415 220 441 q 256 359 235 388 q 312 304 276 331 q 406 256 349 277 q 479 279 445 267 q 546 302 513 290 q 613 325 579 313 q 686 349 647 336 l 716 223 m 445 844 l 309 844 l 309 979 l 445 979 l 445 844 z "},"ﻐ":{"ha":608,"x_min":-47,"x_max":608,"o":"m 608 65 q 517 70 558 65 q 441 86 476 74 q 376 120 406 98 q 320 176 347 142 q 256 127 290 148 q 187 93 222 106 q 116 72 152 79 q 47 65 81 65 l 0 65 q -47 73 -24 65 l -47 195 l 0 195 l 47 195 q 103 201 74 195 q 159 217 132 206 q 213 243 187 227 q 260 279 239 258 q 231 319 246 301 q 199 351 216 338 q 160 372 181 364 q 113 379 138 379 l 109 475 q 159 494 133 484 q 213 511 186 503 q 267 523 240 518 q 319 528 294 528 q 385 520 355 528 q 436 497 414 512 q 470 459 458 481 q 482 409 482 437 q 476 368 482 387 q 459 332 470 349 q 433 297 448 315 q 398 260 417 280 q 436 227 416 239 q 483 207 457 214 q 539 198 508 200 q 608 195 570 195 l 608 65 m 377 729 l 241 729 l 241 865 l 377 865 l 377 729 z "},"ﻑ":{"ha":1431,"x_min":92,"x_max":1355,"o":"m 1248 478 q 1223 552 1240 521 q 1184 602 1206 583 q 1140 631 1163 622 q 1100 641 1118 641 q 1072 626 1084 641 q 1049 589 1059 611 q 1034 539 1040 566 q 1029 489 1029 513 q 1042 473 1029 479 q 1074 464 1055 467 q 1112 460 1092 460 q 1147 459 1133 459 q 1248 478 1203 459 m 92 312 q 98 378 92 342 q 113 450 104 413 q 132 522 121 486 q 154 590 143 558 l 258 567 q 238 502 249 537 q 219 433 228 467 q 204 367 210 398 q 199 312 199 335 q 227 248 199 275 q 304 203 255 220 q 419 178 353 186 q 562 170 486 170 q 800 176 696 170 q 982 193 904 182 q 1114 216 1060 203 q 1202 241 1168 229 q 1230 270 1217 248 q 1247 343 1242 293 q 1199 332 1223 336 q 1147 329 1174 329 q 1105 330 1128 329 q 1057 337 1082 332 q 1008 352 1032 342 q 966 380 985 362 q 936 425 947 398 q 924 489 924 451 q 930 550 924 518 q 947 614 936 583 q 974 673 958 645 q 1009 724 989 702 q 1052 758 1029 745 q 1100 771 1074 771 q 1150 763 1122 771 q 1206 736 1178 754 q 1262 691 1235 718 q 1309 626 1289 663 q 1342 540 1330 588 q 1355 432 1355 492 q 1347 289 1355 345 q 1323 199 1338 233 q 1286 147 1308 164 q 1238 119 1265 130 q 1142 91 1200 105 q 1001 65 1084 77 q 810 46 919 54 q 563 39 701 39 q 379 55 465 39 q 229 104 293 71 q 129 189 165 138 q 92 312 92 241 m 1181 898 l 1046 898 l 1046 1034 l 1181 1034 l 1181 898 z "},"ﻒ":{"ha":1431,"x_min":92,"x_max":1431,"o":"m 1122 275 q 1204 338 1174 306 q 1234 398 1234 370 q 1228 437 1234 418 q 1213 471 1222 456 q 1192 494 1204 486 q 1168 503 1180 503 q 1129 492 1151 503 q 1088 464 1107 481 q 1057 425 1069 447 q 1044 381 1044 404 q 1063 327 1044 351 q 1122 275 1082 303 m 92 312 q 98 378 92 342 q 113 450 104 413 q 132 522 121 486 q 154 590 143 558 l 258 567 q 238 502 249 537 q 219 433 228 467 q 204 367 210 398 q 199 312 199 335 q 227 248 199 275 q 304 203 255 220 q 419 178 353 186 q 562 170 486 170 q 693 174 630 170 q 811 186 755 178 q 913 203 866 193 q 997 223 960 213 q 954 293 968 255 q 939 381 939 331 q 949 441 939 411 q 979 500 960 472 q 1021 552 997 528 q 1070 594 1044 576 q 1121 623 1095 612 q 1168 633 1146 633 q 1229 614 1198 633 q 1284 562 1259 595 q 1324 487 1308 530 q 1339 398 1339 445 q 1315 307 1339 353 q 1245 218 1290 260 q 1341 201 1291 206 q 1431 195 1390 195 l 1431 65 q 1360 68 1399 65 q 1279 80 1320 72 q 1196 101 1237 88 q 1118 134 1154 115 q 997 92 1064 110 q 856 62 929 74 q 707 45 783 51 q 562 39 632 39 q 378 55 464 39 q 229 104 292 71 q 129 189 165 138 q 92 312 92 241 m 1218 844 l 1082 844 l 1082 979 l 1218 979 l 1218 844 z "},"ﻓ":{"ha":608,"x_min":-47,"x_max":525,"o":"m 0 65 q -47 73 -24 65 l -47 195 l 0 195 l 44 195 q 153 197 106 195 q 236 204 199 199 q 306 218 273 210 q 372 240 338 227 q 387 250 380 243 q 399 269 393 257 q 410 298 406 281 q 417 342 414 316 q 369 331 393 334 q 317 328 344 328 q 275 329 298 328 q 227 335 252 330 q 178 351 202 340 q 135 379 154 361 q 104 423 116 397 q 93 488 93 450 q 106 581 93 531 q 143 672 119 630 q 199 742 167 714 q 270 770 231 770 q 320 761 292 770 q 376 735 348 753 q 432 689 405 717 q 479 624 458 662 q 512 538 500 587 q 525 431 525 490 q 517 287 525 342 q 493 196 509 231 q 456 145 478 162 q 408 118 435 128 q 330 92 367 102 q 253 76 294 82 q 162 67 212 70 q 44 65 112 65 l 0 65 m 418 477 q 393 550 410 519 q 354 601 376 581 q 310 630 333 621 q 270 640 288 640 q 241 625 254 640 q 219 587 229 610 q 204 538 210 565 q 199 488 199 511 q 212 471 199 477 q 243 462 225 465 q 282 458 262 459 q 317 458 302 458 q 418 477 373 458 m 357 897 l 221 897 l 221 1033 l 357 1033 l 357 897 z "},"ﻔ":{"ha":608,"x_min":-47,"x_max":608,"o":"m 608 65 q 537 68 576 65 q 456 79 498 72 q 372 99 414 87 q 294 129 330 111 q 169 83 237 100 q 33 65 101 65 l 0 65 q -47 73 -24 65 l -47 195 l 0 195 l 33 195 q 104 200 68 195 q 174 214 140 205 q 124 288 141 248 q 108 380 108 328 q 119 441 108 410 q 148 499 130 471 q 190 551 166 527 q 239 594 214 576 q 290 622 264 612 q 338 633 315 633 q 398 613 368 633 q 453 562 429 594 q 493 487 477 529 q 509 397 509 444 q 484 305 509 351 q 417 218 460 259 q 516 200 466 205 q 608 195 566 195 l 608 65 m 301 268 q 341 297 322 281 q 373 329 359 313 q 395 363 387 346 q 403 397 403 380 q 397 437 403 418 q 382 470 391 456 q 361 494 373 485 q 338 503 349 503 q 298 492 320 503 q 258 464 277 481 q 226 425 239 446 q 214 380 214 403 q 235 323 214 349 q 301 268 257 298 m 377 844 l 241 844 l 241 979 l 377 979 l 377 844 z "},"ﻕ":{"ha":1067,"x_min":79,"x_max":985,"o":"m 863 298 q 806 418 844 374 q 718 462 768 462 q 689 447 702 462 q 667 410 676 432 q 652 360 657 387 q 646 310 646 334 q 660 294 646 300 q 691 284 673 288 q 730 281 709 281 q 764 280 750 280 q 817 284 793 280 q 863 298 840 289 m 985 74 q 959 -38 985 12 q 889 -123 933 -87 q 786 -186 844 -160 q 661 -228 727 -212 q 524 -251 594 -244 q 387 -258 454 -258 q 253 -239 311 -258 q 157 -185 195 -220 q 98 -104 118 -151 q 79 -1 79 -57 q 90 95 79 47 q 119 186 102 142 q 156 267 136 229 q 191 333 175 304 l 277 293 q 247 237 263 268 q 218 170 231 207 q 196 91 205 134 q 187 -1 187 48 q 199 -52 187 -28 q 237 -92 212 -75 q 299 -119 262 -109 q 387 -128 336 -128 q 499 -124 441 -128 q 611 -110 557 -119 q 715 -84 666 -100 q 801 -46 764 -68 q 859 6 838 -24 q 880 74 880 36 l 880 168 q 824 154 853 159 q 764 150 795 150 q 723 151 746 150 q 674 158 699 153 q 626 173 650 163 q 583 201 602 183 q 553 245 564 219 q 541 310 541 272 q 554 403 541 353 q 591 494 568 452 q 647 564 614 536 q 718 592 679 592 q 825 560 776 592 q 910 470 874 528 q 965 332 945 412 q 985 155 985 252 l 985 74 m 697 729 l 562 729 l 562 865 l 697 865 l 697 729 m 897 729 l 762 729 l 762 865 l 897 865 l 897 729 z "},"ﻖ":{"ha":1120,"x_min":79,"x_max":1120,"o":"m 1120 65 q 1059 65 1093 65 q 989 68 1026 66 q 961 -41 988 7 q 889 -126 935 -90 q 785 -187 844 -162 q 659 -228 726 -212 q 523 -251 593 -244 q 387 -258 453 -258 q 253 -239 311 -258 q 157 -185 195 -220 q 98 -104 118 -151 q 79 -1 79 -57 q 90 95 79 47 q 119 186 102 142 q 156 267 136 229 q 191 333 175 304 l 277 293 q 247 237 263 268 q 218 170 231 207 q 196 91 205 134 q 187 -1 187 48 q 199 -52 187 -28 q 237 -92 212 -75 q 299 -119 262 -109 q 387 -128 336 -128 q 499 -124 441 -128 q 613 -110 557 -119 q 718 -84 668 -100 q 804 -46 767 -68 q 863 7 842 -23 q 885 77 885 38 q 772 97 827 83 q 673 133 716 111 q 603 190 629 156 q 576 271 576 224 q 589 364 576 315 q 626 456 602 414 q 681 526 649 498 q 752 553 713 553 q 924 463 866 553 q 987 197 982 373 q 1059 196 1025 196 q 1120 195 1093 195 l 1120 65 m 884 202 q 846 366 878 309 q 752 423 813 423 q 724 408 736 423 q 701 371 711 393 q 686 322 692 349 q 681 271 681 295 q 697 244 681 256 q 742 225 714 233 q 807 211 770 216 q 884 202 844 205 m 697 729 l 562 729 l 562 865 l 697 865 l 697 729 m 897 729 l 762 729 l 762 865 l 897 865 l 897 729 z "},"ﻗ":{"ha":608,"x_min":-47,"x_max":525,"o":"m 0 65 q -47 73 -24 65 l -47 195 l 0 195 l 44 195 q 153 197 106 195 q 236 204 199 199 q 306 218 273 210 q 372 240 338 227 q 387 250 380 243 q 399 269 393 257 q 410 298 406 281 q 417 342 414 316 q 369 331 393 334 q 317 328 344 328 q 275 329 298 328 q 227 335 252 330 q 178 351 202 340 q 135 379 154 361 q 104 423 116 397 q 93 488 93 450 q 106 581 93 531 q 143 672 119 630 q 199 742 167 714 q 270 770 231 770 q 320 761 292 770 q 376 735 348 753 q 432 689 405 717 q 479 624 458 662 q 512 538 500 587 q 525 431 525 490 q 517 287 525 342 q 493 196 509 231 q 456 145 478 162 q 408 118 435 128 q 330 92 367 102 q 253 76 294 82 q 162 67 212 70 q 44 65 112 65 l 0 65 m 418 477 q 393 550 410 519 q 354 601 376 581 q 310 630 333 621 q 270 640 288 640 q 241 625 254 640 q 219 587 229 610 q 204 538 210 565 q 199 488 199 511 q 212 471 199 477 q 243 462 225 465 q 282 458 262 459 q 317 458 302 458 q 418 477 373 458 m 256 897 l 121 897 l 121 1033 l 256 1033 l 256 897 m 456 897 l 321 897 l 321 1033 l 456 1033 l 456 897 z "},"ﻘ":{"ha":608,"x_min":-47,"x_max":608,"o":"m 608 65 q 537 68 576 65 q 456 79 498 72 q 372 99 414 87 q 294 129 330 111 q 169 83 237 100 q 33 65 101 65 l 0 65 q -47 73 -24 65 l -47 195 l 0 195 l 33 195 q 104 200 68 195 q 174 214 140 205 q 124 288 141 248 q 108 380 108 328 q 119 441 108 410 q 148 499 130 471 q 190 551 166 527 q 239 594 214 576 q 290 622 264 612 q 338 633 315 633 q 398 613 368 633 q 453 562 429 594 q 493 487 477 529 q 509 397 509 444 q 484 305 509 351 q 417 218 460 259 q 516 200 466 205 q 608 195 566 195 l 608 65 m 301 268 q 341 297 322 281 q 373 329 359 313 q 395 363 387 346 q 403 397 403 380 q 397 437 403 418 q 382 470 391 456 q 361 494 373 485 q 338 503 349 503 q 298 492 320 503 q 258 464 277 481 q 226 425 239 446 q 214 380 214 403 q 235 323 214 349 q 301 268 257 298 m 277 844 l 141 844 l 141 979 l 277 979 l 277 844 m 477 844 l 341 844 l 341 979 l 477 979 l 477 844 z "}}}
